<?xml version="1.0" encoding="utf-8"?>
<!-- Generator: Adobe Illustrator 26.0.3, SVG Export Plug-In . SVG Version: 6.00 Build 0)  -->
<svg version="1.0" id="Layer_1" xmlns="http://www.w3.org/2000/svg" xmlns:xlink="http://www.w3.org/1999/xlink" x="0px" y="0px"
	 viewBox="0 0 308 204" style="enable-background:new 0 0 308 204;" xml:space="preserve">
<style type="text/css">
	.st0{fill:#009CDB;}
	.st1{fill:#23201C;}
	.st2{fill:none;stroke:#1A1918;stroke-miterlimit:22.93;}
</style>
<path class="st0" d="M242.1,119.9c4.6,0,9-1.2,13-3.5l-38.4-17.7C218.9,111,229.6,120,242.1,119.9 M242.1,69.6
	c-12.2-0.1-22.8,8.5-25.2,20.5l37.9-17.2C250.9,70.7,246.6,69.6,242.1,69.6L242.1,69.6z M262.5,79.4l-34.6,15l34.8,15.4
	C269.6,100.8,269.5,88.3,262.5,79.4L262.5,79.4z"/>
<polyline class="st1" points="272.1,137.6 272.1,128.9 274,128.9 274,137.9 272.1,137.9 "/>
<polyline class="st1" points="267.1,137.9 262.8,132.5 262.8,137.9 260.9,137.9 260.9,128.9 261.9,128.9 262,129.1 266.2,134.1 
	266.2,128.9 268,128.9 268,138 267.2,138 "/>
<path class="st1" d="M255.4,137.6l-0.6-1.6h-3.1l-0.6,1.6l-0.1,0.2h-2.1l0.2-0.4l3.8-8.4l0.1-0.2h0.7l0.1,0.2l3.5,8.4l0.2,0.4h-2.1
	 M253.3,132.2l-1,2.5h1.9"/>
<polyline class="st1" points="244.8,133.9 244.8,137.9 242.9,137.9 242.9,133.9 239.9,129.4 239.6,128.9 241.7,128.9 241.8,129.1 
	243.9,132.3 245.9,129.1 246,128.9 248.1,128.9 247.8,129.4 "/>
<polyline class="st1" points="232.7,137.6 232.7,128.9 234.6,128.9 234.6,136.2 238.9,136.2 238.9,137.9 232.7,137.9 "/>
<path class="st1" d="M227,137.6l-0.6-1.6h-3.1l-0.6,1.6l-0.1,0.2h-2.1l0.2-0.4l3.8-8.4l0.1-0.2h0.7l0.1,0.2l3.6,8.4l0.2,0.4h-2.1
	 M224.9,132.2l-1,2.5h1.9"/>
<polyline class="st1" points="215.9,137.7 213.5,134.2 212.5,135.4 212.5,137.9 210.6,137.9 210.6,128.9 212.5,128.9 212.5,132.9 
	215.5,129.1 215.6,128.9 217.8,128.9 214.7,132.9 217.8,137.4 218.1,137.9 216,137.9 "/>
<path class="st0" d="M36.1,99.8v2.2c0.2,0,0.5,0,0.8,0c0.5,0,0.9-0.1,1.3-0.3c0.3-0.2,0.4-0.5,0.4-0.9c0-0.3-0.1-0.6-0.3-0.8
	c-0.4-0.2-0.8-0.3-1.2-0.3h-0.7L36.1,99.8 M36.1,103.4v3.1h0.4H37c0.4,0,0.7,0,1.1-0.1h0.1c0.2-0.1,0.4-0.1,0.5-0.2
	c0.2-0.1,0.3-0.3,0.4-0.5c0.1-0.2,0.1-0.5,0.1-0.8c0-0.2,0-0.5-0.1-0.7c0,0,0-0.1,0-0.1c-0.1-0.1-0.2-0.3-0.3-0.3
	c-0.2-0.1-0.4-0.2-0.7-0.3c-0.4-0.1-0.7-0.1-1.1-0.1L36.1,103.4z M37.4,108H34v-9.8h4.4h0.2c0.4,0.1,0.8,0.3,1.1,0.5
	c0.1,0.1,0.2,0.2,0.2,0.3c0.1,0.1,0.2,0.1,0.2,0.2c0.3,0.4,0.5,0.9,0.5,1.5c0,0.2,0,0.5-0.2,0.7c-0.1,0.2-0.3,0.5-0.5,0.6
	c-0.2,0.2-0.4,0.3-0.6,0.5c0.5,0.2,0.9,0.4,1.2,0.8c0.2,0.2,0.4,0.5,0.5,0.8c0.1,0.3,0.2,0.7,0.2,1c0,0.4-0.1,0.8-0.3,1.2
	c-0.2,0.4-0.5,0.7-0.9,0.9c-0.4,0.3-0.8,0.5-1.3,0.6C38.4,107.9,37.9,108,37.4,108z"/>
<path class="st0" d="M123,103c0-0.7,0.1-1.3,0.3-1.9c0.2-0.6,0.5-1.1,0.9-1.6l0,0l0.4-0.4c0.1-0.1,0.3-0.2,0.4-0.3
	c0.7-0.5,1.6-0.8,2.5-0.8c0.7,0,1.4,0.1,2,0.3c0.6,0.2,1.1,0.6,1.5,1c0.1,0.1,0.2,0.3,0.3,0.4c0.1,0.1,0.2,0.3,0.3,0.4
	c0.5,0.9,0.7,1.8,0.6,2.8c0,0.7-0.1,1.4-0.3,2.1c0,0.1-0.1,0.2-0.1,0.3c-0.2,0.5-0.5,0.9-0.8,1.3c-0.4,0.5-0.9,0.8-1.5,1.1
	c-0.6,0.2-1.3,0.4-2,0.4c-0.7,0-1.3-0.1-1.9-0.4c-0.6-0.2-1.1-0.6-1.4-1.1c-0.4-0.5-0.7-1-0.9-1.6C123.1,104.3,123,103.7,123,103
	 M125.1,103c0,0.5,0.1,0.9,0.2,1.4c0.1,0.4,0.3,0.8,0.5,1.1c0.4,0.6,1,1,1.8,0.9c0.4,0,0.8-0.1,1.2-0.2c0.3-0.1,0.6-0.4,0.8-0.6l0,0
	c0.1-0.2,0.2-0.3,0.3-0.5c0.1-0.2,0.2-0.4,0.2-0.6c0.1-0.5,0.2-1,0.2-1.5c0.1-0.9-0.2-1.8-0.7-2.5c-0.5-0.5-1.2-0.8-2-0.8
	c-0.3,0-0.7,0.1-1,0.2l-0.1,0.1c-0.2,0.1-0.4,0.3-0.6,0.6c-0.2,0.3-0.4,0.6-0.5,1C125.2,102,125.1,102.5,125.1,103L125.1,103z"/>
<polyline class="st0" points="95.3,100.1 95.3,108 97.3,108 97.3,100.1 100.6,100.1 100.6,98.3 91.9,98.3 91.9,100.1 92.2,100.1 "/>
<path class="st0" d="M62.2,101.8l-1.1,2.7h2.1 M64.5,107.8l-0.6-1.7h-3.4l-0.7,1.7l-0.1,0.2h-2.3l0.2-0.5l4.2-9.2l0.1-0.2h0.8
	l0.1,0.2l3.9,9.2l0.2,0.5h-2.3L64.5,107.8z"/>
<path class="st0" d="M155.5,99.2l-0.6,1l-0.2,0.3l-0.3-0.2c-0.2-0.1-0.3-0.2-0.5-0.3c-0.2-0.1-0.3-0.1-0.5-0.2
	c-0.3-0.1-0.7-0.2-1-0.2c-0.5,0-0.9,0.1-1.3,0.2c-0.1,0-0.1,0-0.2,0.1c-0.3,0.1-0.6,0.4-0.8,0.6c-0.3,0.3-0.5,0.7-0.7,1.1
	c-0.1,0.5-0.2,1-0.2,1.4c0,0.5,0.1,0.9,0.2,1.4c0.1,0.4,0.4,0.7,0.6,1c0.3,0.3,0.6,0.5,1,0.6c0.4,0.2,0.9,0.2,1.3,0.2
	c0.3,0,0.6,0,0.9-0.1h0.1c0.2-0.1,0.3-0.2,0.5-0.3v-1.8h-1.4v-1.5h3.5v4.4l-0.1,0.1l0,0l-0.2,0.1c-0.1,0-0.1,0.1-0.2,0.1
	c-0.4,0.2-0.9,0.4-1.3,0.5l-0.3,0.1l-0.3,0.1c-0.5,0.1-1,0.1-1.5,0.1c-0.7,0-1.4-0.1-2-0.3l-0.3-0.1c-0.5-0.2-0.9-0.5-1.3-0.9l0,0
	c-0.1-0.1-0.2-0.3-0.3-0.4c-0.1-0.1-0.2-0.3-0.3-0.4c-0.5-0.8-0.7-1.8-0.7-2.8l0,0c0-0.7,0.1-1.4,0.4-2c0-0.1,0.1-0.2,0.1-0.3
	c0.2-0.5,0.6-1,1-1.3l0.4-0.4c0.2-0.1,0.3-0.2,0.5-0.3c0.9-0.5,2-0.8,3-0.7c0.5,0,1.1,0.1,1.6,0.2c0.5,0.1,0.9,0.4,1.3,0.7l0.2,0.1"
	/>
<path class="st0" d="M76.2,107.9l-2.7-3.8h-0.5h-0.6v4h-2.1v-9.8c1.4-0.1,2.8-0.1,4.1,0h0.3c0.5,0.1,1,0.3,1.5,0.6
	c0.7,0.5,1.1,1.3,1.1,2.2c0,0.6-0.2,1.3-0.7,1.7l0,0c-0.1,0.1-0.1,0.1-0.2,0.2l-0.2,0.2c-0.2,0.2-0.5,0.4-0.8,0.5l2.8,4l0.3,0.4
	h-2.3 M72.5,99.9v2.5l0,0c0.2,0,0.5,0,0.7,0c0.4,0,0.7,0,1.1-0.1c0.2,0,0.5-0.1,0.7-0.2c0.1-0.1,0.3-0.2,0.3-0.4
	c0.1-0.2,0.1-0.5,0.1-0.7c0-0.2,0-0.4-0.1-0.6c-0.1-0.1-0.2-0.3-0.4-0.3l0,0c0,0-0.1-0.1-0.2-0.1c-0.1,0-0.1,0-0.2-0.1
	c-0.5-0.1-1-0.2-1.5-0.2h-0.3L72.5,99.9z M72.2,102.4L72.2,102.4"/>
<polyline class="st0" points="51.7,107.8 51.7,103.7 47.7,103.7 47.7,108 45.6,108 45.6,98.2 47.7,98.2 47.7,101.8 51.7,101.8 
	51.7,98.2 53.7,98.2 53.7,108 51.7,108 "/>
<polyline class="st0" points="162.4,101.8 165.9,101.8 165.9,103.7 162.4,103.7 162.4,106.2 167.2,106.2 167.2,108 160.3,108 
	160.3,98.2 167.2,98.2 167.2,100.1 162.4,100.1 "/>
<polyline class="st0" points="115,101.8 118.5,101.8 118.5,103.7 115,103.7 115,108 112.9,108 112.9,98.2 119.8,98.2 119.8,100.1 
	115,100.1 "/>
<path class="st0" d="M85.5,101.8l-2.1,6.3l3.1-3.6 M87.8,107.8l-0.6-1.7h-3.4l-0.7,1.7l-0.1,0.2h-2.3l0.2-0.5l4.2-9.2l0.1-0.2H86
	l0.1,0.2l3.9,9.2l0.2,0.5h-2.3L87.8,107.8z"/>
<path class="st0" d="M142.3,107.9l-2.7-3.8h-0.5h-0.6v4h-2.1v-9.8c1.4-0.1,2.8-0.1,4.1,0h0.3c0.5,0.1,1.1,0.3,1.5,0.6
	c1.2,0.9,1.4,2.6,0.5,3.8c0,0.1-0.1,0.1-0.1,0.2l0,0l-0.2,0.2l-0.2,0.2c-0.2,0.2-0.5,0.4-0.8,0.5l2.8,4l0.3,0.4h-2.3 M138.5,99.9
	v2.5l0,0c0.2,0,0.5,0,0.7,0c0.4,0,0.7,0,1.1-0.1c0.2,0,0.4-0.1,0.6-0.2c0.1-0.1,0.3-0.2,0.3-0.4c0.1-0.2,0.1-0.5,0.1-0.7
	c0-0.2,0-0.4-0.1-0.6c-0.1-0.1-0.2-0.3-0.4-0.3l0,0c0,0-0.1-0.1-0.2-0.1c-0.1,0-0.1,0-0.2-0.1c-0.5-0.1-1-0.2-1.5-0.2h-0.3
	L138.5,99.9z M138.3,102.4L138.3,102.4 M140.9,100.2L140.9,100.2"/>
<line class="st2" x1="190.3" y1="136.4" x2="190.3" y2="66"/>
</svg>
