<svg xmlns="http://www.w3.org/2000/svg" viewBox="0 0 500 410.9"><defs><style>.cls-1,.cls-3{fill:#fff;}.cls-1{stroke:#2c3f7e;stroke-miterlimit:2.61;stroke-width:8.73px;}.cls-2,.cls-4{fill:#2c3f7e;}.cls-4{fill-rule:evenodd;}</style></defs><title>BHEL</title><g id="Layer_2" data-name="Layer 2"><g id="Layer_1-2" data-name="Layer 1"><path class="cls-1" d="M30,4.36H470a25.79,25.79,0,0,1,25.62,25.8V380.74A25.79,25.79,0,0,1,470,406.53H30A25.78,25.78,0,0,1,4.36,380.74V30.16A25.79,25.79,0,0,1,30,4.36Z"/><path class="cls-2" d="M495.61,92.39V380.73A25.8,25.8,0,0,1,470,406.53H30a25.8,25.8,0,0,1-25.62-25.8V92.39Z"/><path class="cls-3" d="M82.1,192.51l92,.2a8.7,8.7,0,0,1,7.34,11.42l-14.13,42.92c-1.22,2.24-3.91,3.87-7.27,5.25,3.14,3,3.27,6.6,1.71,10.5C156,277.67,151.16,290.17,145.42,305c-1.09,3.62-6.36,7.88-11.39,7.47l-92.29.1c-1.25-.84-1.08-3.14.65-7.2,13.53-41.4,27-81.82,39.71-112.9M98,260.3l-12.78,37c.3,1.13,2.36,1.68,6.17,1.63,4.58,1.14,8.2-.75,10.43-7.1l9-23.67c1.17-6.07-.64-8.39-5.73-8.14Zm18.61-55.06-12.78,37q.43,1.69,6.17,1.62c4.58,1.14,8.2-.75,10.43-7.1l9-23.67c1.18-6.07-.64-8.39-5.73-8.14Zm130.76-88.05-53.09,74h6.83L162.7,312.54H187l-22.57,72.67,50.86-70.9h-7l18.9-55.51,14.62,1.32-15.51,52.44,21.9,0-23.16,75.77,55.5-73.9-7.66-.17,40.4-121.46H287.42l22.39-74-1.3.17L258.78,188l-2.47,2.91,7.53.21-17.18,54.16-14.86-.71,16.29-51.85-24.3.08,23.56-75.61Zm83.33,75.54,70.58.21c-.39,4.78-1.65,8.65-3.75,11.58l-24.52.6-13.64,40.14,23.33.8a31.4,31.4,0,0,1-3.57,13.37l-24.58.12-14,38.56L364.13,300a22.65,22.65,0,0,1-3.3,13.1l-68.49-.41c-2-.24-3.15-1.48-2.16-5,13-39.12,26.11-78,40.5-115m82,0L459,193.93l-34.09,104.7,23.31.68a20.58,20.58,0,0,1-4.42,13.8l-70.19-.41-.4-6.35,39.48-113.67"/><path class="cls-4" d="M48.25,26.13h48l2.51-8.69c1.08-2.45,3.31-3.9,6.68-4.33l18.44.32c2.9.05,4.55,3.35,3.89,5.76l-1.92,6.94h11.46l-1.42,6.2H124.15L109.44,85.65,98.2,85.31l14.74-53H105.7l-15,53-11.43-.21,2.66-9.23H62.73c-3.53,0-5.76-3.9-4.4-8.48l7.4-25c1.1-3.7,4.93-4.5,10.07-4.6l16.82-.36h.57l1.29-5.07H46.7l1.55-6.2Zm103.41,4-6.85,24.63c-1,3.61-1.07,6.82.54,9.73L156.77,85h12.56l-13.19-23.1c-1-1.7-1.3-2.67-.44-5.93l7-26.71-.78,3h13.16l.17-.61-6,22c-.34,1.26-.76,2.22-2.35,2.46l-3.11,0-2.21,6.27,10.76.18c3.72.06,6.64-2.28,7.74-6.38l6.39-24h42.16L218.47,69.11l-11.27-.06c-2.89,0-2.07-3-1.74-4.06l6.9-21.82,4.93,0,2-6.13L193,36.75,191.27,43l8.53.08-6.44,23.11c-1.23,4.43.06,9.06,4.25,9.12l18.84.25.4-.59L214.07,85l11.19.37,15.46-54.5-.41,1.43h9.82l1.43-6.2H146.08l-1.51,6.2h6.48l.61-2.23Zm266,55,11.44-40.26c-.35-.77-.85-1.63-1.6-1.63h-3c-1.85,0-3,.48-3.28,1.54L417,62.46H406L410,47c.28-1.1,1.14-3.49-.71-3.58l-4-.2A2,2,0,0,0,403,44.65L392,85.1l-11.46.15L392.31,43c1-3.46,3.73-5.91,6.74-5.91h15.26a3.48,3.48,0,0,1,3.75,3.42c1.44-2.19,3-3.9,5.14-3.76h4.64a5.77,5.77,0,0,1,3.31.75L433.86,28l-1.24,4.35H387.35l-6.41,24c-1.09,4.1-4,6.44-7.72,6.38l-10.76-.18,2.19-6.27,3.12,0c1.59-.24,2-1.2,2.35-2.46l6-22-.16.61H362.77l.8-3-7,26.71c-.85,3.26-.53,4.23.44,5.93L370.23,85H357.66L346.24,64.46c-1.61-2.91-1.54-6.12-.54-9.73l6.85-24.63-.61,2.23h-7.39l1.51-6.2h107.2l-1.65,6.2h-7.76l1-3.61L429,85.35l-11.36-.22ZM270.91,86.79l3.16-9.61c-3.71-4.88-2.39-10.4,3.87-11.5,6.6-1.17,8.28.88,8.74,3.27l4.12.14c1,0,1.67-.86,2-2l1.18-5.8c.29-1.43.44-2.68-1-2.7l-11.43-.19c-3.47-.06-4.53-2.51-3.87-5.45L280,42.66a7,7,0,0,1,7.17-5.47l12.26.16c1.77,0,1.77-1.33,2.12-2.59l.66-2.43H258.74l1.52-6.2h43.67l2.1-7.69c.73-2.65,2.79-5.56,6.62-5.53l19.26.19c4.14,1.37,4.13,4.79,2.23,9.38L323,22.75l1-3.63-6-.1-2,7.11h21.38l-1.41,6.2H314.22l-3.11,11-17.7-.23c-1.56,0-2.71.49-3,1.6l-1.16,4.91c-.33,1.41-.15,2.55,1.08,2.55H303c2.61,0,4,4.35,2.9,8.11l-2.69,9.49c-.95,3.36-4.23,6.5-7.63,6.39l-10.47-.3-2.88,11.06ZM107.46,26.13l1.67-5.91c.23-1,.42-1.25,1.71-1.2l4.92.14c.67.1.7.66.53,1.13L113.88,29l.78-2.82ZM79.27,69.34h-7c-2,0-2.88-.85-2.16-3.6L73.78,52l-1.19-3.74Zm2.21-25.46,9.17-.21L86.71,57.94Z"/></g></g></svg>