<?xml version="1.0" encoding="UTF-8" standalone="no"?>
<svg
   xmlns:dc="http://purl.org/dc/elements/1.1/"
   xmlns:cc="http://creativecommons.org/ns#"
   xmlns:rdf="http://www.w3.org/1999/02/22-rdf-syntax-ns#"
   xmlns:svg="http://www.w3.org/2000/svg"
   xmlns="http://www.w3.org/2000/svg"
   version="1.1"
   id="svg4307"
   viewBox="0 0 198.85332 183.7068"
   height="51.846142mm"
   width="56.120827mm">
  <defs
     id="defs4309">
    <clipPath
       id="clipPath90"
       clipPathUnits="userSpaceOnUse">
      <path
         id="path92"
         d="m -620.936,-14.173 1229.102,0 0,802.346 -1229.102,0 0,-802.346 z" />
    </clipPath>
    <clipPath
       id="clipPath128"
       clipPathUnits="userSpaceOnUse">
      <path
         id="path130"
         d="m -620.936,-14.173 1229.102,0 0,802.346 -1229.102,0 0,-802.346 z" />
    </clipPath>
    <clipPath
       id="clipPath72"
       clipPathUnits="userSpaceOnUse">
      <path
         id="path74"
         d="m -620.936,-14.173 1229.102,0 0,802.346 -1229.102,0 0,-802.346 z" />
    </clipPath>
  </defs>
  <metadata
     id="metadata4312">
    <rdf:RDF>
      <cc:Work
         rdf:about="">
        <dc:format>image/svg+xml</dc:format>
        <dc:type
           rdf:resource="http://purl.org/dc/dcmitype/StillImage" />
        <dc:title></dc:title>
      </cc:Work>
    </rdf:RDF>
  </metadata>
  <g
     transform="translate(-80.573345,-257.6097)"
     id="layer1">
    <g
       id="g68"
       transform="matrix(2.8432069,0,0,-2.8432069,-1378.3006,2365.4163)">
      <g
         clip-path="url(#clipPath72)"
         id="g70">
        <g
           transform="translate(558.8338,712.9603)"
           id="g76">
          <path
             id="path78"
             style="fill:#ed1c24;fill-opacity:1;fill-rule:nonzero;stroke:none"
             d="M 0,0 14.099,0 5.93,-14.172 c 0,0 -1.342,-2.844 -3.24,-3.558 -0.52,-0.196 -0.98,-0.898 -6.753,-0.694 -0.601,0.021 -13.177,0.11 -13.177,0.11 0,0 -3.768,-0.311 -5.729,0.928 -1.101,0.695 -2.941,3.405 -3.716,5.057 -0.707,1.509 -7.585,13.365 -7.585,13.365 0,0 -1.645,2.863 -1.29,4.593 0.272,1.327 0.531,2.538 1.501,3.918 0.402,0.572 7.899,13.664 7.899,13.664 0,0 2.008,3.33 2.897,3.878 0.889,0.547 2.189,1.299 4.219,1.299 l 17.76,0 c 0.001,0 5.055,-0.006 7.221,-4.142 C 7.804,20.682 14.011,9.805 14.011,9.805 L 0.095,9.871 c 0,0 -4.399,8.008 -12.866,5.71 -1.483,-0.402 -4.71,-2.247 -5.051,-3.099 -0.224,-0.561 -0.238,-2.112 1.296,-2.249 1.533,-0.136 4.054,0 4.054,0 0,0 2.487,-0.103 2.726,-2.283 0.126,-1.151 0,-5.486 0,-5.486 0,0 -0.034,-2.454 -3.169,-2.419 -1.043,0.011 -4.225,0 -4.225,0 0,0 -1.397,-0.614 -1.159,-1.637 0.238,-1.022 2.487,-4.089 7.974,-4.463 1.903,-0.13 6.508,0.238 9.915,5.349 C -0.079,-0.211 0,0 0,0" />
        </g>
      </g>
    </g>
    <g
       transform="matrix(2.8432069,0,0,-2.8432069,81.505917,406.14632)"
       id="g80">
      <path
         id="path82"
         style="fill:#231f20;fill-opacity:1;fill-rule:nonzero;stroke:none"
         d="m 0,0 6.908,0 0,-2.116 -4.398,0 0,-2.413 4.398,0 0,-2.133 -4.398,0 0,-2.935 4.398,0 0,-2.134 -6.908,0 L 0,0 Z" />
      <path
         id="path84"
         style="fill:none;stroke:#231f20;stroke-width:0.65600002;stroke-linecap:butt;stroke-linejoin:miter;stroke-miterlimit:2.61299992;stroke-dasharray:none;stroke-opacity:1"
         d="m 0,0 6.908,0 0,-2.116 -4.398,0 0,-2.413 4.398,0 0,-2.133 -4.398,0 0,-2.935 4.398,0 0,-2.134 -6.908,0 L 0,0 Z" />
      <g
         transform="translate(-513.4366,-689.1056)"
         id="g86">
        <g
           clip-path="url(#clipPath90)"
           id="g88">
          <g
             transform="translate(523.0344,680.4437)"
             id="g94">
            <path
               id="path96"
               style="fill:#231f20;fill-opacity:1;fill-rule:nonzero;stroke:none"
               d="m 0,0 c 0.361,-0.87 1.198,-1.395 2.166,-1.395 1.214,0 1.903,0.623 1.903,1.542 0,1.033 -0.968,1.246 -2.576,2.084 -1.722,0.902 -2.724,1.756 -2.724,3.396 0,1.854 1.592,3.314 4.135,3.314 1.411,0 2.412,-0.475 3.199,-1.543 L 4.626,5.988 C 4.266,6.677 3.675,7.005 2.871,7.005 1.854,7.005 1.214,6.431 1.214,5.659 c 0,-1.082 1.05,-1.344 2.363,-1.935 1.968,-0.903 2.92,-2.018 2.92,-3.495 0,-2.117 -1.526,-3.609 -4.151,-3.609 -1.822,0 -3.117,0.656 -3.74,1.804 L 0,0 Z" />
            <path
               id="path98"
               style="fill:none;stroke:#231f20;stroke-width:0.65600002;stroke-linecap:butt;stroke-linejoin:miter;stroke-miterlimit:2.61299992;stroke-dasharray:none;stroke-opacity:1"
               d="m 0,0 c 0.361,-0.87 1.198,-1.395 2.166,-1.395 1.214,0 1.903,0.623 1.903,1.542 0,1.033 -0.968,1.246 -2.576,2.084 -1.722,0.902 -2.724,1.756 -2.724,3.396 0,1.854 1.592,3.314 4.135,3.314 1.411,0 2.412,-0.475 3.199,-1.543 L 4.626,5.988 C 4.266,6.677 3.675,7.005 2.871,7.005 1.854,7.005 1.214,6.431 1.214,5.659 c 0,-1.082 1.05,-1.344 2.363,-1.935 1.968,-0.903 2.92,-2.018 2.92,-3.495 0,-2.117 -1.526,-3.609 -4.151,-3.609 -1.822,0 -3.117,0.656 -3.74,1.804 L 0,0 Z" />
            <g
               transform="translate(14.3067,6.9235)"
               id="g100">
              <path
                 id="path102"
                 style="fill:#231f20;fill-opacity:1;fill-rule:nonzero;stroke:none"
                 d="m 0,0 c -2.51,0 -4.102,-1.625 -4.102,-4.135 0,-2.428 1.427,-4.02 3.856,-4.02 1.345,10e-4 2.509,0.443 3.511,1.363 L 3.248,-9.368 c -1.066,-0.625 -2.231,-0.935 -3.527,-0.935 -3.79,0 -6.399,2.641 -6.399,6.168 0,3.462 2.543,6.152 6.448,6.152 1.477,0 2.641,-0.36 3.593,-0.82 L 3.281,-1.313 C 2.412,-0.541 1.394,0 0,0" />
              <path
                 id="path104"
                 style="fill:none;stroke:#231f20;stroke-width:0.65600002;stroke-linecap:butt;stroke-linejoin:miter;stroke-miterlimit:2.61299992;stroke-dasharray:none;stroke-opacity:1"
                 d="m 0,0 c -2.51,0 -4.102,-1.625 -4.102,-4.135 0,-2.428 1.427,-4.02 3.856,-4.02 1.345,10e-4 2.509,0.443 3.511,1.363 L 3.248,-9.368 c -1.066,-0.625 -2.231,-0.935 -3.527,-0.935 -3.79,0 -6.399,2.641 -6.399,6.168 0,3.462 2.543,6.152 6.448,6.152 1.477,0 2.641,-0.36 3.593,-0.82 L 3.281,-1.313 C 2.412,-0.541 1.394,0 0,0 Z" />
              <g
                 transform="translate(14.6348,-4.151)"
                 id="g106">
                <path
                   id="path108"
                   style="fill:#231f20;fill-opacity:1;fill-rule:nonzero;stroke:none"
                   d="m 0,0 c 0,2.165 -1.527,3.937 -3.676,3.937 -2.182,0 -3.691,-1.772 -3.691,-3.937 0,-2.183 1.444,-3.922 3.691,-3.922 2.183,0 3.675,1.739 3.676,3.922 m 0.754,-4.348 c -1.213,-1.165 -2.789,-1.804 -4.43,-1.804 -1.443,0 -2.855,0.507 -3.987,1.41 -1.476,1.181 -2.28,2.871 -2.28,4.742 0,1.673 0.623,3.182 1.821,4.347 1.181,1.149 2.806,1.805 4.446,1.805 1.641,0 3.249,-0.657 4.43,-1.805 C 1.952,3.182 2.575,1.657 2.575,0 c 0,-1.673 -0.639,-3.216 -1.821,-4.348" />
                <path
                   id="path110"
                   style="fill:none;stroke:#231f20;stroke-width:0.65600002;stroke-linecap:butt;stroke-linejoin:miter;stroke-miterlimit:2.61299992;stroke-dasharray:none;stroke-opacity:1"
                   d="m 0,0 c 0,2.165 -1.527,3.937 -3.676,3.937 -2.182,0 -3.691,-1.772 -3.691,-3.937 0,-2.183 1.444,-3.922 3.691,-3.922 C -1.493,-3.922 0,-2.183 0,0 Z m 0.754,-4.348 c -1.213,-1.165 -2.789,-1.804 -4.43,-1.804 -1.443,0 -2.855,0.507 -3.987,1.41 -1.476,1.181 -2.28,2.871 -2.28,4.742 0,1.673 0.623,3.182 1.821,4.347 1.181,1.149 2.806,1.805 4.446,1.805 1.641,0 3.249,-0.657 4.43,-1.805 C 1.952,3.182 2.575,1.657 2.575,0 c 0,-1.673 -0.639,-3.216 -1.821,-4.348 z" />
                <g
                   transform="translate(7.1689,0.8852)"
                   id="g112">
                  <path
                     id="path114"
                     style="fill:#231f20;fill-opacity:1;fill-rule:nonzero;stroke:none"
                     d="M 0,0 C 1.559,0 2.494,0.131 2.494,1.494 2.494,2.856 1.592,3.085 0,3.085 l -0.378,0 L -0.378,0 0,0 Z m 2.707,-6.727 -3.085,5.481 0,-5.481 -2.509,0 0,11.731 3.593,0 c 2.855,0 4.265,-1.115 4.265,-3.33 0,-1.624 -1.083,-2.872 -2.609,-3.068 l 3.233,-5.333 -2.888,0 z" />
                  <path
                     id="path116"
                     style="fill:none;stroke:#231f20;stroke-width:0.65600002;stroke-linecap:butt;stroke-linejoin:miter;stroke-miterlimit:2.61299992;stroke-dasharray:none;stroke-opacity:1"
                     d="M 0,0 C 1.559,0 2.494,0.131 2.494,1.494 2.494,2.856 1.592,3.085 0,3.085 l -0.378,0 L -0.378,0 0,0 Z m 2.707,-6.727 -3.085,5.481 0,-5.481 -2.509,0 0,11.731 3.593,0 c 2.855,0 4.265,-1.115 4.265,-3.33 0,-1.624 -1.083,-2.872 -2.609,-3.068 l 3.233,-5.333 -2.888,0 z" />
                </g>
              </g>
            </g>
          </g>
        </g>
      </g>
      <g
         transform="translate(57.389,-11.7314)"
         id="g118">
        <path
           id="path120"
           style="fill:#231f20;fill-opacity:1;fill-rule:nonzero;stroke:none"
           d="m 0,0 -2.51,0 0,9.599 -2.871,0 0,2.132 8.269,0 0,-2.132 L 0,9.599 0,0 Z" />
        <path
           id="path122"
           style="fill:none;stroke:#231f20;stroke-width:0.65600002;stroke-linecap:butt;stroke-linejoin:miter;stroke-miterlimit:2.61299992;stroke-dasharray:none;stroke-opacity:1"
           d="m 0,0 -2.51,0 0,9.599 -2.871,0 0,2.132 8.269,0 0,-2.132 L 0,9.599 0,0 Z" />
        <g
           transform="translate(-570.8256,-677.3742)"
           id="g124">
          <g
             clip-path="url(#clipPath128)"
             id="g126">
            <g
               transform="translate(576.2234,680.4437)"
               id="g132">
              <path
                 id="path134"
                 style="fill:#231f20;fill-opacity:1;fill-rule:nonzero;stroke:none"
                 d="m 0,0 c 0.361,-0.87 1.198,-1.395 2.166,-1.395 1.214,0 1.902,0.623 1.902,1.542 0,1.033 -0.967,1.246 -2.575,2.084 -1.723,0.902 -2.724,1.756 -2.724,3.396 0,1.854 1.592,3.314 4.134,3.314 1.411,0 2.412,-0.475 3.2,-1.543 L 4.627,5.988 C 4.266,6.677 3.676,7.005 2.871,7.005 1.854,7.005 1.214,6.431 1.214,5.659 c 0,-1.082 1.05,-1.344 2.363,-1.935 1.968,-0.903 2.92,-2.018 2.92,-3.495 0,-2.117 -1.526,-3.609 -4.151,-3.609 -1.821,0 -3.117,0.656 -3.74,1.804 L 0,0 Z" />
              <path
                 id="path136"
                 style="fill:none;stroke:#231f20;stroke-width:0.65600002;stroke-linecap:butt;stroke-linejoin:miter;stroke-miterlimit:2.61299992;stroke-dasharray:none;stroke-opacity:1"
                 d="m 0,0 c 0.361,-0.87 1.198,-1.395 2.166,-1.395 1.214,0 1.902,0.623 1.902,1.542 0,1.033 -0.967,1.246 -2.575,2.084 -1.723,0.902 -2.724,1.756 -2.724,3.396 0,1.854 1.592,3.314 4.134,3.314 1.411,0 2.412,-0.475 3.2,-1.543 L 4.627,5.988 C 4.266,6.677 3.676,7.005 2.871,7.005 1.854,7.005 1.214,6.431 1.214,5.659 c 0,-1.082 1.05,-1.344 2.363,-1.935 1.968,-0.903 2.92,-2.018 2.92,-3.495 0,-2.117 -1.526,-3.609 -4.151,-3.609 -1.821,0 -3.117,0.656 -3.74,1.804 L 0,0 Z" />
            </g>
          </g>
        </g>
      </g>
    </g>
  </g>
</svg>
