<?xml version="1.0" encoding="utf-8"?>
<!-- Generator: Adobe Illustrator 26.5.0, SVG Export Plug-In . SVG Version: 6.00 Build 0)  -->
<svg version="1.1" id="Layer_1" xmlns="http://www.w3.org/2000/svg" xmlns:xlink="http://www.w3.org/1999/xlink" x="0px" y="0px"
	 viewBox="0 0 512 512" style="enable-background:new 0 0 512 512;" xml:space="preserve">
<style type="text/css">
	.st0{fill:#176FC1;}
</style>
<g id="XMLID_40_">
	<path id="XMLID_42_" class="st0" d="M313.79,125.97l-9.4,19.08l-29.74,0.7c0,0-9.26,0-15.71,9.96l-31,56.39
		c0,0-1.82,3.09-4.77,3.09l-24.41-1.26c0,0-2.52,0.28-0.56-3.37c0,0,22.16-45.59,39.98-74.49c0,0,4.35-9.26,18.38-9.82
		C256.7,126.39,279.57,125.55,313.79,125.97z"/>
	<path id="XMLID_46_" class="st0" d="M245.48,185.44l7.01-13.75c0,0,0.84-1.54,3.37-1.54c2.67,0,35.35-0.42,35.35-0.42
		s1.54-0.14,0.84,1.54l-7.57,14.45c0,0-0.28,0.84-2.52,0.84l-35.91,0.42C246.04,187.13,244.78,187.13,245.48,185.44z"/>
	<path id="XMLID_49_" class="st0" d="M256,86.55c-46.29,0-83.74,37.45-83.74,83.74s37.45,83.74,83.74,83.74s83.74-37.45,83.74-83.74
		S302.29,86.55,256,86.55z M256,243.09c-40.26,0-72.94-32.68-72.94-72.94S215.74,97.21,256,97.21s72.94,32.68,72.94,72.94l0,0
		C328.94,210.55,296.26,243.09,256,243.09z"/>
	<path id="XMLID_59_" d="M108.57,424.75c-0.14-0.7-0.14-1.26-0.28-1.82c-0.14-0.56-0.28-1.12-0.42-1.68l-8.42-25.53l-1.68,19.92
		c-0.14,0.98-0.14,2.24-0.28,3.93c-0.14,1.54-0.14,3.37-0.28,5.33h-4.35c0.56-4.07,1.12-8.98,1.68-14.59
		c0.42-5.61,0.84-11.64,1.12-18.24h7.15c0.14,0.7,0.28,1.4,0.42,2.1c0.14,0.7,0.28,1.26,0.42,1.82l8.28,25.67l10.24-24.55
		c0.28-0.84,0.7-1.54,0.98-2.38c0.28-0.84,0.56-1.68,0.84-2.52h7.15c-0.14,1.68-0.14,3.65-0.28,5.75c0,0.42,0,0.84,0,0.98l-0.7,18.8
		v0.56v0.56c0,0.98,0,2.1,0,3.09c0,0.98,0.14,1.96,0.14,2.95h-4.77c0.14-1.26,0.14-2.38,0.28-3.37c0.14-1.12,0.14-1.96,0.14-2.67
		l0.56-15.29c0-0.98,0.14-1.82,0.14-2.52c0-0.7,0-1.26,0-1.82c0-0.42,0-0.98,0-1.68c0-0.84,0-1.4,0-1.82l-10.52,25.25
		c-0.28,0.56-0.42,1.12-0.7,1.82c-0.28,0.7-0.42,1.4-0.7,2.24h-6.17V424.75z M167.63,409.18c0,4.07,1.12,7.29,3.51,9.54
		c2.24,2.24,5.61,3.37,9.82,3.37c4.21,0,7.57-1.26,9.82-3.65c2.24-2.52,3.37-6.03,3.37-10.66c0-4.21-1.12-7.43-3.37-9.54
		c-2.24-2.24-5.61-3.37-9.82-3.37c-4.35,0-7.57,1.26-9.82,3.65C168.75,400.9,167.63,404.41,167.63,409.18z M179.97,425.45
		c-5.33,0-9.54-1.4-12.48-4.35c-2.95-2.95-4.49-6.87-4.49-11.92c0-5.61,1.54-10.1,4.77-13.19c3.23-3.09,7.72-4.77,13.47-4.77
		c5.47,0,9.68,1.4,12.76,4.35c3.09,2.95,4.49,7.01,4.49,12.2c0,5.61-1.68,9.96-4.91,13.05C190.49,423.91,186,425.45,179.97,425.45z
		 M236.5,424.75c0.42-3.37,0.7-7.72,0.98-12.91s0.56-10.66,0.84-16.69c-2.1,0-3.93,0.14-5.61,0.14c-1.54,0-2.95,0.14-4.21,0.28
		l0.14-3.65h23.71l-0.14,3.65c-0.98-0.14-2.1-0.14-3.37-0.28c-1.26,0-3.37-0.14-6.17-0.14l-1.12,18.8c0,0.84-0.14,1.68-0.14,2.52
		c0,0.84,0,2.24,0,3.93c0,0.98,0,1.68,0,2.38c0,0.7,0,1.26,0,1.96L236.5,424.75L236.5,424.75z M285.32,409.18
		c0,4.07,1.12,7.29,3.37,9.54c2.24,2.24,5.61,3.37,9.82,3.37s7.57-1.26,9.82-3.65c2.24-2.52,3.37-6.03,3.37-10.66
		c0-4.21-1.12-7.43-3.37-9.54c-2.24-2.24-5.61-3.37-9.82-3.37c-4.35,0-7.57,1.26-9.82,3.65
		C286.44,400.9,285.32,404.41,285.32,409.18z M297.8,425.45c-5.33,0-9.54-1.4-12.48-4.35c-2.95-2.95-4.49-6.87-4.49-11.92
		c0-5.61,1.54-10.1,4.77-13.19c3.23-3.09,7.72-4.77,13.47-4.77c5.47,0,9.68,1.4,12.62,4.35c3.09,2.95,4.49,7.01,4.49,12.2
		c0,5.61-1.68,9.96-4.91,13.05C308.32,423.91,303.69,425.45,297.8,425.45z M347.6,424.75c0.42-3.93,0.84-8.84,1.12-14.45
		c0.28-5.61,0.42-11.78,0.56-18.38h11.5c3.51,0,6.03,0.56,7.57,1.82c1.4,1.26,2.24,3.23,2.24,6.03c0,2.81-0.84,5.05-2.52,6.73
		c-1.68,1.68-4.07,2.67-7.29,2.95l8.98,15.29h-5.33c-0.42-0.98-0.98-2.1-1.54-3.09c-0.56-0.98-1.12-2.1-1.82-3.23l-7.15-12.06
		c0.42,0,0.84,0,1.4,0c0.56,0,0.84,0,0.98,0c3.23,0,5.75-0.56,7.43-1.68c1.68-1.12,2.52-2.67,2.52-4.91c0-1.68-0.42-2.95-1.4-3.65
		c-0.98-0.7-2.81-0.98-5.89-0.98h-5.19c0,0.7-0.14,1.4-0.14,2.1c0,0.84-0.14,1.82-0.14,3.09l-0.56,13.47
		c-0.14,2.1-0.14,4.07-0.14,5.75c0,1.82-0.14,3.37-0.14,4.77h-5.05V424.75z M399.78,423.49l-0.28-4.35
		c2.24,1.12,3.93,1.96,5.33,2.38c1.4,0.42,2.67,0.56,3.93,0.56c1.82,0,3.23-0.42,4.35-1.12c0.98-0.7,1.54-1.82,1.54-3.23
		c0-0.84-0.28-1.68-0.84-2.52c-0.56-0.84-1.4-1.68-2.52-2.67l-5.75-5.05c-1.96-1.68-3.37-3.23-3.93-4.35
		c-0.7-1.12-0.98-2.38-0.98-3.79c0-2.52,0.84-4.49,2.67-6.03c1.82-1.4,4.21-2.24,7.29-2.24c1.26,0,2.52,0.14,3.93,0.28
		c1.26,0.28,2.52,0.56,3.51,0.98l0.42,3.93c-1.68-0.56-3.23-1.12-4.49-1.4c-1.26-0.28-2.38-0.42-3.37-0.42
		c-1.68,0-3.09,0.42-4.07,1.26c-0.98,0.84-1.54,1.82-1.54,3.09c0,0.7,0.28,1.54,0.7,2.24c0.42,0.7,1.26,1.54,2.24,2.52l6.45,5.61
		c1.68,1.4,2.95,2.81,3.65,4.07c0.7,1.26,1.12,2.52,1.12,3.93c0,2.52-0.84,4.49-2.67,6.03c-1.82,1.54-4.21,2.24-7.29,2.24
		c-1.54,0-2.95-0.14-4.49-0.56C402.87,424.61,401.32,424.05,399.78,423.49"/>
	<rect id="XMLID_63_" y="373.69" width="512" height="4.35"/>
	<path id="XMLID_66_" class="st0" d="M291.21,318.84c9.82-2.38,19.22-8.84,19.22-20.06c0-11.22-9.26-18.38-18.94-20.76
		c-2.52-0.7-5.47-1.12-8.98-1.54c-3.51-0.28-6.45-1.4-8.98-1.54c-2.52-0.14-5.19-0.98-8-0.98H217V357h30.58v-33.1h10.24
		c1.96-0.28,5.61,3.51,8.28,7.15L284.34,357h35.49L291.21,318.84z M265.26,308.88h-17.67v-17.53h17.67c2.1,0,10.8,1.12,10.94,8.14
		C276.34,306.5,271.43,308.88,265.26,308.88z"/>
	<polygon id="XMLID_71_" class="st0" points="437.51,358.68 437.51,275.92 512,275.92 512,293.17 467.81,293.17 467.81,308.46 
		512,308.46 512,325.44 467.81,325.44 467.81,340.59 512,340.59 512,358.68 	"/>
	<polygon id="XMLID_72_" class="st0" points="0,358.26 0,275.92 73.92,275.92 73.92,293.17 30.02,293.17 30.02,309.87 62.98,309.87 
		62.98,325.72 30.02,325.72 30.02,358.26 	"/>
	<path id="XMLID_73_" class="st0" d="M416.33,303.27c-13.89-9.82-52.32-15.15-58.21,12.2c0,25.81,34.79,28.2,52.46,17.25
		l14.59,14.73c-34.09,25.67-105.07,12.2-104.78-30.02c3.51-50.36,80.38-50.64,107.73-31.56L416.33,303.27z"/>
	<path id="XMLID_76_" class="st0" d="M141.12,273.53c-34.93,0-63.26,19.36-63.26,43.2c0,23.85,28.48,43.2,63.26,43.2
		c34.93,0,63.26-19.36,63.26-43.2C204.52,292.89,176.04,273.53,141.12,273.53z M141.12,335.25c-16.69,0-30.3-8.28-30.3-18.52
		c0-10.24,13.61-18.52,30.3-18.52c16.69,0,30.3,8.28,30.3,18.52C171.41,326.84,157.81,335.25,141.12,335.25z"/>
</g>
</svg>
