<?xml version="1.0" encoding="UTF-8"?>
<svg version="1.1" xmlns="http://www.w3.org/2000/svg" width="531" height="323">
<path d="M0 0 C175.23 0 350.46 0 531 0 C531 106.59 531 213.18 531 323 C355.77 323 180.54 323 0 323 C0 216.41 0 109.82 0 0 Z " fill="#FEFEFE" transform="translate(0,0)"/>
<path d="M0 0 C3.99899796 -0.23417556 7.996219 -0.37502133 12 -0.5 C13.12535156 -0.56703125 14.25070312 -0.6340625 15.41015625 -0.703125 C23.69942052 -0.89702592 23.69942052 -0.89702592 27.49658203 1.72192383 C29.49373815 3.72387312 31.25023918 5.78198951 33 8 C33.94875 8.886875 34.8975 9.77375 35.875 10.6875 C38.07932074 13.08631963 38.88778837 14.98113986 40 18 C41.71233622 20.36465477 42.57504601 20.9019337 45.4375 21.5625 C48.34679872 21.22062629 48.34679872 21.22062629 50.1875 18 C50.785625 17.01 51.38375 16.02 52 15 C52.66 15 53.32 15 54 15 C54 14.34 54 13.68 54 13 C54.680625 12.62875 55.36125 12.2575 56.0625 11.875 C59.55707286 9.64442158 61.79995072 6.99429371 64.44921875 3.83984375 C66 2 66 2 68 0 C70.70556641 -0.22705078 70.70556641 -0.22705078 74.1015625 -0.1953125 C75.31328125 -0.18886719 76.525 -0.18242188 77.7734375 -0.17578125 C79.04445313 -0.15902344 80.31546875 -0.14226562 81.625 -0.125 C82.90375 -0.11597656 84.1825 -0.10695313 85.5 -0.09765625 C88.66685167 -0.07402303 91.83333424 -0.04107629 95 0 C93.88736422 3.33790735 93.09509961 3.97187624 90.4375 6.125 C86.40806282 9.51553543 83.0422749 13.2463692 79.6640625 17.27734375 C79.11492187 17.84582031 78.56578125 18.41429688 78 19 C77.34 19 76.68 19 76 19 C75.67 19.99 75.34 20.98 75 22 C74.34 22 73.68 22 73 22 C72.67 22.99 72.34 23.98 72 25 C71.34 25 70.68 25 70 25 C69.67 25.99 69.34 26.98 69 28 C68.34 28 67.68 28 67 28 C66.74605469 28.5878125 66.49210937 29.175625 66.23046875 29.78125 C64.49779401 32.90556508 62.02067068 34.87556092 59.36328125 37.21875 C57.81521477 38.86759268 57.81521477 38.86759268 58 40.82421875 C59.45488001 43.9897194 61.53147669 46.60390053 63.6875 49.3125 C64.36534546 50.1797168 64.36534546 50.1797168 65.05688477 51.06445312 C67.44789077 54.10591881 69.89081621 57.08674809 72.4375 60 C74.66616181 62.60916505 76.29970544 65.04296598 78 68 C78.8524671 69.22633842 79.7165384 70.44466268 80.58984375 71.65625 C81.04093506 72.28337891 81.49202637 72.91050781 81.95678711 73.55664062 C82.30104736 74.03294922 82.64530762 74.50925781 83 75 C62.45013391 76.47904425 62.45013391 76.47904425 56.796875 73.06640625 C54.89543914 70.79847225 53.46186377 68.56288776 52 66 C51.01 65.34 50.02 64.68 49 64 C47.95107762 62.36368108 46.95093297 60.69514137 46 59 C45.34 58.01 44.68 57.02 44 56 C40.70357988 56.57828015 39.12585522 57.52403016 36.8359375 59.94140625 C35.98902344 60.81635742 35.98902344 60.81635742 35.125 61.70898438 C34.5475 62.32064453 33.97 62.93230469 33.375 63.5625 C32.22073345 64.77651382 31.06208966 65.98638572 29.8984375 67.19140625 C29.38974121 67.72967041 28.88104492 68.26793457 28.35693359 68.82250977 C27 70 27 70 25 70 C24.67 70.99 24.34 71.98 24 73 C23.34 73 22.68 73 22 73 C21.67 73.99 21.34 74.98 21 76 C19.31090232 77.58749782 17.51598057 78.97391918 15.69140625 80.40234375 C13.63157031 82.16497727 13.63157031 82.16497727 12 86 C35.43 86 58.86 86 83 86 C83 94.77777778 83 94.77777778 81 100 C80.32215008 102.33010909 79.65583207 104.66359824 79 107 C78.62567729 108.31269332 78.25069883 109.62519987 77.875 110.9375 C77.58625 111.948125 77.2975 112.95875 77 114 C76.34 114 75.68 114 75 114 C74.87882812 114.845625 74.75765625 115.69125 74.6328125 116.5625 C74.46523438 117.696875 74.29765625 118.83125 74.125 120 C73.96257812 121.11375 73.80015625 122.2275 73.6328125 123.375 C72.94400048 127.32078738 71.98781876 131.11903234 71 135 C70.45223782 135.00054477 69.90447563 135.00108953 69.34011459 135.00165081 C56.01125025 135.01661873 42.68272463 135.05938224 29.35404587 135.13209057 C22.90834634 135.16641045 16.46288508 135.19147838 10.01708984 135.19555664 C3.79881923 135.19982877 -2.41891339 135.22820206 -8.6370163 135.27343178 C-11.01168436 135.28644143 -13.38641669 135.29070228 -15.76111603 135.28615379 C-19.08254908 135.28127269 -22.40239463 135.30723166 -25.72363281 135.34057617 C-26.70978073 135.33195053 -27.69592865 135.32332489 -28.71195984 135.31443787 C-34.19251896 135.30426638 -34.19251896 135.30426638 -38.48602295 138.44355774 C-38.98563538 139.28718369 -39.4852478 140.13080963 -40 141 C-41.64821244 142.03013277 -43.31503702 143.03114628 -45 144 C-45.721875 144.721875 -46.44375 145.44375 -47.1875 146.1875 C-47.785625 146.785625 -48.38375 147.38375 -49 148 C-49.66 148 -50.32 148 -51 148 C-51 148.66 -51 149.32 -51 150 C-52.71332754 151.58533702 -54.49689047 153.09541215 -56.3125 154.5625 C-57.29863281 155.36816406 -58.28476562 156.17382812 -59.30078125 157.00390625 C-62 159 -62 159 -65 160 C-65 160.66 -65 161.32 -65 162 C-73.25 162 -81.5 162 -90 162 C-90 161.34 -90 160.68 -90 160 C-89.34 160 -88.68 160 -88 160 C-87.938125 159.278125 -87.87625 158.55625 -87.8125 157.8125 C-86.75628725 154.15637895 -84.6925972 152.62528227 -82 150 C-81.86335938 149.33097656 -81.72671875 148.66195312 -81.5859375 147.97265625 C-81 146 -81 146 -79.2578125 144.875 C-78.20207031 144.441875 -78.20207031 144.441875 -77.125 144 C-73.73813429 142.47591043 -72.04101119 141.17490629 -70 138 C-69.34 138 -68.68 138 -68 138 C-68 137.01 -68 136.02 -68 135 C-108.92 135 -149.84 135 -192 135 C-192 122.59808612 -192 122.59808612 -190.5625 118.375 C-190.29566406 117.55773437 -190.02882812 116.74046875 -189.75390625 115.8984375 C-189 114 -189 114 -188 113 C-187.64434056 111.33415394 -187.3415538 109.65693916 -187.0625 107.9765625 C-186.88976562 106.955625 -186.71703125 105.9346875 -186.5390625 104.8828125 C-186.36117187 103.80773437 -186.18328125 102.73265625 -186 101.625 C-185.64794464 99.51266786 -185.29386726 97.40067146 -184.9375 95.2890625 C-184.70353516 93.87681396 -184.70353516 93.87681396 -184.46484375 92.43603516 C-184 90 -184 90 -183 87 C-128.55 87 -74.1 87 -18 87 C-18.99 88.32 -19.98 89.64 -21 91 C-21.66 91 -22.32 91 -23 91 C-23.33 91.99 -23.66 92.98 -24 94 C-24.66 94 -25.32 94 -26 94 C-26.33 94.99 -26.66 95.98 -27 97 C-28.453125 98.4296875 -28.453125 98.4296875 -30.25 99.875 C-34.42072266 103.33074163 -38.1941604 106.97898467 -41.6484375 111.15625 C-42.42445313 112.0946875 -43.20046875 113.033125 -44 114 C-39.60341822 113.91902093 -35.2082129 113.80618201 -30.8125 113.6875 C-29.56662109 113.66494141 -28.32074219 113.64238281 -27.03710938 113.61914062 C-25.83505859 113.58369141 -24.63300781 113.54824219 -23.39453125 113.51171875 C-21.73707886 113.47244263 -21.73707886 113.47244263 -20.04614258 113.43237305 C-14.51789277 112.64768679 -11.27644922 109.53060048 -7.42578125 105.69140625 C-6.59369141 104.86189453 -5.76160156 104.03238281 -4.90429688 103.17773438 C-3.62135742 101.88319336 -3.62135742 101.88319336 -2.3125 100.5625 C-1.44560547 99.70333984 -0.57871094 98.84417969 0.31445312 97.95898438 C1.55678711 96.7127832 1.55678711 96.7127832 2.82421875 95.44140625 C3.95476685 94.30747437 3.95476685 94.30747437 5.1081543 93.15063477 C7.27880484 90.86734631 7.27880484 90.86734631 9 87 C0.75 87 -7.5 87 -16 87 C-14.06885959 82.17214899 -12.80731287 80.47328372 -9.1875 77 C-8.33542969 76.175 -7.48335937 75.35 -6.60546875 74.5 C-5.74566406 73.675 -4.88585937 72.85 -4 72 C-3.1440625 71.13503906 -2.288125 70.27007812 -1.40625 69.37890625 C1.09240155 66.90864847 3.71017893 64.71979026 6.44921875 62.52734375 C8.17379096 60.82883561 9.03692051 59.20606878 10 57 C10.66 57 11.32 57 12 57 C12.37125 56.071875 12.37125 56.071875 12.75 55.125 C14.22770762 52.61289704 15.43955177 52.23892656 18 51 C18.33 50.01 18.66 49.02 19 48 C19.66 48 20.32 48 21 48 C21.33 47.01 21.66 46.02 22 45 C22.66 45 23.32 45 24 45 C25.65320781 42.02422594 26.75007479 39.41564448 27 36 C25.74192944 33.35805182 24.44097753 31.44097753 22.375 29.375 C21 28 21 28 20 25 C18.35697047 23.31002677 16.68528688 21.64783606 15 20 C13.88125501 18.78408702 12.77717942 17.55452797 11.6875 16.3125 C11.17574219 15.73113281 10.66398438 15.14976563 10.13671875 14.55078125 C9 13 9 13 9 11 C8.01 11 7.02 11 6 11 C3.90436647 7.36756854 1.86450528 3.75632931 0 0 Z " fill="#030303" transform="translate(329,84)"/>
<path d="M0 0 C6.68932017 -0.10181508 13.37843887 -0.17163915 20.06835938 -0.21972656 C22.34187284 -0.23978317 24.6153351 -0.26703538 26.88867188 -0.30175781 C30.16549349 -0.35053712 33.44163025 -0.37302897 36.71875 -0.390625 C38.23172668 -0.42159271 38.23172668 -0.42159271 39.77526855 -0.45318604 C47.27658131 -0.45554583 52.30677138 1.21265765 58.27734375 5.71875 C62.73899435 10.50583864 64.09629369 14.55587596 64.26953125 21.09765625 C63.62738364 28.01237615 60.14497613 32.49814589 55 37 C54.236875 37.556875 53.47375 38.11375 52.6875 38.6875 C52.130625 39.120625 51.57375 39.55375 51 40 C51 40.66 51 41.32 51 42 C51.60328125 42.09539062 52.2065625 42.19078125 52.828125 42.2890625 C56.23098065 43.4029469 57.26166183 45.54512471 59.0234375 48.5390625 C61.22642498 54.09059095 60.61297402 60.34136984 59 66 C58.34 66 57.68 66 57 66 C56.79375 66.7425 56.5875 67.485 56.375 68.25 C53.90636765 73.18726471 49.06815436 75.30386422 44 77 C41.04496765 77.24050903 41.04496765 77.24050903 37.7409668 77.22705078 C35.87960335 77.22682419 35.87960335 77.22682419 33.9806366 77.22659302 C32.63682899 77.21638143 31.29302305 77.20594946 29.94921875 77.1953125 C28.5663117 77.19157931 27.18340198 77.18873378 25.80049133 77.18673706 C22.1721966 77.17912462 18.54406363 77.15949691 14.91583252 77.1373291 C11.20888456 77.11681899 7.5019103 77.10772433 3.79492188 77.09765625 C-3.47012559 77.07624855 -10.73504007 77.04214175 -18 77 C-17.86650146 76.20045898 -17.73300293 75.40091797 -17.59545898 74.57714844 C-17.41829346 73.5152832 -17.24112793 72.45341797 -17.05859375 71.359375 C-16.88384521 70.31233398 -16.70909668 69.26529297 -16.52905273 68.18652344 C-16.18116425 66.09116557 -15.83674342 63.99522851 -15.49609375 61.89868164 C-14.82151583 57.77790694 -14.08832675 53.9335476 -12.5 50.0625 C-10.76657914 45.8291204 -10.1633584 41.54001911 -9.52734375 37.02734375 C-9.05198096 34.29840919 -8.35766099 31.73297654 -7.56860352 29.08178711 C-6.05057937 23.52395459 -5.01814637 17.82629494 -3.85546875 12.18554688 C-3.64535156 11.19232422 -3.43523437 10.19910156 -3.21875 9.17578125 C-3.03248047 8.27770752 -2.84621094 7.37963379 -2.65429688 6.4543457 C-2.02105176 4.07896766 -1.12822559 2.17221479 0 0 Z " fill="#060606" transform="translate(266,84)"/>
<path d="M0 0 C7.26 0 14.52 0 22 0 C21.4144789 5.26968992 20.83361329 10.36504294 19.9375 15.5625 C19.76089844 16.59503906 19.58429688 17.62757812 19.40234375 18.69140625 C19.20318359 19.83416016 19.20318359 19.83416016 19 21 C19.99 21 20.98 21 22 21 C22.495 19.515 22.495 19.515 23 18 C24.6635479 17.32558869 26.33066942 16.6599679 28 16 C29.3565164 14.69026002 30.68557638 13.35197858 32 12 C36.64578308 8.01361839 39.86047657 5.87707478 46 5 C47.3762794 3.08235826 47.3762794 3.08235826 48 1 C49 0 49 0 52.23461914 -0.11352539 C53.66814126 -0.11336631 55.10166912 -0.10767407 56.53515625 -0.09765625 C57.66503212 -0.09553383 57.66503212 -0.09553383 58.81773376 -0.09336853 C61.2326956 -0.08775376 63.64756601 -0.07519883 66.0625 -0.0625 C67.69596221 -0.0574869 69.32942586 -0.05292366 70.96289062 -0.04882812 C74.97529585 -0.03777954 78.98763241 -0.02050506 83 0 C77.37751284 5.65024171 71.66453469 10.60746577 65 15 C64.0409375 16.0209375 64.0409375 16.0209375 63.0625 17.0625 C61.07296063 18.93146123 59.78881722 19.62340015 57.3125 20.625 C53.92312274 21.60822636 53.92312274 21.60822636 53 24 C51.34928604 25.02611949 49.68029994 26.02308143 48 27 C47.278125 27.556875 46.55625 28.11375 45.8125 28.6875 C44 30 44 30 42 30 C42 30.99 42 31.98 42 33 C42.66 33 43.32 33 44 33 C44.43699219 33.81791016 44.43699219 33.81791016 44.8828125 34.65234375 C47.552004 39.56264886 50.41130114 44.24892599 53.5703125 48.859375 C55.1309416 51.19605464 56.56106629 53.58608784 58 56 C58.88623117 57.44120621 59.77445125 58.88119026 60.6640625 60.3203125 C61.14617187 61.10277344 61.62828125 61.88523438 62.125 62.69140625 C63.13064145 64.32295475 64.13847993 65.95315097 65.1484375 67.58203125 C65.62796875 68.36191406 66.1075 69.14179688 66.6015625 69.9453125 C67.03807129 70.65187988 67.47458008 71.35844727 67.92431641 72.08642578 C69 74 69 74 70 77 C61.75 77 53.5 77 45 77 C44.01 75.02 43.02 73.04 42 71 C40.91753326 69.53020511 39.79280334 68.09044926 38.625 66.6875 C35.65114677 62.97487901 33.34342549 59.20944116 31.1328125 55.0078125 C29.93864312 52.76381806 29.93864312 52.76381806 27.6875 50.125 C26 48 26 48 26 45 C24.948125 45.474375 23.89625 45.94875 22.8125 46.4375 C20.48804491 47.45386093 18.72429647 48.04288722 16.1875 48.4375 C13.86767205 48.76377224 13.86767205 48.76377224 12.93359375 50.73828125 C11.97000613 53.07266296 11.38382806 55.27854944 10.875 57.75 C10.70742187 58.54921875 10.53984375 59.3484375 10.3671875 60.171875 C10.24601562 60.77515625 10.12484375 61.3784375 10 62 C9.34 62 8.68 62 8 62 C7.95101562 62.99902344 7.90203125 63.99804688 7.8515625 65.02734375 C7.77679688 66.31769531 7.70203125 67.60804688 7.625 68.9375 C7.55539063 70.22527344 7.48578125 71.51304687 7.4140625 72.83984375 C7.27742188 73.88269531 7.14078125 74.92554688 7 76 C4.44276771 77.27861615 2.63262898 77.11336609 -0.2265625 77.09765625 C-1.7734375 77.09282227 -1.7734375 77.09282227 -3.3515625 77.08789062 C-4.97191406 77.07532227 -4.97191406 77.07532227 -6.625 77.0625 C-8.25695312 77.05573242 -8.25695312 77.05573242 -9.921875 77.04882812 C-12.61463789 77.03701776 -15.30729188 77.02054778 -18 77 C-17.455454 71.7824724 -16.82922473 66.60950341 -15.9375 61.4375 C-15.76089844 60.40496094 -15.58429688 59.37242187 -15.40234375 58.30859375 C-15.26957031 57.54675781 -15.13679687 56.78492188 -15 56 C-14.34 56 -13.68 56 -13 56 C-12.8453125 54.4840625 -12.8453125 54.4840625 -12.6875 52.9375 C-11.30244239 41.99169753 -8.64253067 31.27252987 -5.90625 20.6015625 C-5.18635557 17.74060274 -4.53301433 14.88824451 -3.9375 12 C-3 8 -3 8 0 0 Z " fill="#090909" transform="translate(168,84)"/>
<path d="M0 0 C3.99899796 -0.23417556 7.996219 -0.37502133 12 -0.5 C13.12535156 -0.56703125 14.25070312 -0.6340625 15.41015625 -0.703125 C23.69942052 -0.89702592 23.69942052 -0.89702592 27.49658203 1.72192383 C29.49373815 3.72387312 31.25023918 5.78198951 33 8 C33.94875 8.886875 34.8975 9.77375 35.875 10.6875 C38.07932074 13.08631963 38.88778837 14.98113986 40 18 C41.71233622 20.36465477 42.57504601 20.9019337 45.4375 21.5625 C48.34679872 21.22062629 48.34679872 21.22062629 50.1875 18 C50.785625 17.01 51.38375 16.02 52 15 C52.66 15 53.32 15 54 15 C54 14.34 54 13.68 54 13 C54.680625 12.62875 55.36125 12.2575 56.0625 11.875 C59.55707286 9.64442158 61.79995072 6.99429371 64.44921875 3.83984375 C66 2 66 2 68 0 C70.70556641 -0.22705078 70.70556641 -0.22705078 74.1015625 -0.1953125 C75.31328125 -0.18886719 76.525 -0.18242188 77.7734375 -0.17578125 C79.04445313 -0.15902344 80.31546875 -0.14226562 81.625 -0.125 C82.90375 -0.11597656 84.1825 -0.10695313 85.5 -0.09765625 C88.66685167 -0.07402303 91.83333424 -0.04107629 95 0 C93.88736422 3.33790735 93.09509961 3.97187624 90.4375 6.125 C86.40806282 9.51553543 83.0422749 13.2463692 79.6640625 17.27734375 C79.11492187 17.84582031 78.56578125 18.41429688 78 19 C77.34 19 76.68 19 76 19 C75.505 20.485 75.505 20.485 75 22 C74.34 22 73.68 22 73 22 C72.505 23.485 72.505 23.485 72 25 C71.34 25 70.68 25 70 25 C69.505 26.485 69.505 26.485 69 28 C68.34 28 67.68 28 67 28 C66.74605469 28.5878125 66.49210937 29.175625 66.23046875 29.78125 C64.49779401 32.90556508 62.02067068 34.87556092 59.36328125 37.21875 C57.81521477 38.86759268 57.81521477 38.86759268 58 40.82421875 C59.45488001 43.9897194 61.53147669 46.60390053 63.6875 49.3125 C64.13939697 49.89064453 64.59129395 50.46878906 65.05688477 51.06445312 C67.44789077 54.10591881 69.89081621 57.08674809 72.4375 60 C74.66616181 62.60916505 76.29970544 65.04296598 78 68 C78.8524671 69.22633842 79.7165384 70.44466268 80.58984375 71.65625 C81.26648071 72.59694336 81.26648071 72.59694336 81.95678711 73.55664062 C82.30104736 74.03294922 82.64530762 74.50925781 83 75 C62.45013391 76.47904425 62.45013391 76.47904425 56.796875 73.06640625 C54.89543914 70.79847225 53.46186377 68.56288776 52 66 C50.515 65.01 50.515 65.01 49 64 C47.95107762 62.36368108 46.95093297 60.69514137 46 59 C45.34 58.01 44.68 57.02 44 56 C40.70357988 56.57828015 39.12585522 57.52403016 36.8359375 59.94140625 C35.98902344 60.81635742 35.98902344 60.81635742 35.125 61.70898438 C34.5475 62.32064453 33.97 62.93230469 33.375 63.5625 C32.22073345 64.77651382 31.06208966 65.98638572 29.8984375 67.19140625 C29.38974121 67.72967041 28.88104492 68.26793457 28.35693359 68.82250977 C27 70 27 70 25 70 C24.505 71.485 24.505 71.485 24 73 C23.34 73 22.68 73 22 73 C21.505 74.485 21.505 74.485 21 76 C19.31090232 77.58749782 17.51598057 78.97391918 15.69140625 80.40234375 C13.63157031 82.16497727 13.63157031 82.16497727 12 86 C35.43 86 58.86 86 83 86 C83 88.64 83 91.28 83 94 C82.01 94.495 82.01 94.495 81 95 C81.33 92.36 81.66 89.72 82 87 C46.855 87.495 46.855 87.495 11 88 C10.67 88.66 10.34 89.32 10 90 C9.34 89.67 8.68 89.34 8 89 C8.33 88.34 8.66 87.68 9 87 C0.75 87 -7.5 87 -16 87 C-14.06885959 82.17214899 -12.80731287 80.47328372 -9.1875 77 C-8.33542969 76.175 -7.48335938 75.35 -6.60546875 74.5 C-5.74566406 73.675 -4.88585937 72.85 -4 72 C-3.1440625 71.13503906 -2.288125 70.27007812 -1.40625 69.37890625 C1.09240155 66.90864847 3.71017893 64.71979026 6.44921875 62.52734375 C8.17379096 60.82883561 9.03692051 59.20606878 10 57 C10.66 57 11.32 57 12 57 C12.2475 56.38125 12.495 55.7625 12.75 55.125 C14.22770762 52.61289704 15.43955177 52.23892656 18 51 C18.33 50.01 18.66 49.02 19 48 C19.66 48 20.32 48 21 48 C21.33 47.01 21.66 46.02 22 45 C22.66 45 23.32 45 24 45 C25.65320781 42.02422594 26.75007479 39.41564448 27 36 C25.74192944 33.35805182 24.44097753 31.44097753 22.375 29.375 C21 28 21 28 20 25 C18.35697047 23.31002677 16.68528688 21.64783606 15 20 C13.88125501 18.78408702 12.77717942 17.55452797 11.6875 16.3125 C11.17574219 15.73113281 10.66398437 15.14976563 10.13671875 14.55078125 C9 13 9 13 9 11 C8.01 11 7.02 11 6 11 C3.90436647 7.36756854 1.86450528 3.75632931 0 0 Z " fill="#080808" transform="translate(329,84)"/>
<path d="M0 0 C0.33 0.66 0.66 1.32 1 2 C8.92 2.33 16.84 2.66 25 3 C23.08989752 7.7752562 21.83381744 9.54179624 18.31640625 13.046875 C17.38892578 13.97371094 16.46144531 14.90054688 15.50585938 15.85546875 C14.78112427 16.56775635 14.78112427 16.56775635 14.04174805 17.29443359 C12.56178605 18.75070252 11.09569894 20.21994289 9.63085938 21.69140625 C1.35387348 29.90520904 1.35387348 29.90520904 -3.8190918 30.11352539 C-4.93453369 30.10828857 -6.04997559 30.10305176 -7.19921875 30.09765625 C-8.40771484 30.09443359 -9.61621094 30.09121094 -10.86132812 30.08789062 C-12.7552832 30.07532227 -12.7552832 30.07532227 -14.6875 30.0625 C-16.59885742 30.05573242 -16.59885742 30.05573242 -18.54882812 30.04882812 C-21.69926564 30.03702873 -24.84960949 30.02056597 -28 30 C-26.1659523 25.84694007 -23.51156411 23.85314584 -20 21 C-19.01 19.515 -19.01 19.515 -18 18 C-17.34 18 -16.68 18 -16 18 C-15.79375 17.443125 -15.5875 16.88625 -15.375 16.3125 C-13.86435988 13.77187799 -12.06141825 12.23492503 -9.73046875 10.44140625 C-7.34440201 8.45391499 -5.19584107 6.19584107 -3 4 C-83.685 3.505 -83.685 3.505 -166 3 C-166 2.67 -166 2.34 -166 2 C-165.15055596 1.99576806 -164.30111193 1.99153612 -163.42592716 1.98717594 C-142.78786159 1.88401642 -122.14983108 1.77540104 -101.51182652 1.66066074 C-91.53157808 1.60530649 -81.55132607 1.55182094 -71.57104492 1.50268555 C-62.87551613 1.45987062 -54.1800139 1.41359954 -45.4845261 1.36312145 C-40.87737828 1.33649875 -36.2702358 1.31164522 -31.66305733 1.29092598 C-27.33178826 1.27139305 -23.00056984 1.24725952 -18.66934586 1.21950912 C-17.07495604 1.2101209 -15.48055509 1.20245204 -13.88614845 1.19658089 C-11.71880703 1.18834964 -9.55158955 1.17408174 -7.3842926 1.15821838 C-6.16844766 1.15176583 -4.95260271 1.14531328 -3.69991398 1.1386652 C-1.08321528 1.30651776 -1.08321528 1.30651776 0 0 Z " fill="#FAFAFA" transform="translate(313,168)"/>
<path d="M0 0 C0.33 0.66 0.66 1.32 1 2 C8.92 2.33 16.84 2.66 25 3 C23.08989752 7.7752562 21.83381744 9.54179624 18.31640625 13.046875 C17.38892578 13.97371094 16.46144531 14.90054688 15.50585938 15.85546875 C14.78112427 16.56775635 14.78112427 16.56775635 14.04174805 17.29443359 C12.56178605 18.75070252 11.09569894 20.21994289 9.63085938 21.69140625 C1.35387348 29.90520904 1.35387348 29.90520904 -3.8190918 30.11352539 C-4.93453369 30.10828857 -6.04997559 30.10305176 -7.19921875 30.09765625 C-8.40771484 30.09443359 -9.61621094 30.09121094 -10.86132812 30.08789062 C-12.7552832 30.07532227 -12.7552832 30.07532227 -14.6875 30.0625 C-16.59885742 30.05573242 -16.59885742 30.05573242 -18.54882812 30.04882812 C-21.69926564 30.03702873 -24.84960949 30.02056597 -28 30 C-26.63016497 26.83884224 -26.0109362 26.0072908 -23 24 C-23.33 25.65 -23.66 27.3 -24 29 C-21.14559413 28.85803484 -18.29153804 28.71154174 -15.4375 28.5625 C-14.23770508 28.50352539 -14.23770508 28.50352539 -13.01367188 28.44335938 C-12.22412109 28.40146484 -11.43457031 28.35957031 -10.62109375 28.31640625 C-9.54492798 28.26141968 -9.54492798 28.26141968 -8.44702148 28.20532227 C-7.63950439 28.13756592 -6.8319873 28.06980957 -6 28 C-4.85781006 27.92378418 -3.71562012 27.84756836 -2.53881836 27.76904297 C1.71566026 26.84447535 3.23323389 25.47796043 6.2421875 22.37890625 C7.16257812 21.44369141 8.08296875 20.50847656 9.03125 19.54492188 C9.97928434 18.55089347 10.92719971 17.55675157 11.875 16.5625 C12.84500807 15.57094699 13.81635123 14.58069819 14.7890625 13.59179688 C19.41316675 9.18425398 19.41316675 9.18425398 23 4 C14.42 4.33 5.84 4.66 -3 5 C-3 4.67 -3 4.34 -3 4 C-83.685 3.505 -83.685 3.505 -166 3 C-166 2.67 -166 2.34 -166 2 C-165.15055596 1.99576806 -164.30111193 1.99153612 -163.42592716 1.98717594 C-142.78786159 1.88401642 -122.14983108 1.77540104 -101.51182652 1.66066074 C-91.53157808 1.60530649 -81.55132607 1.55182094 -71.57104492 1.50268555 C-62.87551613 1.45987062 -54.1800139 1.41359954 -45.4845261 1.36312145 C-40.87737828 1.33649875 -36.2702358 1.31164522 -31.66305733 1.29092598 C-27.33178826 1.27139305 -23.00056984 1.24725952 -18.66934586 1.21950912 C-17.07495604 1.2101209 -15.48055509 1.20245204 -13.88614845 1.19658089 C-11.71880703 1.18834964 -9.55158955 1.17408174 -7.3842926 1.15821838 C-6.16844766 1.15176583 -4.95260271 1.14531328 -3.69991398 1.1386652 C-1.08321528 1.30651776 -1.08321528 1.30651776 0 0 Z " fill="#A9A9A9" transform="translate(313,168)"/>
<path d="M0 0 C0.66 0 1.32 0 2 0 C2 1.98 2 3.96 2 6 C42.92 6 83.84 6 126 6 C126 6.99 126 7.98 126 9 C84.42 8.67 42.84 8.34 0 8 C-0.92538169 4.29847322 -1.08174162 3.36541838 0 0 Z " fill="#A2A2A2" transform="translate(135,213)"/>
<path d="M0 0 C3.64581687 -0.02887512 7.29160463 -0.04675585 10.9375 -0.0625 C12.49887695 -0.07506836 12.49887695 -0.07506836 14.09179688 -0.08789062 C15.08115234 -0.09111328 16.07050781 -0.09433594 17.08984375 -0.09765625 C18.46450806 -0.10551147 18.46450806 -0.10551147 19.86694336 -0.11352539 C22 0 22 0 23 1 C23.125 4.5 23.125 4.5 23 8 C22 9 22 9 19.59155273 9.11352539 C18.54942627 9.10828857 17.5072998 9.10305176 16.43359375 9.09765625 C15.30888672 9.09443359 14.18417969 9.09121094 13.02539062 9.08789062 C11.84138672 9.07951172 10.65738281 9.07113281 9.4375 9.0625 C8.24962891 9.05798828 7.06175781 9.05347656 5.83789062 9.04882812 C2.89187774 9.03699675 -0.05403681 9.02051287 -3 9 C-2.44271087 5.65626525 -1.64826111 2.96687001 0 0 Z " fill="#E3E3E3" transform="translate(278,129)"/>
<path d="M0 0 C10.49996894 0.14365629 10.49996894 0.14365629 15.390625 1.23046875 C16.515625 6.98046875 16.515625 6.98046875 15.390625 9.23046875 C8.790625 9.23046875 2.190625 9.23046875 -4.609375 9.23046875 C-4.609375 0.40711546 -4.609375 0.40711546 0 0 Z " fill="#FAFAFA" transform="translate(286.609375,104.76953125)"/>
<path d="M0 0 C0.33 0.66 0.66 1.32 1 2 C0.67 2.66 0.34 3.32 0 4 C7.92 4 15.84 4 24 4 C24.33 2.68 24.66 1.36 25 0 C25.33 0.99 25.66 1.98 26 3 C25.67 3.66 25.34 4.32 25 5 C48.43 5 71.86 5 96 5 C96 7.64 96 10.28 96 13 C95.34 13.33 94.68 13.66 94 14 C94.33 11.36 94.66 8.72 95 6 C59.855 6.495 59.855 6.495 24 7 C23.67 7.66 23.34 8.32 23 9 C22.34 8.67 21.68 8.34 21 8 C21.33 7.34 21.66 6.68 22 6 C13.75 6 5.5 6 -3 6 C-1 1 -1 1 0 0 Z " fill="#636363" transform="translate(316,165)"/>
<path d="M0 0 C6.79928419 -0.0505894 13.5985201 -0.08568667 20.39794922 -0.10986328 C22.71242079 -0.11993892 25.02687959 -0.13359975 27.34130859 -0.15087891 C30.66246693 -0.17505865 33.9834574 -0.1864673 37.3046875 -0.1953125 C38.34430634 -0.20563507 39.38392517 -0.21595764 40.45504761 -0.22659302 C41.41589264 -0.22674408 42.37673767 -0.22689514 43.36669922 -0.22705078 C44.63910965 -0.23371262 44.63910965 -0.23371262 45.93722534 -0.24050903 C48 0 48 0 50 2 C33.83 2.33 17.66 2.66 1 3 C-0.43299651 7.29898953 -1.23059499 9.81263604 -1.5 14.0625 C-1.80322579 17.71774905 -2.33831002 20.67662004 -4 24 C-4.33 24 -4.66 24 -5 24 C-5.48311589 15.62599123 -3.8687977 7.47422187 0 0 Z " fill="#262626" transform="translate(266,84)"/>
<path d="M0 0 C0.66 0.33 1.32 0.66 2 1 C0.37660195 2.70884005 -1.29319053 4.37446717 -3 6 C-3.66 6 -4.32 6 -5 6 C-5 6.99 -5 7.98 -5 9 C-14.9 9 -24.8 9 -35 9 C-33.95206337 4.80825346 -33.08236365 3.78407039 -30 1 C-29.34 1.33 -28.68 1.66 -28 2 C-28.33 2.99 -28.66 3.98 -29 5 C-29.66 5 -30.32 5 -31 5 C-31 5.66 -31 6.32 -31 7 C-22.75 7 -14.5 7 -6 7 C-6 6.34 -6 5.68 -6 5 C-4.04072937 3.2856382 -2.04119788 1.61594832 0 0 Z " fill="#ABABAB" transform="translate(270,239)"/>
<path d="M0 0 C10.49996894 0.14365629 10.49996894 0.14365629 15.390625 1.23046875 C15.390625 1.56046875 15.390625 1.89046875 15.390625 2.23046875 C9.780625 2.23046875 4.170625 2.23046875 -1.609375 2.23046875 C-1.939375 3.88046875 -2.269375 5.53046875 -2.609375 7.23046875 C3.330625 7.23046875 9.270625 7.23046875 15.390625 7.23046875 C15.390625 7.89046875 15.390625 8.55046875 15.390625 9.23046875 C8.790625 9.23046875 2.190625 9.23046875 -4.609375 9.23046875 C-4.609375 0.40711546 -4.609375 0.40711546 0 0 Z " fill="#A6A6A6" transform="translate(286.609375,104.76953125)"/>
<path d="M0 0 C0.33 0.66 0.66 1.32 1 2 C0.67 2.66 0.34 3.32 0 4 C7.92 4 15.84 4 24 4 C24.33 2.68 24.66 1.36 25 0 C26 3 26 3 24.5625 6.1875 C23.7890625 7.5796875 23.7890625 7.5796875 23 9 C22.34 8.67 21.68 8.34 21 8 C21.33 7.34 21.66 6.68 22 6 C13.75 6 5.5 6 -3 6 C-1 1 -1 1 0 0 Z " fill="#444444" transform="translate(316,165)"/>
<path d="M0 0 C1.81274414 0.01450195 1.81274414 0.01450195 3.66210938 0.02929688 C5.55606445 0.06700195 5.55606445 0.06700195 7.48828125 0.10546875 C9.39963867 0.12577148 9.39963867 0.12577148 11.34960938 0.14648438 C14.50042182 0.18188676 17.6503917 0.23127085 20.80078125 0.29296875 C20.47078125 1.28296875 20.14078125 2.27296875 19.80078125 3.29296875 C18.81078125 3.62296875 17.82078125 3.95296875 16.80078125 4.29296875 C16.47078125 3.96296875 16.14078125 3.63296875 15.80078125 3.29296875 C14.20125621 3.20589557 12.59795975 3.18596421 10.99609375 3.1953125 C10.02027344 3.19853516 9.04445313 3.20175781 8.0390625 3.20507812 C7.01167969 3.21345703 5.98429687 3.22183594 4.92578125 3.23046875 C3.90613281 3.23498047 2.88648438 3.23949219 1.8359375 3.24414062 C-0.0610468 3.25288825 -1.95802348 3.26367855 -3.85498047 3.27709961 C-5.63636027 3.28915852 -7.41779814 3.29296875 -9.19921875 3.29296875 C-6.54997804 -0.23528271 -4.24924253 -0.05984849 0 0 Z " fill="#2E2E2E" transform="translate(403.19921875,83.70703125)"/>
<path d="M0 0 C1.54046762 4.10791365 0.75996191 7.78566579 0 12 C-2.55723229 13.27861615 -4.36737102 13.11336609 -7.2265625 13.09765625 C-8.2578125 13.09443359 -9.2890625 13.09121094 -10.3515625 13.08789062 C-11.97191406 13.07532227 -11.97191406 13.07532227 -13.625 13.0625 C-15.25695312 13.05573242 -15.25695312 13.05573242 -16.921875 13.04882812 C-19.61463789 13.03701776 -22.30729188 13.02054778 -25 13 C-25 11.35 -25 9.7 -25 8 C-24.67 9.32 -24.34 10.64 -24 12 C-17.07 12 -10.14 12 -3 12 C-3 9.69 -3 7.38 -3 5 C-1.5 2.0625 -1.5 2.0625 0 0 Z " fill="#6A6A6A" transform="translate(175,148)"/>
<path d="M0 0 C0.33 0.99 0.66 1.98 1 3 C-0.3125 4.5 -0.3125 4.5 -2 6 C-2.99 6 -3.98 6 -5 6 C-5.33 6.99 -5.66 7.98 -6 9 C-6.66 9 -7.32 9 -8 9 C-8.04125 9.556875 -8.0825 10.11375 -8.125 10.6875 C-9.47552769 14.25675176 -11.96577269 15.79869784 -15 18 C-17.375 18.8125 -17.375 18.8125 -19 19 C-17.38405168 16.95880212 -15.7143618 14.95927063 -14 13 C-13.34 13 -12.68 13 -12 13 C-11.79375 12.443125 -11.5875 11.88625 -11.375 11.3125 C-9.82044779 8.69802584 -7.90001063 7.11355008 -5.53125 5.23828125 C-3.54231655 3.62988354 -1.77268432 1.84086449 0 0 Z " fill="#A4A4A4" transform="translate(309,173)"/>
<path d="M0 0 C0.33 0.99 0.66 1.98 1 3 C-2.06882185 7.7271293 -6.02668278 11.38246462 -11 14 C-12.68477344 15.31037934 -14.35648543 16.63823078 -16 18 C-14.40490081 14.00753281 -11.59582367 11.36799914 -8.5625 8.4375 C-8.07201172 7.95603516 -7.58152344 7.47457031 -7.07617188 6.97851562 C-5.72088335 5.64883309 -4.36061877 4.32422778 -3 3 C-1.99788361 2.00212088 -0.99661593 1.00337265 0 0 Z " fill="#A9A9A9" transform="translate(424,84)"/>
<path d="M0 0 C1.30385944 3.65080644 0.66337258 6.07282736 -0.375 9.75 C-1.35178512 13.35794503 -2.17798041 16.7757734 -2.5 20.5 C-3.00030708 24.00214957 -3.58876889 25.48393276 -6 28 C-5.04391046 18.27975636 -3.76312563 9.06571175 0 0 Z " fill="#474747" transform="translate(255,130)"/>
<path d="M0 0 C0.33 0.66 0.66 1.32 1 2 C0.67 2.99 0.34 3.98 0 5 C12.375 4.505 12.375 4.505 25 4 C23 6 23 6 20.29443359 6.22705078 C19.17375488 6.21657715 18.05307617 6.20610352 16.8984375 6.1953125 C15.08085937 6.18564453 15.08085937 6.18564453 13.2265625 6.17578125 C11.95554687 6.15902344 10.68453125 6.14226562 9.375 6.125 C8.09625 6.11597656 6.8175 6.10695312 5.5 6.09765625 C2.33314833 6.07402303 -0.83333424 6.04107629 -4 6 C-2.84826645 3.53199953 -1.95216435 1.95216435 0 0 Z " fill="#C2C2C2" transform="translate(289,192)"/>
<path d="M0 0 C0.66 0.33 1.32 0.66 2 1 C1.67 1.99 1.34 2.98 1 4 C0.34 4 -0.32 4 -1 4 C-1 4.66 -1 5.32 -1 6 C7.25 6 15.5 6 24 6 C24 6.33 24 6.66 24 7 C14.76 7 5.52 7 -4 7 C-4 4 -4 4 -2 1.8125 C-1.34 1.214375 -0.68 0.61625 0 0 Z " fill="#656565" transform="translate(240,240)"/>
<path d="M0 0 C1.37432457 3.81756824 0.67975039 7.07255329 0 11 C2.64 10.34 5.28 9.68 8 9 C5.7629196 12.3556206 5.57482962 12.19278041 2 13 C1.67 13.66 1.34 14.32 1 15 C0.01 15 -0.98 15 -2 15 C-1.85879286 13.06215735 -1.71187127 11.12473045 -1.5625 9.1875 C-1.48128906 8.10855469 -1.40007812 7.02960938 -1.31640625 5.91796875 C-1 3 -1 3 0 0 Z " fill="#BABABA" transform="translate(189,90)"/>
<path d="M0 0 C0.33 0 0.66 0 1 0 C0.88543872 2.39674267 0.75871281 4.79181218 0.625 7.1875 C0.5940625 7.86103516 0.563125 8.53457031 0.53125 9.22851562 C0.29896078 13.19678975 -0.28387476 16.40729879 -2 20 C-2.33 20 -2.66 20 -3 20 C-3.40850553 12.91923749 -1.90420731 6.80074041 0 0 Z " fill="#444444" transform="translate(264,88)"/>
<path d="M0 0 C1.36920346 4.50457226 0.52501966 8.14367163 -0.3125 12.6875 C-0.50875977 13.8640918 -0.50875977 13.8640918 -0.70898438 15.06445312 C-1.06557676 17.05758062 -1.52517826 19.03168609 -2 21 C-2.66 21.33 -3.32 21.66 -4 22 C-3.5697663 14.3299717 -2.25768639 7.34103058 0 0 Z " fill="#B6B6B6" transform="translate(261,96)"/>
<path d="M0 0 C0.33 0 0.66 0 1 0 C1.33266291 6.20970773 0.45029331 10.28264895 -2 16 C-2.33 16 -2.66 16 -3 16 C-3.37851209 10.06997733 -2.10575375 5.52760359 0 0 Z " fill="#AEAEAE" transform="translate(141,189)"/>
<path d="M0 0 C2.0625 0.4375 2.0625 0.4375 4 1 C4 3.31 4 5.62 4 8 C4.99 8 5.98 8 7 8 C7.33 9.32 7.66 10.64 8 12 C7.34 11.67 6.68 11.34 6 11 C6 10.34 6 9.68 6 9 C5.01 9 4.02 9 3 9 C1.68 6.36 0.36 3.72 -1 1 C-0.67 0.67 -0.34 0.34 0 0 Z " fill="#2D2D2D" transform="translate(332,86)"/>
<path d="M0 0 C0.33 0.66 0.66 1.32 1 2 C0.54625 2.433125 0.0925 2.86625 -0.375 3.3125 C-2.20024334 5.10798342 -2.20024334 5.10798342 -4 8 C-5.96752828 9.06246527 -7.96587579 10.07137808 -10 11 C-8.25 7.125 -8.25 7.125 -6 6 C-5.8453125 5.0409375 -5.8453125 5.0409375 -5.6875 4.0625 C-5.460625 3.381875 -5.23375 2.70125 -5 2 C-2.4375 0.75 -2.4375 0.75 0 0 Z " fill="#7B7B7B" transform="translate(253,228)"/>
<path d="M0 0 C0.33 0.66 0.66 1.32 1 2 C0.34 2 -0.32 2 -1 2 C-1.20625 2.7425 -1.4125 3.485 -1.625 4.25 C-3.67066736 8.34133473 -7.00065755 10.00032877 -11 12 C-10.1875 10.0625 -10.1875 10.0625 -9 8 C-8.01 7.67 -7.02 7.34 -6 7 C-5.67 6.01 -5.34 5.02 -5 4 C-3.37667033 2.61423077 -1.71275535 1.27358732 0 0 Z " fill="#979797" transform="translate(353,156)"/>
<path d="M0 0 C0.33 0.66 0.66 1.32 1 2 C-1.09016808 6.54918935 -4.13620455 8.99482576 -8 12 C-8.66 11.67 -9.32 11.34 -10 11 C-9.21625 10.4225 -8.4325 9.845 -7.625 9.25 C-5.19952756 7.17102363 -4.14305583 5.90959667 -3 3 C-2.34 3 -1.68 3 -1 3 C-0.67 2.01 -0.34 1.02 0 0 Z " fill="#3F3F3F" transform="translate(342,138)"/>
<path d="M0 0 C0.66 0.33 1.32 0.66 2 1 C-0.33333333 3.33333333 -2.66666667 5.66666667 -5 8 C-7.125 7.625 -7.125 7.625 -9 7 C-8.34 6.34 -7.68 5.68 -7 5 C-6.01 5 -5.02 5 -4 5 C-3.67 4.01 -3.34 3.02 -3 2 C-2.01 1.34 -1.02 0.68 0 0 Z " fill="#AAAAAA" transform="translate(225,103)"/>
<path d="M0 0 C0 0.99 0 1.98 0 3 C-5.775 8.5125 -5.775 8.5125 -10 9 C-6.93906776 5.06451569 -4.50884026 2.31883213 0 0 Z " fill="#BFBFBF" transform="translate(300,183)"/>
<path d="M0 0 C3.58806317 3.38872633 6.45684799 6.76141332 9 11 C9 11.66 9 12.32 9 13 C5.31622821 11.77207607 4.70214211 10.17088668 2.91796875 6.85546875 C1.81001407 4.61598588 0.85377576 2.34788333 0 0 Z " fill="#B1B1B1" transform="translate(204,147)"/>
<path d="M0 0 C0.66 0.33 1.32 0.66 2 1 C1.814375 1.7425 1.62875 2.485 1.4375 3.25 C1.00796892 5.94990963 1.14877026 7.44631077 2 10 C1.01 9.34 0.02 8.68 -1 8 C-1 7.01 -1 6.02 -1 5 C-1.66 5 -2.32 5 -3 5 C-3 4.01 -3 3.02 -3 2 C-2.01 1.34 -1.02 0.68 0 0 Z " fill="#BDBDBD" transform="translate(213,112)"/>
<path d="M0 0 C1.73246868 3.46493736 0.76936705 7.29783208 0 11 C-1.5625 13.5625 -1.5625 13.5625 -3 15 C-2.5547115 9.72684667 -1.91626837 4.98229776 0 0 Z " fill="#616161" transform="translate(166,91)"/>
<path d="M0 0 C0.66 0 1.32 0 2 0 C3.6875 2.375 3.6875 2.375 5 5 C4.67 5.66 4.34 6.32 4 7 C2.35 6.67 0.7 6.34 -1 6 C-1 3 -1 3 0 0 Z " fill="#363636" transform="translate(210,117)"/>
<path d="M0 0 C0.66 0 1.32 0 2 0 C1.67 1.32 1.34 2.64 1 4 C0.34 4 -0.32 4 -1 4 C-1 4.66 -1 5.32 -1 6 C-2.65 6.33 -4.3 6.66 -6 7 C-4.71937515 5.2925002 -3.38232443 3.62626404 -2 2 C-1.34 2 -0.68 2 0 2 C0 1.34 0 0.68 0 0 Z " fill="#ACACAC" transform="translate(278,232)"/>
<path d="M0 0 C2.64 0 5.28 0 8 0 C8.33 1.98 8.66 3.96 9 6 C8.443125 5.54625 7.88625 5.0925 7.3125 4.625 C4.94686561 2.96266232 2.70984342 1.97855457 0 1 C0 0.67 0 0.34 0 0 Z " fill="#BDBDBD" transform="translate(316,85)"/>
<path d="M0 0 C0.66 0.33 1.32 0.66 2 1 C1.01 1.33 0.02 1.66 -1 2 C-1.33 2.66 -1.66 3.32 -2 4 C-2.33 4.66 -2.66 5.32 -3 6 C-3.99 6.33 -4.98 6.66 -6 7 C-3 1 -3 1 0 0 Z " fill="#CFCFCF" transform="translate(185,132)"/>
</svg>
