<?xml version="1.0" encoding="utf-8"?>
<!-- Generator: Adobe Illustrator 19.2.1, SVG Export Plug-In . SVG Version: 6.00 Build 0)  -->
<svg version="1.1" id="layer" xmlns="http://www.w3.org/2000/svg" xmlns:xlink="http://www.w3.org/1999/xlink" x="0px" y="0px"
	 viewBox="0 0 652 652" style="enable-background:new 0 0 652 652;" xml:space="preserve">
<style type="text/css">
	.st0{fill:#007DC4;}
	.st1{fill:#6D6E70;}
</style>
<g>
	<path class="st0" d="M422.9,219.7V219c23-3.9,67.1-19.4,65.2-71.6C485.9,88.7,429,76.6,392,76.6l-29.8,0v75.5h27.9
		c6.1,0,16.8,0.6,16.8,12.1c0,11.6-10.5,12.5-16.9,12.5h-52.9V76.6h-86.3v100.1h-96l0.1,87.4H251l0,105.2l86.2,0V264.2h57.3
		c8.1,0,17.8,1.2,17.8,11.7c0,11.6-9.6,12.7-17.8,12.7h-31.6v80.8h33.3c41.3,0,101.6-11.5,101.5-76.5
		C497.6,232.8,442,221.1,422.9,219.7"/>
</g>
<polyline class="st1" points="168.7,423.6 192.6,423.6 192.6,489 193,489 238.5,423.6 264.7,423.6 221.4,486.9 269.4,573.7 
	242.2,573.7 205.9,506.2 192.6,525.1 192.6,573.7 168.7,573.7 "/>
<path class="st1" d="M297.3,527.2v3.8c0,18.3,8,27.5,24.6,27.5c15.1,0,22.7-10.7,22.7-21.9c0-15.8-8-22.7-21.4-26.7l-16.4-5.7
	c-21.9-8.4-31.3-19.8-31.3-41.2c0-27.3,18.5-42.5,46.7-42.5c38.5,0,42.5,24,42.5,39.5v3.4h-24v-3.2c0-13.7-6.1-21.7-21-21.7
	c-10.3,0-20.2,5.7-20.2,21.7c0,12.8,6.5,19.3,22.5,25.4l16.2,5.9c21.2,7.6,30.5,19.1,30.5,39.7c0,32-19.3,45.2-49.6,45.2
	c-37.2,0-45.6-24.8-45.6-45.8v-3.6H297.3"/>
<path class="st1" d="M438.7,555.6c14.3,0,22.1-9.2,22.1-26.5c0-16.2-9.7-25.4-23.5-25.4H415v51.9H438.7 M433.9,486.9
	c14.5,0,22.1-9.7,22.1-23.7c0-17.9-10.7-21.4-24.2-21.4H415v45.2H433.9z M391,423.6h48.6c22.3,0,40.4,9.9,40.4,36.4
	c0,18.3-7.2,29.4-22.1,34.1v0.4c16.4,2.9,26.9,12.8,26.9,38.3c0,25-18.1,41-46.2,41H391V423.6z"/>
</svg>
