<?xml version="1.0" encoding="UTF-8"?>
<svg version="1.1" xmlns="http://www.w3.org/2000/svg" width="400" height="400">
<path d="M0 0 C7.48643445 6.94617629 13.64426658 17.05551548 15.875 27 C16.101875 27.928125 16.32875 28.85625 16.5625 29.8125 C17.97703722 44.24077969 15.75240217 57.77928943 6.9375 69.59765625 C-1.62632332 79.73661136 -12.76603365 86.69029742 -26.125 88 C-40.76170365 88.89701771 -53.88562592 85.45876257 -65.25 76 C-75.54328487 66.22461625 -81.93873287 53.27457049 -82.59350586 39.05078125 C-82.81775853 24.44828184 -77.73907857 11.88666605 -67.8125 1.1875 C-48.53314687 -16.79793681 -20.20043852 -15.80903884 0 0 Z M-36.49487305 -1.64550781 C-37.83145306 0.36698529 -38.95752389 2.4140377 -40.0625 4.5625 C-40.47999512 5.32377197 -40.89749023 6.08504395 -41.32763672 6.86938477 C-42.18958151 8.44972601 -43.03942945 10.03672141 -43.87744141 11.62988281 C-45.07314008 13.9014763 -46.30138493 16.15166498 -47.54296875 18.3984375 C-51.36200865 24.41690529 -51.36200865 24.41690529 -53.125 31 C-45.865 31 -38.605 31 -31.125 31 C-31.125 31.66 -31.125 32.32 -31.125 33 C-29.64 33.495 -29.64 33.495 -28.125 34 C-27.795 33.34 -27.465 32.68 -27.125 32 C-15.575 31.67 -4.025 31.34 7.875 31 C5.40051298 19.86480843 1.96973758 12.12871345 -7.125 5 C-13.61675918 1.01119429 -20.47621778 -2.2230659 -28.125 -3 C-29.26453125 -3.16886719 -30.4040625 -3.33773437 -31.578125 -3.51171875 C-35.01807566 -3.37409236 -35.01807566 -3.37409236 -36.49487305 -1.64550781 Z M-50.125 1 C-62.07266857 8.39617578 -70.01612188 16.66831082 -73.5 30.75 C-75.24826215 40.82503649 -73.95304969 51.07256118 -68.375 59.8125 C-67.32390122 61.23276518 -66.24098989 62.63013564 -65.125 64 C-64.37089844 64.93972656 -64.37089844 64.93972656 -63.6015625 65.8984375 C-57.45273752 72.76712491 -49.13461612 76.63242014 -40.125 78 C-39.75213867 77.33991943 -39.37927734 76.67983887 -38.99511719 75.99975586 C-37.28858866 72.97890376 -35.58179643 69.95820074 -33.875 66.9375 C-33.28847656 65.89916016 -32.70195313 64.86082031 -32.09765625 63.79101562 C-31.23720703 62.26831055 -31.23720703 62.26831055 -30.359375 60.71484375 C-29.80314453 59.7285498 -29.24691406 58.74225586 -28.67382812 57.72607422 C-27.36998448 55.43119432 -26.04093278 53.15400528 -24.703125 50.87890625 C-22.96477164 48.25488135 -22.96477164 48.25488135 -23.125 46 C-23.90746094 45.95101562 -24.68992188 45.90203125 -25.49609375 45.8515625 C-26.50800781 45.77679688 -27.51992187 45.70203125 -28.5625 45.625 C-29.57183594 45.55539063 -30.58117188 45.48578125 -31.62109375 45.4140625 C-32.44738281 45.27742188 -33.27367187 45.14078125 -34.125 45 C-34.455 44.34 -34.785 43.68 -35.125 43 C-35.455 43.99 -35.785 44.98 -36.125 46 C-47.675 45.67 -59.225 45.34 -71.125 45 C-70.15135433 41.10541731 -68.84822121 38.35473331 -66.95703125 34.8359375 C-66.63973557 34.24382477 -66.32243988 33.65171204 -65.99552917 33.04165649 C-65.32261855 31.78819047 -64.64754412 30.53588398 -63.97045898 29.28466797 C-62.95360413 27.40477227 -61.94400943 25.52112709 -60.93554688 23.63671875 C-57.50573786 17.25483052 -53.98385105 10.97765165 -50.06518555 4.87744141 C-49.75492432 4.25788574 -49.44466309 3.63833008 -49.125 3 C-49.455 2.34 -49.785 1.68 -50.125 1 Z M-30.125 34 C-31.73407108 36.37612865 -31.73407108 36.37612865 -33.125 39 C-32.795 39.66 -32.465 40.32 -32.125 41 C-30.51592892 38.62387135 -30.51592892 38.62387135 -29.125 36 C-29.455 35.34 -29.785 34.68 -30.125 34 Z M6.875 36 C6.66488281 36.63808594 6.45476562 37.27617187 6.23828125 37.93359375 C5.04499021 40.77708652 4.02016013 42.76492298 1.875 45 C-1.52800781 45.60129972 -4.5259056 45.56979316 -7.96875 45.31640625 C-11.06777742 45.67089702 -11.06777742 45.67089702 -12.4050293 47.38842773 C-13.76872348 49.53866589 -14.94669244 51.74263616 -16.125 54 C-17.23148602 55.92819234 -18.34243093 57.85383052 -19.45703125 59.77734375 C-20.61908804 61.82965421 -21.77921375 63.88305916 -22.9375 65.9375 C-23.8337207 67.5162793 -23.8337207 67.5162793 -24.74804688 69.12695312 C-25.31201172 70.12533203 -25.87597656 71.12371094 -26.45703125 72.15234375 C-26.96983643 73.05976318 -27.4826416 73.96718262 -28.01098633 74.90209961 C-29.2031654 76.75131134 -29.2031654 76.75131134 -29.125 78 C-16.86314547 77.40668446 -8.46064818 71.82510795 -0.125 63 C6.25325711 55.01954912 8.26869639 46.01446315 8.875 36 C8.215 36 7.555 36 6.875 36 Z M-34.125 41 C-33.125 43 -33.125 43 -33.125 43 Z " fill="#FDCE15" transform="translate(93.125,162)"/>
<path d="M0 0 C2.5 1.6875 2.5 1.6875 4 4 C4.5625 6.9375 4.5625 6.9375 4 10 C1.625 12.75 1.625 12.75 -1 15 C-1.66 15.66 -2.32 16.32 -3 17 C-2.34 17.99 -1.68 18.98 -1 20 C-0.34 20 0.32 20 1 20 C1.66 18.02 2.32 16.04 3 14 C5.31 14 7.62 14 10 14 C8.35811351 21.57793765 8.35811351 21.57793765 6.25 24.0625 C5.63125 25.0215625 5.63125 25.0215625 5 26 C5.71514394 29.71295284 5.71514394 29.71295284 7 33 C0.375 33.125 0.375 33.125 -3 32 C-3.99 32.495 -3.99 32.495 -5 33 C-6.95449844 33.1481544 -8.9151053 33.22124849 -10.875 33.25 C-12.44894531 33.28867188 -12.44894531 33.28867188 -14.0546875 33.328125 C-17.30556586 32.96595818 -18.62350767 32.18132146 -21 30 C-21.33 30.99 -21.66 31.98 -22 33 C-28.93 33 -35.86 33 -43 33 C-41.84340554 25.57851886 -40.47417487 18.2256134 -38.9375 10.875 C-38.7631543 10.03348389 -38.58880859 9.19196777 -38.40917969 8.32495117 C-38.1582959 7.13929565 -38.1582959 7.13929565 -37.90234375 5.9296875 C-37.67792603 4.86596924 -37.67792603 4.86596924 -37.44897461 3.78076172 C-37 2 -37 2 -36 0 C-33.69 0 -31.38 0 -29 0 C-29.58882215 9.27394893 -31.75886856 18.0146265 -34 27 C-30.04 27 -26.08 27 -22 27 C-22 25.02 -22 23.04 -22 21 C-20.25394523 17.881093 -17.51909682 15.51909682 -15 13 C-15.33 12.34 -15.66 11.68 -16 11 C-16.375 8.1875 -16.375 8.1875 -16 5 C-11.27214167 -0.75009797 -7.16204034 -1.84454963 0 0 Z M-10 7 C-9.34 8.65 -8.68 10.3 -8 12 C-5.50447516 11.21869929 -5.50447516 11.21869929 -3 10 C-2.67 9.01 -2.34 8.02 -2 7 C-2.97850195 5.97895449 -3.97980427 4.9793879 -5 4 C-6.96822886 4 -8.50528545 5.84280164 -10 7 Z M-11 18 C-13.16641665 19.66545339 -13.16641665 19.66545339 -15 22 C-14.80801478 25.3321498 -14.80801478 25.3321498 -13 28 C-8.85723125 28.24733137 -8.85723125 28.24733137 -5 27 C-6.31224548 23.06326356 -7.91910327 20.77280706 -11 18 Z " fill="#000000" transform="translate(182,187)"/>
<path d="M0 0 C0.66 0.33 1.32 0.66 2 1 C1.67 2.65 1.34 4.3 1 6 C0.030625 6.2475 -0.93875 6.495 -1.9375 6.75 C-2.948125 7.1625 -3.95875 7.575 -5 8 C-5.96877057 10.03243548 -5.96877057 10.03243548 -6 12 C-4.35 12 -2.7 12 -1 12 C-0.67 12.66 -0.34 13.32 0 14 C0.639375 13.505 1.27875 13.01 1.9375 12.5 C6.04974818 10.48583763 9.49506413 10.38680546 14 11 C17.63467079 12.62400184 18.77408696 13.66113044 21 17 C21.75792684 21.57671208 22.06639478 26.12236011 19.7265625 30.2421875 C16.90634179 33.55766649 14.82398401 35.8114049 10.35546875 36.2734375 C1.86938192 36.54549454 1.86938192 36.54549454 -2.1875 34 C-4.43863876 30.27397723 -5.18599517 27.33706908 -5 23 C-4.0625 19.5 -4.0625 19.5 -3 17 C-4.65 17 -6.3 17 -8 17 C-8.12375 18.27875 -8.2475 19.5575 -8.375 20.875 C-8.93571465 25.98644221 -9.91969659 30.97606474 -11 36 C-13.64 36 -16.28 36 -19 36 C-17.68 29.73 -16.36 23.46 -15 17 C-16.32 17 -17.64 17 -19 17 C-19 15.35 -19 13.7 -19 12 C-18.236875 12 -17.47375 12 -16.6875 12 C-13.90332857 11.31999245 -13.90332857 11.31999245 -13.17578125 9.2578125 C-12.95277344 8.55398437 -12.72976563 7.85015625 -12.5 7.125 C-11.52829056 4.09587223 -11.17575288 3.15200249 -8.6875 1 C-5.58597011 -0.15405763 -3.28528294 -0.29202515 0 0 Z M5.3125 18 C2.17335473 22.07240467 2.42209146 23.96393991 3 29 C4.82100147 31.19920496 4.82100147 31.19920496 7.375 31.4375 C10.17840511 31.21032115 10.17840511 31.21032115 12.3125 28.9375 C14.40166788 25.30080036 14.53586016 23.13377841 14 19 C12.83115894 16.99515224 12.83115894 16.99515224 11 16 C7.84277939 15.70149462 7.84277939 15.70149462 5.3125 18 Z " fill="#000000" transform="translate(282,184)"/>
<path d="M0 0 C3.28175318 2.52968474 4.69243777 4.07731331 6 8 C7.0828125 6.576875 7.0828125 6.576875 8.1875 5.125 C10.59277697 2.2842272 12.27565687 0.84644162 16 0 C20.24592146 -0.27756024 23.94001935 -0.35332688 28 1 C27.67 2.98 27.34 4.96 27 7 C26.31292969 6.96519531 25.62585938 6.93039063 24.91796875 6.89453125 C23.56638672 6.85392578 23.56638672 6.85392578 22.1875 6.8125 C21.29417969 6.77769531 20.40085937 6.74289063 19.48046875 6.70703125 C16.97826765 6.80670342 16.97826765 6.80670342 15.1875 8.25 C13.72157423 10.41031167 13.68539635 11.60305919 13.8125 14.1875 C13.874375 15.445625 13.93625 16.70375 14 18 C17.3 18 20.6 18 24 18 C24.04254356 19.99954746 24.04080783 22.00041636 24 24 C22.28310511 25.71689489 20.09121863 25.25303054 17.75 25.3125 C14.0187679 25.2688882 12.23657347 25.12301821 8.875 23.375 C7 21 7 21 6 15 C-2.415 15.495 -2.415 15.495 -11 16 C-10.34 16.99 -9.68 17.98 -9 19 C-6.33346095 19.36460453 -6.33346095 19.36460453 -3.375 19.1875 C-2.37210937 19.16042969 -1.36921875 19.13335937 -0.3359375 19.10546875 C0.82035156 19.05326172 0.82035156 19.05326172 2 19 C1.34 20.98 0.68 22.96 0 25 C-11.60287491 25.76446467 -11.60287491 25.76446467 -16.3125 23.1875 C-18.82025292 18.45063337 -18.83184114 14.24522053 -18 9 C-14.28200816 1.28860951 -8.34937028 -1.64869812 0 0 Z M-7 5 C-8.32 6.65 -9.64 8.3 -11 10 C-7.7 10 -4.4 10 -1 10 C-1.33 8.68 -1.66 7.36 -2 6 C-3.65 5.67 -5.3 5.34 -7 5 Z " fill="#000000" transform="translate(338,195)"/>
<path d="M0 0 C2.31 0 4.62 0 7 0 C6.67 3.63 6.34 7.26 6 11 C6.66 10.67 7.32 10.34 8 10 C11.93429172 9.47542777 13.54458957 9.69309297 16.875 11.9375 C19.79208273 16.14153099 19.72812587 19.03205788 19 24 C18.15524976 27.7197809 17.14261023 31.36133052 16 35 C13.69 35 11.38 35 9 35 C9.66 29.39 10.32 23.78 11 18 C7.28771889 16.57357298 7.28771889 16.57357298 5.38671875 17.95703125 C3.35511649 20.95006781 2.64521032 24.21733366 1.8125 27.6875 C1.63525391 28.38939453 1.45800781 29.09128906 1.27539062 29.81445312 C0.84090781 31.5406416 0.41919208 33.2700347 0 35 C-2.31 35 -4.62 35 -7 35 C-6.44457078 27.50585059 -5.14573862 20.32588791 -3.5 13 C-3.27441406 11.96488281 -3.04882812 10.92976562 -2.81640625 9.86328125 C-1.14205211 2.28410422 -1.14205211 2.28410422 0 0 Z " fill="#000000" transform="translate(370,185)"/>
<path d="M0 0 C3.66666667 0 7.33333333 0 11 0 C12.4540625 -0.1546875 12.4540625 -0.1546875 13.9375 -0.3125 C17 0 17 0 19.875 2.0625 C21.93472122 4.90976168 22.62291843 6.2753008 22.375 9.75390625 C21.5167286 14.8945943 20.27592259 19.94947307 19 25 C16.69 25 14.38 25 12 25 C12.46152366 20.66953333 12.94206555 16.36498707 13.625 12.0625 C14.27526591 9.09002526 14.27526591 9.09002526 13 7 C10.57732914 6.94832473 10.57732914 6.94832473 8 8 C4.95661706 13.29774067 4.02185984 19.02512542 3 25 C0.36 25 -2.28 25 -5 25 C-3.35 16.75 -1.7 8.5 0 0 Z " fill="#000000" transform="translate(240,195)"/>
<path d="M0 0 C1.00023193 0.00523682 2.00046387 0.01047363 3.03100586 0.01586914 C4.1105957 0.0190918 5.19018555 0.02231445 6.30249023 0.02563477 C8.00695312 0.03820312 8.00695312 0.03820312 9.74584961 0.05102539 C11.45611328 0.05779297 11.45611328 0.05779297 13.20092773 0.06469727 C16.02845312 0.07652792 18.85587601 0.09301129 21.68334961 0.11352539 C21.35334961 2.09352539 21.02334961 4.07352539 20.68334961 6.11352539 C17.71334961 6.11352539 14.74334961 6.11352539 11.68334961 6.11352539 C11.56088867 7.40129883 11.43842773 8.68907227 11.31225586 10.01586914 C10.75904708 14.99474818 9.75619781 19.8016506 8.62084961 24.67602539 C8.43458008 25.49393555 8.24831055 26.3118457 8.05639648 27.15454102 C7.60314274 29.14188435 7.14388749 31.1278574 6.68334961 33.11352539 C4.04334961 33.11352539 1.40334961 33.11352539 -1.31665039 33.11352539 C-0.50882279 28.98759598 0.30539879 24.86295434 1.12084961 20.73852539 C1.35094727 19.56290039 1.58104492 18.38727539 1.81811523 17.17602539 C2.04047852 16.05454102 2.2628418 14.93305664 2.49194336 13.77758789 C2.6961792 12.74069824 2.90041504 11.70380859 3.11083984 10.63549805 C3.68334961 8.11352539 3.68334961 8.11352539 4.68334961 6.11352539 C2.04334961 6.11352539 -0.59665039 6.11352539 -3.31665039 6.11352539 C-3.35937139 4.44740634 -3.35728871 2.77969654 -3.31665039 1.11352539 C-2.31665039 0.11352539 -2.31665039 0.11352539 0 0 Z " fill="#000000" transform="translate(193.316650390625,186.886474609375)"/>
<path d="M0 0 C5.72667118 8.59000677 6.12468798 20.14724998 4.49609375 30.0703125 C1.37371791 44.02287199 -5.48577864 54.92801909 -17.5 62.9375 C-29.35458224 69.98393 -42.65289331 71.88539031 -56.125 68.8125 C-66.55898424 65.86435601 -74.58439726 60.99986235 -82 53 C-82.495 51.515 -82.495 51.515 -83 50 C-82.34 50 -81.68 50 -81 50 C-80.21625 51.010625 -79.4325 52.02125 -78.625 53.0625 C-72.99920067 59.86322056 -64.52522523 64.13206384 -56 66 C-45.12345263 67.00647971 -33.8177869 67.25251599 -24 62 C-23.1440625 61.57589844 -22.288125 61.15179688 -21.40625 60.71484375 C-9.82770999 54.45475962 -4.04706511 44.74722691 1 33 C2.32337999 28.55963778 2.18399532 24.2231448 2.1875 19.625 C2.19974609 18.78710938 2.21199219 17.94921875 2.22460938 17.0859375 C2.23597442 12.26715889 1.70240655 8.56218039 0 4 C0 2.68 0 1.36 0 0 Z " fill="#CFC9BD" transform="translate(105,180)"/>
<path d="M0 0 C-0.66 2.31 -1.32 4.62 -2 7 C-0.02 7 1.96 7 4 7 C3.67 8.65 3.34 10.3 3 12 C1.02 12 -0.96 12 -3 12 C-3.33 16.29 -3.66 20.58 -4 25 C-2.68 25 -1.36 25 0 25 C-0.33 26.98 -0.66 28.96 -1 31 C-2.258125 31.04125 -3.51625 31.0825 -4.8125 31.125 C-5.52019531 31.14820313 -6.22789062 31.17140625 -6.95703125 31.1953125 C-9 31 -9 31 -12 29 C-12.328125 26.57421875 -12.328125 26.57421875 -12.25 23.6875 C-12.22679687 22.27017578 -12.22679687 22.27017578 -12.203125 20.82421875 C-12.00985142 18.13697257 -11.59292973 15.62514858 -11 13 C-12.32 12.67 -13.64 12.34 -15 12 C-14.67 10.35 -14.34 8.7 -14 7 C-12.35 7 -10.7 7 -9 7 C-8.938125 6.05125 -8.87625 5.1025 -8.8125 4.125 C-8 1 -8 1 -5.625 -0.4375 C-3 -1 -3 -1 0 0 Z " fill="#000000" transform="translate(318,189)"/>
<path d="M0 0 C2.64 0 5.28 0 8 0 C7.21361529 4.18850965 6.41995114 8.37560847 5.625 12.5625 C5.40328125 13.74392578 5.1815625 14.92535156 4.953125 16.14257812 C3.86582727 21.8508912 2.74284353 27.45384839 1 33 C-1.31 33 -3.62 33 -6 33 C-5.33020896 25.67849106 -3.98329403 18.62089577 -2.4375 11.4375 C-2.20353516 10.33341797 -1.96957031 9.22933594 -1.72851562 8.09179688 C-1.15618938 5.39368745 -0.57993998 2.69648125 0 0 Z " fill="#000000" transform="translate(231,187)"/>
<path d="M0 0 C10.39901377 -0.01701966 20.050686 2.7162175 28.07421875 9.43359375 C23.7952076 9.43359375 20.67707438 7.46885866 16.86328125 5.625 C11.35042957 3.89157756 5.82237431 3.71686268 0.07421875 3.43359375 C-2.16883054 7.48983172 -4.41082487 11.54665028 -6.65185547 15.60400391 C-7.41393735 16.98339478 -8.17630424 18.36262824 -8.93896484 19.74169922 C-10.03688828 21.72712269 -11.13377618 23.71311518 -12.23046875 25.69921875 C-12.57012665 26.31291321 -12.90978455 26.92660767 -13.25973511 27.55889893 C-14.87638891 30.48894093 -16.46040139 33.42468044 -17.92578125 36.43359375 C-18.91578125 36.43359375 -19.90578125 36.43359375 -20.92578125 36.43359375 C-19.57505396 31.97041206 -17.79628324 28.11211387 -15.51953125 24.046875 C-15.19416382 23.46318649 -14.86879639 22.87949799 -14.53356934 22.27812195 C-13.50240361 20.43139984 -12.46407665 18.58881466 -11.42578125 16.74609375 C-10.72872436 15.49829386 -10.03210568 14.25024906 -9.3359375 13.00195312 C-2.36125291 0.53164112 -2.36125291 0.53164112 0 0 Z " fill="#CECDC1" transform="translate(57.92578125,156.56640625)"/>
<path d="M0 0 C0.99 0.33 1.98 0.66 3 1 C2.02296079 2.8136477 1.04330895 4.62588817 0.0625 6.4375 C-0.75541016 7.95150391 -0.75541016 7.95150391 -1.58984375 9.49609375 C-3 12 -3 12 -4 13 C-4.85464844 12.89558594 -5.70929688 12.79117188 -6.58984375 12.68359375 C-10.6208544 12.38726508 -13.19907846 12.55445937 -17 14 C-21.06199826 18.39530433 -23.36456571 24.20902501 -25.84912109 29.58642578 C-27.57928621 33.21485437 -29.59041486 36.66105153 -31.625 40.125 C-32.27726562 41.26195312 -32.92953125 42.39890625 -33.6015625 43.5703125 C-34.06304687 44.37210938 -34.52453125 45.17390625 -35 46 C-35.99 45.67 -36.98 45.34 -38 45 C-35.94102091 41.12008736 -33.87789333 37.24241795 -31.81103516 33.36669922 C-31.10971886 32.05023849 -30.40950355 30.73319059 -29.71044922 29.41552734 C-28.70054326 27.51240926 -27.68658524 25.61149746 -26.671875 23.7109375 C-26.0644043 22.56931152 -25.45693359 21.42768555 -24.83105469 20.25146484 C-23.0155979 17.0276977 -21.23814513 13.94898178 -19 11 C-15.546875 10.4140625 -15.546875 10.4140625 -11.75 10.625 C-10.48671875 10.67914063 -9.2234375 10.73328125 -7.921875 10.7890625 C-6.47554687 10.89347656 -6.47554687 10.89347656 -5 11 C-4.70351562 10.24332031 -4.40703125 9.48664063 -4.1015625 8.70703125 C-2.88542557 5.71843944 -1.46910863 2.87143959 0 0 Z " fill="#CFCABF" transform="translate(99,195)"/>
<path d="M0 0 C-1.45540802 3.75511351 -3.1782175 4.94768985 -6.6875 6.8125 C-16.78783284 12.66923976 -22.16547323 20.34723408 -25.81640625 31.4921875 C-27.99666151 40.30468778 -26.80321167 48.24154331 -25 57 C-25.66 56.67 -26.32 56.34 -27 56 C-30.51349125 44.64679696 -30.75230922 32.38761302 -25.48046875 21.578125 C-20.62846905 13.12873239 -10.9400028 0 0 0 Z " fill="#CFCDBE" transform="translate(47,159)"/>
<path d="M0 0 C0.99 0.33 1.98 0.66 3 1 C1.36308189 5.72305676 -0.47177889 9.41720222 -4 13 C-10.02270643 14.54549521 -15.77732983 14.13948884 -21.9375 13.75 C-23.59160365 13.68975066 -25.24591759 13.63500739 -26.90039062 13.5859375 C-30.93881325 13.45420348 -34.96709002 13.24759306 -39 13 C-38.67 12.34 -38.34 11.68 -38 11 C-36.59306885 11.03311279 -36.59306885 11.03311279 -35.15771484 11.06689453 C-31.65585618 11.12538159 -28.15971552 11.13871408 -24.65771484 11.12207031 C-23.14651792 11.12400982 -21.63523149 11.1436186 -20.12451172 11.18164062 C-15.24100228 11.29753142 -10.74435765 11.24739887 -6 10 C-2.94836203 7.02657681 -1.37450699 4.00692927 0 0 Z " fill="#D0CDBA" transform="translate(61,195)"/>
</svg>
