<?xml version="1.0" encoding="utf-8"?>
<!-- Generator: Adobe Illustrator 19.0.0, SVG Export Plug-In . SVG Version: 6.00 Build 0)  -->
<svg version="1.1" id="layer" xmlns="http://www.w3.org/2000/svg" xmlns:xlink="http://www.w3.org/1999/xlink" x="0px" y="0px"
	 viewBox="-153 -46 652 652" style="enable-background:new -153 -46 652 652;" xml:space="preserve">
<style type="text/css">
	.st0{fill:#0080C6;}
	.st1{fill:#1E398D;}
</style>
<path class="st0" d="M-9.7,523.5l-1.4-4.9l-1.5,4.9H-9.7z M-14.6,529.6c-0.1,0.3-0.1,0.5-0.1,0.6l0,0.2h-2.9
	c0.1-0.1,0.2-0.2,0.3-0.3c0.1-0.1,0.1-0.3,0.2-0.5l5.1-15.4c0.1-0.3,0.1-0.5,0.1-0.7c0-0.1,0-0.1,0-0.2h4.6v0.2c0,0.1,0,0.2,0,0.3
	c0,0.1,0.1,0.2,0.1,0.4l5.2,15.4c0.1,0.2,0.2,0.4,0.2,0.5c0.1,0.1,0.2,0.2,0.3,0.3h-6.2c0-0.1,0-0.1,0-0.2c0-0.1,0-0.3-0.1-0.6
	l-1.1-3.5h-4.6L-14.6,529.6z M108.6,523.5l-1.4-4.9l-1.5,4.9H108.6z M103.7,529.6c-0.1,0.3-0.1,0.5-0.1,0.6l0,0.2h-2.9
	c0.1-0.1,0.2-0.2,0.3-0.3c0.1-0.1,0.1-0.3,0.2-0.5l5.1-15.4c0.1-0.3,0.1-0.5,0.1-0.7c0-0.1,0-0.1,0-0.2h4.6v0.2c0,0.1,0,0.2,0,0.3
	c0,0.1,0.1,0.2,0.1,0.4l5.2,15.4c0.1,0.2,0.2,0.4,0.2,0.5c0.1,0.1,0.2,0.2,0.3,0.3h-6.2c0-0.1,0-0.1,0-0.2c0-0.1,0-0.3-0.1-0.6
	l-1.1-3.5h-4.6L103.7,529.6z"/>
<path class="st0" d="M-27.1,530.4c0.1-0.1,0.1-0.3,0.1-0.4c0-0.1,0-0.3,0-0.5v-15.4c0-0.2,0-0.4,0-0.5c0-0.1-0.1-0.2-0.1-0.4h5.8
	c-0.1,0.1-0.1,0.3-0.1,0.4c0,0.1,0,0.3,0,0.5v13.6h3.4h0.4c0.1,0,0.2,0,0.3,0c0.1,0,0.2,0,0.2-0.1c0.1,0,0.1-0.1,0.2-0.1v2.8H-27.1z
	 M4.9,523.4l2.2,6.2c0.1,0.2,0.1,0.4,0.2,0.5c0,0.1,0,0.2,0,0.4h6.4c-0.1-0.1-0.2-0.3-0.3-0.4c-0.1-0.1-0.1-0.3-0.2-0.5l-4.2-9.2
	l3.4-6.1c0.1-0.2,0.2-0.4,0.3-0.5c0.1-0.1,0.2-0.2,0.3-0.4H8.9c0,0.2-0.1,0.3-0.1,0.4c0,0.1-0.1,0.3-0.2,0.4L4.9,521v-6.8
	c0-0.2,0-0.3,0-0.5c0-0.1,0.1-0.2,0.1-0.4h-5.8c0.1,0.1,0.1,0.3,0.1,0.4c0,0.1,0,0.3,0,0.5v15.4c0,0.2,0,0.3,0,0.5
	c0,0.1-0.1,0.2-0.1,0.4H5c-0.1-0.1-0.1-0.3-0.1-0.4c0-0.1,0-0.3,0-0.5V523.4z M13.3,529.3c0.5,0.3,1,0.5,1.4,0.7
	c0.4,0.2,0.9,0.3,1.3,0.4c0.4,0.1,0.9,0.2,1.3,0.2c0.4,0.1,0.9,0.1,1.4,0.1c0.9,0,1.7-0.1,2.4-0.3c0.7-0.2,1.4-0.5,1.9-0.9
	c0.7-0.5,1.3-1.3,1.7-2.2c0.4-0.9,0.6-1.9,0.6-3c0-1.3-0.3-2.3-0.9-3.1c-0.6-0.8-1.5-1.4-2.9-2c-0.8-0.3-1.4-0.6-1.8-0.7
	c-0.4-0.2-0.7-0.4-0.9-0.5c-0.2-0.1-0.3-0.3-0.4-0.4c0-0.2-0.1-0.4-0.1-0.6c0-0.4,0.1-0.8,0.4-1c0.3-0.3,0.7-0.4,1.1-0.4
	c0.5,0,1.1,0.1,1.7,0.4c0.6,0.3,1.3,0.7,2.1,1.4l0.7-3.3c-0.4-0.2-0.8-0.3-1.2-0.5c-0.4-0.1-0.7-0.2-1.1-0.3
	c-0.4-0.1-0.7-0.1-1.1-0.2c-0.4,0-0.8-0.1-1.2-0.1c-0.8,0-1.6,0.1-2.3,0.3c-0.7,0.2-1.3,0.4-1.8,0.8c-0.8,0.5-1.4,1.2-1.8,2
	c-0.4,0.8-0.6,1.7-0.6,2.7c0,1.1,0.3,2,0.8,2.8c0.3,0.5,0.7,0.9,1.1,1.3c0.5,0.4,1.1,0.7,1.9,1c0.7,0.3,1.3,0.6,1.6,0.7
	c0.3,0.1,0.5,0.2,0.7,0.3c0.3,0.2,0.5,0.4,0.6,0.6c0.1,0.2,0.2,0.5,0.2,0.8c0,0.5-0.2,0.9-0.5,1.2c-0.4,0.3-0.8,0.5-1.4,0.5
	c-0.4,0-0.7,0-1-0.1c-0.3-0.1-0.6-0.2-0.9-0.3c-0.3-0.2-0.6-0.4-1-0.6c-0.4-0.3-0.8-0.6-1.3-1L13.3,529.3z M32.5,523h3.7v6.6
	c0,0.2,0,0.4,0,0.5c0,0.1-0.1,0.2-0.1,0.4h5.8c-0.1-0.1-0.1-0.3-0.1-0.4c0-0.1,0-0.3,0-0.5v-15.4c0-0.2,0-0.4,0-0.5
	c0-0.1,0.1-0.2,0.1-0.4h-5.8c0.1,0.2,0.1,0.3,0.1,0.4c0,0.1,0,0.3,0,0.4v6.2h-3.7v-6.2c0-0.2,0-0.3,0-0.4c0-0.1,0.1-0.3,0.1-0.4
	h-5.8c0.1,0.1,0.1,0.3,0.1,0.4c0,0.1,0,0.3,0,0.5v15.4c0,0.2,0,0.4,0,0.5c0,0.1-0.1,0.2-0.1,0.4h5.8c-0.1-0.1-0.1-0.3-0.1-0.4
	c0-0.1,0-0.3,0-0.5V523z M46.9,521.1l2.7,8.5c0.1,0.3,0.1,0.5,0.1,0.7v0.2h4.4c0-0.1,0-0.1,0-0.2c0-0.2,0-0.4,0.1-0.7l2.7-8.5
	l0.8,8.5c0,0.1,0,0.2,0,0.3v0.2v0.1c0,0.1,0,0.1,0,0.2h5.8c-0.1-0.1-0.1-0.2-0.2-0.3c0-0.1-0.1-0.3-0.1-0.5l-1.9-15.4
	c0-0.1,0-0.2,0-0.2v-0.3l0-0.4h-4.7c0,0.1,0,0.1,0,0.2c0,0.2,0,0.4-0.1,0.7l-3.1,9.7l-3-9.7c-0.1-0.3-0.1-0.5-0.1-0.6
	c0,0,0-0.1,0-0.2h-4.8l0,0.4v0.2c0,0.1,0,0.1,0,0.2l-2,15.4c0,0.2-0.1,0.4-0.1,0.5c0,0.1-0.1,0.2-0.2,0.3h3
	c-0.1-0.3-0.1-0.5-0.1-0.6v-0.2L46.9,521.1z M65,513.4c0.1,0.1,0.1,0.3,0.1,0.4c0,0.1,0,0.3,0,0.5v15.4c0,0.2,0,0.3,0,0.5
	c0,0.1-0.1,0.2-0.1,0.4h5.8c-0.1-0.1-0.1-0.3-0.1-0.4c0-0.1,0-0.3,0-0.5v-15.4c0-0.2,0-0.4,0-0.5c0-0.1,0.1-0.2,0.1-0.4H65z
	 M84.3,521.1l2.7,8.5c0.1,0.3,0.1,0.5,0.1,0.7v0.2h4.4c0-0.1,0-0.1,0-0.2c0-0.2,0-0.4,0.1-0.7l2.7-8.5l0.8,8.5c0,0.1,0,0.2,0,0.3
	v0.2v0.1c0,0.1,0,0.1,0,0.2h5.8c-0.1-0.1-0.1-0.2-0.2-0.3c0-0.1-0.1-0.3-0.1-0.5l-1.9-15.4c0-0.1,0-0.2,0-0.2v-0.3l0-0.4H94
	c0,0.1,0,0.1,0,0.2c0,0.2,0,0.4-0.1,0.7l-3.1,9.7l-3-9.7c-0.1-0.3-0.1-0.5-0.1-0.6c0,0,0-0.1,0-0.2h-4.8l0,0.4v0.2
	c0,0.1,0,0.1,0,0.2l-2,15.4c0,0.2-0.1,0.4-0.1,0.5c0,0.1-0.1,0.2-0.2,0.3h3c-0.1-0.3-0.1-0.5-0.1-0.6v-0.2L84.3,521.1z M130.5,513.9
	c-0.4-0.2-0.8-0.3-1.1-0.4c-0.3-0.1-0.7-0.2-1.1-0.3c-0.4-0.1-0.7-0.1-1.1-0.2c-0.4,0-0.8-0.1-1.2-0.1c-1.5,0-2.8,0.2-3.9,0.5
	c-1.1,0.4-2,0.9-2.8,1.7c-0.8,0.8-1.4,1.7-1.7,2.7c-0.4,1-0.5,2.3-0.5,3.7c0,3.1,0.7,5.3,2.1,6.8c1.4,1.5,3.5,2.2,6.4,2.2
	c0.5,0,0.9,0,1.4,0c0.4,0,0.8-0.1,1.2-0.2c0.4-0.1,0.8-0.2,1.2-0.3c0.4-0.1,0.8-0.3,1.3-0.4v-3.5c-0.8,0.7-1.5,1.2-2.1,1.4
	c-0.6,0.3-1.2,0.4-1.8,0.4c-0.5,0-1-0.1-1.5-0.4c-0.5-0.2-0.9-0.6-1.2-1c-0.4-0.6-0.7-1.2-0.9-2c-0.2-0.8-0.3-1.7-0.3-2.9
	c0-1.9,0.3-3.4,1-4.5c0.7-1.1,1.6-1.6,2.7-1.6c0.6,0,1.3,0.1,1.9,0.4c0.6,0.3,1.3,0.8,2.2,1.5V513.9z M137.6,523h3.7v6.6
	c0,0.2,0,0.4,0,0.5c0,0.1-0.1,0.2-0.1,0.4h5.8c-0.1-0.1-0.1-0.3-0.1-0.4c0-0.1,0-0.3,0-0.5v-15.4c0-0.2,0-0.4,0-0.5
	c0-0.1,0.1-0.2,0.1-0.4h-5.8c0.1,0.2,0.1,0.3,0.1,0.4c0,0.1,0,0.3,0,0.4v6.2h-3.7v-6.2c0-0.2,0-0.3,0-0.4c0-0.1,0.1-0.3,0.1-0.4H132
	c0.1,0.1,0.1,0.3,0.1,0.4c0,0.1,0,0.3,0,0.5v15.4c0,0.2,0,0.4,0,0.5c0,0.1-0.1,0.2-0.1,0.4h5.8c-0.1-0.1-0.1-0.3-0.1-0.4
	c0-0.1,0-0.3,0-0.5V523z M149.4,513.4c0.1,0.1,0.1,0.3,0.1,0.4c0,0.1,0,0.3,0,0.5v15.4c0,0.2,0,0.3,0,0.5c0,0.1-0.1,0.2-0.1,0.4h5.8
	c-0.1-0.1-0.1-0.3-0.1-0.4c0-0.1,0-0.3,0-0.5v-15.4c0-0.2,0-0.4,0-0.5c0-0.1,0.1-0.2,0.1-0.4H149.4z M160.2,520.3l6.7,9.3
	c0.2,0.2,0.3,0.4,0.4,0.5c0.1,0.1,0.1,0.2,0.1,0.4h4.8c-0.1-0.2-0.1-0.3-0.1-0.5c0-0.1,0-0.2,0-0.4v-15.4c0-0.3,0-0.5,0-0.6
	c0-0.1,0.1-0.2,0.1-0.3h-2.8c0.1,0.1,0.1,0.3,0.1,0.4c0,0.1,0,0.3,0,0.5v9.4l-6.8-9.4c-0.2-0.2-0.3-0.4-0.3-0.5
	c-0.1-0.1-0.1-0.2-0.1-0.4h-4.7c0.1,0.1,0.1,0.3,0.1,0.4c0,0.1,0,0.3,0,0.5v15.4c0,0.2,0,0.3,0,0.5c0,0.1-0.1,0.2-0.1,0.4h2.8
	c-0.1-0.1-0.1-0.3-0.1-0.4c0-0.1,0-0.3,0-0.5V520.3z M174.5,513.4c0.1,0.1,0.1,0.3,0.1,0.4c0,0.1,0,0.3,0,0.5v15.4
	c0,0.2,0,0.3,0,0.5c0,0.1-0.1,0.2-0.1,0.4h10.4v-2.7c-0.1,0-0.1,0.1-0.2,0.1c0,0-0.1,0-0.2,0c-0.1,0-0.1,0-0.2,0h-0.4h-3.8V523h3.9
	c0.2,0,0.4,0,0.5,0c0.1,0,0.2,0,0.4,0.1v-2.6c-0.1,0.1-0.3,0.1-0.3,0.1c-0.1,0-0.3,0-0.5,0h-3.9v-5h3.9c0.2,0,0.3,0,0.4,0
	c0.1,0,0.2,0,0.4,0.1v-2.5H174.5z M204.5,520.6l1.9,9c0,0.2,0.1,0.3,0.1,0.4c0,0.1,0,0.2-0.1,0.4h5.1c0-0.2-0.1-0.3-0.1-0.4
	c0-0.1,0-0.2,0.1-0.5l3.6-15.4c0-0.2,0.1-0.4,0.1-0.5c0-0.1,0.1-0.2,0.2-0.4h-2.9c0,0.1,0,0.2,0,0.2c0,0.1,0,0.1,0,0.1v0.2
	c0,0.1,0,0.2,0,0.3l-2.1,9l-2-9c0-0.2-0.1-0.4-0.1-0.5c0-0.1,0-0.2,0.1-0.4h-4.8c0,0.2,0.1,0.3,0.1,0.4c0,0.1,0,0.3-0.1,0.5l-2.4,9
	l-1.7-9c0-0.2-0.1-0.4-0.1-0.5c0-0.1,0-0.2,0.1-0.4h-6c0.1,0.1,0.1,0.3,0.2,0.4c0,0.1,0.1,0.3,0.2,0.5l3.6,15.3c0,0.1,0,0.2,0,0.3
	c0,0.1,0,0.1,0,0.2c0,0,0,0.1,0,0.2c0,0.1,0,0.2,0,0.2h4.9c0-0.2-0.1-0.3-0.1-0.4c0-0.1,0-0.2,0.1-0.5L204.5,520.6z M224.1,515.5
	c1,0,1.7,0.5,2.2,1.5c0.5,1,0.7,2.7,0.7,5c0,2.2-0.2,3.8-0.7,4.8c-0.5,1-1.2,1.5-2.2,1.5c-1,0-1.8-0.5-2.2-1.5c-0.5-1-0.7-2.7-0.7-5
	c0-2.2,0.2-3.8,0.7-4.8C222.4,516,223.1,515.5,224.1,515.5 M224.1,513.1c-1.2,0-2.4,0.2-3.4,0.5c-1,0.3-1.9,0.8-2.7,1.5
	c-0.8,0.7-1.5,1.6-1.9,2.8c-0.4,1.2-0.7,2.5-0.7,3.9c0,1.5,0.2,2.8,0.5,3.9c0.4,1.1,0.9,2,1.7,2.9c0.7,0.8,1.6,1.4,2.6,1.7
	c1,0.3,2.2,0.5,3.7,0.5c2.9,0,5.1-0.7,6.6-2.2c1.5-1.5,2.2-3.7,2.2-6.6c0-2.9-0.7-5.1-2.2-6.6C229.1,513.8,226.9,513.1,224.1,513.1
	 M240.2,521.3v-5.6h0.5c0.9,0,1.4,1,1.4,2.9c0,0.9-0.1,1.6-0.4,2c-0.2,0.4-0.6,0.7-1.1,0.7H240.2z M240.2,523l1.9,6.6
	c0.1,0.3,0.1,0.6,0.1,0.7c0,0,0,0.1,0,0.1h6.3c-0.1-0.1-0.2-0.3-0.3-0.4c-0.1-0.1-0.2-0.3-0.3-0.5l-3-7c0.5-0.3,0.8-0.6,1.2-0.9
	c0.3-0.3,0.6-0.6,0.8-1c0.2-0.3,0.3-0.7,0.4-1.2c0.1-0.4,0.1-0.9,0.1-1.4c0-1.5-0.4-2.7-1.3-3.5c-0.9-0.8-2.1-1.3-3.6-1.3h-8.1
	c0.1,0.1,0.1,0.3,0.1,0.4c0,0.1,0,0.3,0,0.5v15.4c0,0.2,0,0.4,0,0.5c0,0.1-0.1,0.2-0.1,0.3h5.8c-0.1-0.1-0.1-0.3-0.1-0.4
	s0-0.3,0-0.5V523z M255.3,523.4l2.2,6.2c0.1,0.2,0.1,0.4,0.2,0.5c0,0.1,0,0.2,0,0.4h6.4c-0.1-0.1-0.2-0.3-0.3-0.4
	c-0.1-0.1-0.1-0.3-0.2-0.5l-4.2-9.2l3.4-6.1c0.1-0.2,0.2-0.4,0.3-0.5c0.1-0.1,0.2-0.2,0.3-0.4h-4.1c0,0.2-0.1,0.3-0.1,0.4
	c0,0.1-0.1,0.3-0.2,0.4l-3.7,6.8v-6.8c0-0.2,0-0.3,0-0.5c0-0.1,0.1-0.2,0.1-0.4h-5.8c0.1,0.1,0.1,0.3,0.1,0.4c0,0.1,0,0.3,0,0.5
	v15.4c0,0.2,0,0.3,0,0.5c0,0.1-0.1,0.2-0.1,0.4h5.8c-0.1-0.1-0.1-0.3-0.1-0.4c0-0.1,0-0.3,0-0.5V523.4z M263.7,529.3
	c0.5,0.3,1,0.5,1.4,0.7c0.4,0.2,0.9,0.3,1.3,0.4c0.4,0.1,0.9,0.2,1.3,0.2c0.4,0.1,0.9,0.1,1.4,0.1c0.9,0,1.7-0.1,2.4-0.3
	c0.7-0.2,1.4-0.5,1.9-0.9c0.7-0.5,1.3-1.3,1.7-2.2c0.4-0.9,0.6-1.9,0.6-3c0-1.3-0.3-2.3-0.9-3.1c-0.6-0.8-1.5-1.4-2.9-2
	c-0.8-0.3-1.4-0.6-1.8-0.7c-0.4-0.2-0.7-0.4-0.9-0.5c-0.2-0.1-0.3-0.3-0.4-0.4c0-0.2-0.1-0.4-0.1-0.6c0-0.4,0.1-0.8,0.4-1
	c0.3-0.3,0.7-0.4,1.1-0.4c0.5,0,1.1,0.1,1.7,0.4c0.6,0.3,1.3,0.7,2.1,1.4l0.7-3.3c-0.4-0.2-0.8-0.3-1.2-0.5
	c-0.4-0.1-0.7-0.2-1.1-0.3c-0.4-0.1-0.7-0.1-1.1-0.2c-0.4,0-0.8-0.1-1.2-0.1c-0.8,0-1.6,0.1-2.3,0.3c-0.7,0.2-1.3,0.4-1.8,0.8
	c-0.8,0.5-1.4,1.2-1.8,2c-0.4,0.8-0.6,1.7-0.6,2.7c0,1.1,0.3,2,0.8,2.8c0.3,0.5,0.7,0.9,1.1,1.3c0.5,0.4,1.1,0.7,1.9,1
	c0.7,0.3,1.3,0.6,1.6,0.7c0.3,0.1,0.5,0.2,0.7,0.3c0.3,0.2,0.5,0.4,0.6,0.6c0.1,0.2,0.2,0.5,0.2,0.8c0,0.5-0.2,0.9-0.5,1.2
	c-0.4,0.3-0.8,0.5-1.4,0.5c-0.4,0-0.7,0-1-0.1c-0.3-0.1-0.6-0.2-0.9-0.3c-0.3-0.2-0.6-0.4-1-0.6c-0.4-0.3-0.8-0.6-1.3-1L263.7,529.3
	z M295.8,530.4v-2.8c-0.1,0-0.2,0.1-0.2,0.1c-0.1,0-0.1,0-0.2,0.1c-0.1,0-0.2,0-0.3,0h-0.4h-3.4v-13.6c0-0.2,0-0.4,0-0.5
	c0-0.1,0.1-0.2,0.1-0.4h-5.8c0.1,0.1,0.1,0.3,0.1,0.4c0,0.1,0,0.3,0,0.5v15.4c0,0.2,0,0.4,0,0.5c0,0.1-0.1,0.2-0.1,0.4H295.8z
	 M296.9,513.4c0.1,0.1,0.1,0.3,0.1,0.4c0,0.1,0,0.3,0,0.5v15.4c0,0.2,0,0.3,0,0.5c0,0.1-0.1,0.2-0.1,0.4h5.8
	c-0.1-0.1-0.1-0.3-0.1-0.4c0-0.1,0-0.3,0-0.5v-15.4c0-0.2,0-0.4,0-0.5c0-0.1,0.1-0.2,0.1-0.4H296.9z M307.9,521.1l2.7,8.5
	c0.1,0.3,0.1,0.5,0.1,0.7v0.2h4.4c0-0.1,0-0.1,0-0.2c0-0.2,0-0.4,0.1-0.7l2.7-8.5l0.8,8.5c0,0.1,0,0.2,0,0.3v0.2v0.1
	c0,0.1,0,0.1,0,0.2h5.8c-0.1-0.1-0.1-0.2-0.2-0.3c0-0.1-0.1-0.3-0.1-0.5l-1.9-15.4c0-0.1,0-0.2,0-0.2v-0.3l0-0.4h-4.7
	c0,0.1,0,0.1,0,0.2c0,0.2,0,0.4-0.1,0.7l-3.1,9.7l-3-9.7c-0.1-0.3-0.1-0.5-0.1-0.6c0,0,0-0.1,0-0.2h-4.8l0,0.4v0.2
	c0,0.1,0,0.1,0,0.2l-2,15.4c0,0.2-0.1,0.4-0.1,0.5c0,0.1-0.1,0.2-0.2,0.3h3c-0.1-0.3-0.1-0.5-0.1-0.6v-0.2L307.9,521.1z M326,513.4
	c0.1,0.1,0.1,0.3,0.1,0.4c0,0.1,0,0.3,0,0.5v15.4c0,0.2,0,0.3,0,0.5c0,0.1-0.1,0.2-0.1,0.4h5.8c-0.1-0.1-0.1-0.3-0.1-0.4
	c0-0.1,0-0.3,0-0.5v-15.4c0-0.2,0-0.4,0-0.5c0-0.1,0.1-0.2,0.1-0.4H326z M332.8,513.4v2.9c0.2-0.1,0.4-0.1,0.6-0.1
	c0.2,0,0.3,0,0.5,0h2.7v13.4c0,0.2,0,0.4,0,0.5c0,0.1-0.1,0.2-0.1,0.4h5.8c-0.1-0.1-0.1-0.3-0.1-0.4c0-0.1,0-0.3,0-0.5v-13.4h2.9
	c0.2,0,0.3,0,0.4,0c0.1,0,0.3,0.1,0.5,0.1v-2.9H332.8z M346.7,513.4c0.1,0.1,0.1,0.3,0.1,0.4c0,0.1,0,0.3,0,0.5v15.4
	c0,0.2,0,0.3,0,0.5c0,0.1-0.1,0.2-0.1,0.4h10.4v-2.7c-0.1,0-0.1,0.1-0.2,0.1c0,0-0.1,0-0.2,0c-0.1,0-0.1,0-0.2,0h-0.4h-3.8V523h3.9
	c0.2,0,0.4,0,0.5,0c0.1,0,0.2,0,0.4,0.1v-2.6c-0.1,0.1-0.3,0.1-0.3,0.1c-0.1,0-0.3,0-0.5,0h-3.9v-5h3.9c0.2,0,0.3,0,0.4,0
	c0.1,0,0.2,0,0.4,0.1v-2.5H346.7z M364.8,527.8V516h0.5c1.1,0,1.9,0.5,2.5,1.6c0.6,1,0.9,2.5,0.9,4.4c0,1.9-0.3,3.4-0.8,4.4
	c-0.6,1-1.4,1.5-2.4,1.5H364.8z M359.2,513.4c0.1,0.1,0.1,0.3,0.1,0.4c0,0.1,0,0.3,0,0.5v15.4c0,0.2,0,0.3,0,0.5
	c0,0.1-0.1,0.2-0.1,0.4h8.3c1.1,0,2-0.2,2.9-0.6c0.9-0.4,1.6-1,2.2-1.8c0.6-0.8,1.1-1.7,1.4-2.7c0.3-1.1,0.5-2.3,0.5-3.6
	c0-2.8-0.7-4.9-2.1-6.3c-1.4-1.4-3.5-2.1-6.3-2.1H359.2z"/>
<path class="st1" d="M352.5,458.5c3-0.2,5.6,0.9,7.2,2.4c1.6,1.5,2.9,3.6,3.1,6.4c0.2,3.1-0.9,5.4-2.4,7.1c-1.5,1.7-3.6,2.9-6.4,3.2
	c-3,0.2-5.4-0.9-7.1-2.4c-1.7-1.5-3-3.6-3.2-6.3c-0.2-3.2,0.9-5.5,2.3-7.1C347.5,460.1,349.6,458.7,352.5,458.5 M347.2,462.7
	c-1.2,1.3-2.1,3.4-1.9,6c0.3,4.3,4,7.7,8.7,7.3c2.3-0.2,4.1-1.2,5.4-2.7c1.2-1.4,2.2-3.4,2-6c-0.2-2.4-1.3-4.1-2.7-5.4
	c-1.3-1.3-3.5-2.2-6.1-2C350.2,460.2,348.3,461.4,347.2,462.7 M354.9,468.6c1.4,1,2.3,2.8,3.3,4.4c-0.9-0.2-1.6,0.2-2.3,0
	c-0.2-0.1-0.6-0.8-0.8-1.1c-0.3-0.4-0.5-0.8-0.8-1.1c-0.7-1.1-1.1-2.2-3-2c-0.1,1.3,0,2.8,0,4.1c-0.6,0.1-1.4,0-2,0
	c0-3.3-0.1-6.7,0-10c3.7,0.2,8.4-1,8.1,3.1C357.3,467.6,356.4,468.3,354.9,468.6 M354.8,467.1c0.6-0.3,0.9-1.4,0.3-2
	c-0.7-0.7-2.5-0.2-3.8-0.4v2.5C352.4,467.1,353.9,467.5,354.8,467.1 M224.1,101.1c-0.9,6.6-2.4,12.1-4.7,17.2
	c-0.6,1.2-1.5,4.5-3,4.4c-0.8,0-2.4-2.3-2.9-3c-4.4-6.1-7.7-12.1-9.9-20.1c-0.9-3.2-1.8-6.5-3.8-8.3c-0.6-0.5-1.4-0.9-2.3-1.5
	c-3.8-2.5-8.6-3.9-12.5-6.1c-1.7-1-4-2.3-4.7-3.9c-2-4.3,1-8,2.3-11.5c1.6-4.2,0.9-9.7,0.2-14.3c-0.5-3-1.3-5.3-2.1-7.9
	c-1.1-3.5-2.5-7.7-3.5-11.6c-0.3-1-0.5-3.1-1.5-3.6c-2.3-1.1-2.8,3.5-3.4,5.1c-1.3,4.1-2.6,7.9-3.8,12c-0.8,2.4-1.8,5.3-2.3,8.3
	c-0.4,2.9-0.5,7.3,0.1,10.1c0.7,3.2,3.5,5.5,4.7,8.3c0.7,1.5,1,4.6,0.1,6.4c-0.9,1.7-3.8,2.5-5.5,3.4c-1.9,0.9-4,2.2-5.7,3.3
	c-3.5,2.3-6.5,5.1-8.3,9.6c-0.8,2.1-1.2,4.7-1.9,7c-0.6,2.4-1.2,4.6-2.2,6.8c-0.8,2-1.9,4-2.9,6c-0.6,1.1-2.1,5.5-3.5,5.5
	c-0.7,0-1.3-1.1-1.8-1.7c-2.5-3.7-4.4-7.6-6.2-11.8c-0.7-1.8-1.6-3.5-2-5.3c-0.1-0.5-0.3-2-0.1-2.7c0.4-1.8,2-2.3,3.2-3.3
	c0.7-0.7,1.4-1.3,1.7-2.3c1.4-4.1-3.3-7.2-1.9-11.6c0.4-1.3,2-2.4,3.4-3c0.7-0.3,3.5-0.8,3.6-1.5c0.1-1.1-2.5-1.7-3.5-1.9
	c-3.2-0.8-6.9-0.4-9.6,0.4c-0.9,0.3-3.7,0.9-3.6,1.8c0.1,0.6,1.5,1,2.3,1.2c2.3,0.7,4.6,0.9,5.2,2.8c0.1,0.5,0.3,1.6,0.1,2.3
	c-0.1,0.3-0.7,0.8-1.1,1.1c-2.9,2.4-5.7,5.5-6.2,9.9c-0.3,2.6,0.2,5.9,0.6,8.4c1.6,10.8,4.9,19.3,10.2,26.5c1.3,1.8,2.5,3.8,4.2,5
	c2.7,2,4.3-0.8,5.6-2.5c2.6-3.4,5.2-6.2,7.3-10c2.1-3.6,3.7-7.9,5.2-12.1c0.2-0.6,1.1-3.9,1.6-4.1c0.9-0.3,2,0.7,2.3,1.1
	c1,1,1.8,2.9,2.4,4.6c0.7,1.8,1.2,3.7,1.6,5.4c0.9,3.9,1.6,8.1,1.7,12.5c0.1,4.7-0.4,9-1.2,12.9c-0.8,3.9-2.3,7.3-3.4,10.8
	c-2.2,7.2-3.6,15.9-2.8,25c0.7,8.7,2.4,16.4,4.2,24.1c1.8,7.7,4.2,15.1,5.1,23.1c1,8.2,1.4,17.5,0.6,26.6c-0.7,8.3-2.7,16.2-5.2,23
	c-1.2,3.2-2.9,6.8-4.5,9.6c-1.3,2.1-2.8,4.3-4.6,6c-0.7,0.7-1.7,1.2-1.6,2c0.1,0.7,0.9,0.9,1.5,1.2c0.8,0.4,0.7,0.5,1.8,1.1
	c-11.2,3.6-21.7,7.2-31.8,12.2c-0.9,0.4-3.9,1.6-3.7,2.7c0.2,0.8,2.3,1,3.4,1.1c1.5,0.2,3.1,0.2,4.2,0.4c8.2,1.2,15.2,3.1,21.6,5.7
	c7.2,2.9,14.6,6.9,20.3,11.6c0.8,0.6,2.1,1.7,2.2,2.3c0.3,1.1,0,2.8,0,4.1c0,4.2-0.2,8.3,0,12.2c1.8-0.2,4,0,6-0.1v-17.7
	c6.5-5.1,13.5-9.5,21.4-13.2c6.8-3.3,14.5-6,23.1-7.2c1.1-0.1,2.5,0,3.6-0.7c0.1-0.8-0.7-1.3-1.2-1.7c-1.8-1.3-4-2.2-6.2-3.1
	c-7.2-3-15.5-5-24-6.7c-1.8-0.4-3.6-0.4-5.3-0.9c-2.8-0.8-2.9-4.6-3.6-7.5c-0.5-2-0.9-4-1.4-5.9c-0.9-4.1-1.2-8.5-1.7-12.7
	c-0.4-4.4-0.9-8.9-0.6-13.4c0.6-9.1,2.1-17.1,3.8-24.9c0.8-3.9,2-7.5,3.2-11.2c4.7-14.1,9.9-28.7,10.7-46.6
	c0.6-13.9-3-26.1-8.3-34.6c-1.9-3-4-5.7-4.6-9.7c-1.1-6.7,1-13.3,2.9-18.2c0.5-1.3,1.3-4.5,2.7-4.5c1,0,2,2.4,2.7,3.4
	c0.8,1.4,1.6,2.6,2.3,3.8c1.7,2.8,3,5.4,4.5,7.7c2.4,3.5,5.4,6.9,8.6,9.7c1,0.9,2.4,2.3,3.6,2.6c2.4,0.5,3.3-1.9,4.1-3.7
	c1.2-3,2.9-5.7,4.1-8.5c3.3-7.5,6.2-16.9,5.7-28c-0.2-5.4-2.7-8.7-6.4-10.5c-0.5-3,1-3.6,2.8-4.5c0.8-0.5,2.9-1.1,2.7-2.1
	c-0.1-0.9-2.1-1.2-3.3-1.4c-3.2-0.6-5.8-0.4-8.3,0.4c-0.9,0.3-3.1,1-3,1.7c0.1,0.8,2.5,1.2,3.3,1.6c2.5,1,4.8,2.2,4.2,5.9
	c-0.1,0.6-0.5,1.2-0.8,1.9c-0.6,1.9-1.2,4.7-0.9,7.2C220.5,99.1,222.3,100,224.1,101.1 M287.2,365.8c-7.6,0.1-15.1,0.2-22.5,0.3
	c-7.5,19.2-14.8,38.6-22.3,57.8c-2.4-19.2-4.6-38.5-7-57.6c-7.7,0.2-15.7,0-23.4,0.2c4.4,36.8,8.9,73.6,13.2,110.5
	c7.2,0.2,14.9,0,22.2,0.1c8.1-22,16.1-44.2,24.2-66.2c4.6,22.1,9.3,44.2,14,66.3c7.7,0.2,15.5,0.2,23.3,0.3
	c11.4-37.2,23.1-74.3,34.5-111.6h-22.9c-6.8,20.1-13.4,40.5-20.1,60.6C296,406.2,291.6,386,287.2,365.8 M179.6,366.3
	c-0.1,0-0.2,0.1-0.2,0.3c-6.8,12.6-13.7,25.5-20.4,38.1c-2.3,4.3-4.5,8.5-6.8,12.6c-4-16.7-8.1-33.2-12.1-49.8H118
	c8.2,37.1,16.5,74,24.6,111.1c0.6-0.3,0.7-1,0.9-1.5c19.3-36.2,38.3-72.8,57.6-109c0.3-0.6,0.8-1.3,0.7-1.7H179.6 M25.4,367.8
	c-0.1,0-0.1,0.2-0.2,0.3c-5.7,37.2-11.5,74.4-17.2,111.6c28.1-0.2,56.2-0.5,84.3-0.7c1.3-8,2.5-16,3.8-24c-20.5,0.3-41,0.5-61.5,0.8
	c4.3-29.3,8.6-58.7,12.8-88.1H25.4 M116.2,381.5c-4.7,32.3-9.4,64.6-14.2,96.8h23.3c1.5-9.7,3-19.5,4.5-29.3c0.2-1.5,0.8-3,0.7-4.2
	c-0.1-1.1-0.6-2.6-0.9-4C125.3,421,120.5,401,116.2,381.5 M199.5,381.7c-2.4,4.8-5.1,9.5-7.6,14.3c-6.9,12.9-13.8,25.8-20.6,38.7
	c-0.6,1.2-1.6,2.5-1.9,3.5c-0.4,1.4-0.4,3.3-0.7,4.9c-1.7,11.7-3.2,23.3-4.9,34.8c7.4-0.3,15-0.3,22.5-0.5
	C190.7,445.6,195.2,413.4,199.5,381.7"/>
</svg>
