<?xml version="1.0" standalone="no"?>
<!DOCTYPE svg PUBLIC "-//W3C//DTD SVG 20010904//EN"
 "http://www.w3.org/TR/2001/REC-SVG-20010904/DTD/svg10.dtd">
<svg version="1.0" xmlns="http://www.w3.org/2000/svg"
 width="342.000000pt" height="184.000000pt" viewBox="0 0 342.000000 184.000000"
 preserveAspectRatio="xMidYMid meet">

<g transform="translate(0.000000,184.000000) scale(0.100000,-0.100000)"
fill="#000000" stroke="none">
<path d="M1138 1296 c-35 -44 -43 -72 -23 -83 13 -8 14 -17 6 -54 -18 -85 -23
-124 -25 -199 -1 -42 -5 -81 -10 -88 -10 -16 -16 -142 -6 -142 10 0 0 -103
-11 -114 -5 -6 -9 8 -10 35 l-1 44 -9 -40 c-11 -57 -11 -107 1 -100 31 19 56
149 55 277 l-1 56 41 -43 c73 -78 170 -82 233 -10 17 18 57 47 89 64 l58 30
-119 1 -118 0 36 -40 c20 -22 36 -45 36 -51 0 -13 -62 -39 -96 -39 -73 0 -134
64 -134 141 0 110 115 176 208 119 37 -23 42 -24 42 -10 0 15 -76 50 -109 50
-39 0 -81 -16 -108 -42 -13 -12 -25 -19 -28 -16 -8 7 17 118 26 118 12 0 29
69 29 121 0 55 -16 60 -52 15z"/>
<path d="M949 1261 c-24 -23 -69 -117 -128 -264 -28 -70 -58 -141 -66 -158
-17 -32 -12 -69 9 -69 19 0 87 161 79 188 -3 14 1 30 11 41 9 10 23 40 31 68
15 51 50 101 62 90 3 -4 0 -54 -7 -111 -12 -99 -10 -189 4 -204 11 -11 40 13
47 40 3 13 23 60 42 104 22 49 38 102 41 138 3 31 9 62 12 68 4 6 2 8 -3 5 -6
-4 -24 -33 -41 -64 -47 -91 -66 -123 -74 -123 -12 0 -6 74 9 96 7 11 13 31 13
45 -1 13 0 45 0 70 1 51 -15 66 -41 40z"/>
<path d="M1486 1098 c-3 -7 -9 -35 -16 -63 -6 -27 -13 -58 -16 -67 -4 -13 0
-18 13 -18 15 0 22 15 37 70 10 39 22 70 28 70 10 0 8 -36 -7 -107 -6 -26 -4
-33 8 -33 10 0 20 22 32 70 10 41 22 70 30 70 10 0 10 -12 -1 -62 -17 -80 -17
-78 4 -78 15 0 22 15 35 73 10 39 17 75 17 80 0 13 -160 8 -164 -5z"/>
<path d="M1682 1098 c6 -18 28 -21 28 -4 0 9 -7 16 -16 16 -9 0 -14 -5 -12
-12z"/>
<path d="M2445 1083 c-3 -12 -11 -23 -19 -23 -8 0 -13 -11 -12 -27 0 -16 -3
-40 -7 -55 -7 -26 -5 -28 21 -28 25 0 27 3 27 40 0 28 6 44 20 54 13 10 15 15
6 16 -9 0 -12 8 -9 23 3 15 0 24 -8 24 -7 0 -15 -11 -19 -24z"/>
<path d="M2523 1098 c2 -7 10 -13 17 -13 7 0 15 6 18 13 2 7 -5 12 -18 12 -13
0 -20 -5 -17 -12z"/>
<path d="M1656 1023 c-4 -21 -9 -46 -12 -55 -4 -13 0 -18 14 -18 15 0 22 11
31 44 15 60 14 66 -8 66 -14 0 -21 -10 -25 -37z"/>
<path d="M1726 1051 c-4 -5 -9 -30 -12 -55 l-7 -46 46 0 c25 0 49 5 52 10 4 6
-7 10 -25 10 -30 0 -31 1 -25 33 4 17 9 34 11 36 6 7 24 -11 19 -20 -4 -5 3
-9 13 -9 19 0 36 32 24 44 -9 10 -90 7 -96 -3z"/>
<path d="M1856 1051 c-2 -3 -6 -19 -10 -36 -4 -16 -9 -38 -12 -47 -4 -13 0
-18 14 -18 14 0 21 10 28 42 5 23 15 43 23 46 10 3 12 -1 8 -17 -4 -16 -1 -21
14 -21 10 0 19 6 19 14 0 8 3 21 6 29 4 12 -4 15 -41 15 -25 -1 -47 -4 -49 -7z"/>
<path d="M1971 1038 c-5 -13 -12 -38 -16 -55 l-7 -33 50 0 50 0 11 50 c6 28
11 53 11 55 0 3 -20 5 -45 5 -38 0 -47 -4 -54 -22z m59 -10 c0 -30 -13 -58
-26 -58 -11 0 -13 7 -8 28 4 15 9 30 11 35 7 12 23 8 23 -5z"/>
<path d="M2091 1015 c-14 -57 -14 -65 4 -65 9 0 19 17 26 45 7 28 17 45 26 45
15 0 14 -14 -3 -72 -4 -13 0 -18 14 -18 14 0 21 10 28 42 5 23 15 43 23 46 11
4 13 -4 8 -42 -5 -35 -3 -46 7 -46 12 0 36 67 36 98 0 6 -36 10 -79 10 l-79 1
-11 -44z"/>
<path d="M2291 1037 c-4 -12 -11 -37 -14 -54 l-6 -33 44 0 c49 0 54 6 69 76
l7 31 -46 1 c-39 0 -47 -3 -54 -21z m55 -19 c-3 -13 -6 -29 -6 -35 0 -7 -7
-13 -15 -13 -18 0 -19 9 -5 44 12 32 35 35 26 4z"/>
<path d="M2498 1005 c-15 -52 -14 -55 3 -55 13 0 21 12 29 43 6 23 13 48 15
55 3 6 -4 12 -14 12 -13 0 -22 -14 -33 -55z"/>
<path d="M2575 1048 c-2 -7 -9 -32 -14 -55 l-9 -43 48 0 c27 0 52 5 55 10 4 6
-7 10 -24 10 -32 0 -36 7 -25 48 7 25 24 30 24 7 0 -8 9 -15 20 -15 15 0 20 7
20 25 0 23 -4 25 -45 25 -28 0 -47 -5 -50 -12z"/>
<path d="M1732 898 c-12 -15 -31 -91 -32 -125 0 -21 4 -23 59 -23 52 0 59 2
65 23 12 45 7 67 -14 64 -26 -4 -34 -14 -35 -39 0 -12 -6 -23 -12 -25 -16 -6
-16 19 -2 70 10 37 10 37 50 31 37 -6 41 -5 37 12 -2 15 -13 20 -54 22 -33 2
-55 -2 -62 -10z"/>
<path d="M2020 900 c0 -5 9 -10 20 -10 11 0 20 5 20 10 0 6 -9 10 -20 10 -11
0 -20 -4 -20 -10z"/>
<path d="M2290 890 c0 -16 -7 -20 -34 -20 -33 0 -34 -1 -49 -60 l-15 -61 56 3
57 3 11 53 c7 29 15 64 18 77 6 22 3 25 -19 25 -18 0 -25 -5 -25 -20z m-10
-57 c0 -35 -13 -63 -27 -63 -11 0 -13 7 -8 33 4 17 9 35 12 40 8 14 23 7 23
-10z"/>
<path d="M2370 900 c0 -5 9 -10 20 -10 11 0 20 5 20 10 0 6 -9 10 -20 10 -11
0 -20 -4 -20 -10z"/>
<path d="M1867 807 c-9 -34 -15 -62 -14 -63 1 -1 12 2 24 7 16 6 23 19 28 53
5 29 12 46 21 46 8 0 14 -4 14 -10 0 -18 38 -10 43 9 4 18 -1 20 -48 20 l-53
0 -15 -62z"/>
<path d="M2001 820 c-14 -67 -14 -70 7 -70 14 0 21 13 30 51 16 66 15 69 -7
69 -15 0 -22 -11 -30 -50z"/>
<path d="M2072 819 c-16 -66 -15 -69 7 -69 14 0 21 9 26 33 11 56 16 67 30 67
10 0 11 -9 4 -37 -12 -55 -11 -63 10 -63 15 0 20 10 26 46 3 26 9 53 12 60 4
11 -7 14 -49 14 l-55 0 -11 -51z"/>
<path d="M2354 843 c-3 -16 -10 -43 -14 -60 -8 -30 -6 -33 14 -33 18 0 25 7
30 33 3 17 9 44 12 60 5 23 3 27 -15 27 -14 0 -22 -8 -27 -27z"/>
<path d="M2422 819 c-16 -66 -15 -69 7 -69 15 0 21 11 27 47 6 32 15 49 26 51
14 3 15 -2 7 -35 -12 -55 -11 -63 10 -63 15 0 20 10 26 46 3 26 9 53 12 60 4
11 -7 14 -49 14 l-55 0 -11 -51z"/>
<path d="M2567 863 c-2 -5 -7 -25 -11 -46 -4 -21 -10 -45 -13 -53 -4 -11 4
-14 32 -14 47 0 43 -22 -6 -31 -32 -6 -31 -6 12 -8 53 -1 63 7 77 64 26 104
29 95 -32 95 -30 0 -57 -3 -59 -7z m63 -22 c0 -31 -15 -71 -26 -71 -16 0 -17
5 -8 49 6 27 34 46 34 22z"/>
<path d="M1051 784 c0 -11 3 -14 6 -6 3 7 2 16 -1 19 -3 4 -6 -2 -5 -13z"/>
<path d="M1943 663 c136 -2 358 -2 495 0 136 1 24 2 -248 2 -272 0 -384 -1
-247 -2z"/>
<path d="M1724 596 c-11 -29 0 -61 21 -61 15 0 21 8 23 29 5 38 -32 64 -44 32z
m33 -12 c-3 -3 -12 -4 -19 -1 -8 3 -5 6 6 6 11 1 17 -2 13 -5z m-3 -35 c-3 -5
-10 -7 -15 -3 -5 3 -7 10 -3 15 3 5 10 7 15 3 5 -3 7 -10 3 -15z"/>
<path d="M2274 594 c3 -9 6 -25 6 -36 0 -29 6 -20 13 20 5 25 3 32 -9 32 -11
0 -14 -6 -10 -16z"/>
<path d="M2321 575 c0 -34 2 -36 9 -17 5 12 14 22 19 22 5 0 12 -10 14 -22 4
-20 4 -19 6 5 1 20 -4 27 -18 27 -11 0 -22 6 -24 13 -3 6 -5 -6 -6 -28z"/>
<path d="M2480 570 c0 -25 5 -40 13 -40 21 0 33 14 33 40 0 26 -12 40 -33 40
-8 0 -13 -15 -13 -40z m34 -21 c-3 -5 -10 -7 -15 -3 -5 3 -7 10 -3 15 3 5 10
7 15 3 5 -3 7 -10 3 -15z"/>
<path d="M2658 595 c-7 -7 2 -54 12 -60 4 -3 7 9 5 25 -2 32 -8 44 -17 35z"/>
<path d="M1783 574 c-3 -8 2 -23 11 -32 13 -14 18 -14 28 -3 11 11 10 13 -4 8
-10 -4 -18 -2 -18 3 0 16 32 11 52 -7 15 -13 21 -14 31 -4 9 10 9 12 -2 9 -8
-2 -17 6 -19 16 -3 14 0 17 12 13 9 -4 16 -2 16 3 0 15 -37 12 -44 -2 -5 -10
-7 -10 -12 0 -8 17 -43 15 -51 -4z"/>
<path d="M1906 574 c-4 -10 -1 -24 7 -31 19 -19 49 -5 45 21 -4 27 -43 34 -52
10z m39 -12 c0 -18 -20 -15 -23 4 -3 10 1 15 10 12 7 -3 13 -10 13 -16z"/>
<path d="M1971 563 c0 -27 1 -27 9 -5 12 27 30 29 30 2 0 -11 5 -20 10 -20 6
0 10 9 10 20 0 27 18 25 23 -2 4 -20 4 -19 6 5 1 26 -1 27 -44 27 -43 0 -45
-1 -44 -27z"/>
<path d="M2082 565 c0 -16 2 -22 5 -12 2 9 2 23 0 30 -3 6 -5 -1 -5 -18z"/>
<path d="M2100 565 c0 -14 5 -25 10 -25 6 0 10 9 10 20 0 11 5 20 10 20 6 0
10 -9 10 -20 0 -11 5 -20 10 -20 11 0 13 11 4 34 -3 9 -17 16 -30 16 -19 0
-24 -5 -24 -25z"/>
<path d="M2177 583 c-4 -3 -7 -15 -7 -25 0 -16 11 -23 33 -19 4 0 7 -4 7 -10
0 -6 -9 -9 -20 -6 -11 3 -20 1 -20 -4 0 -5 11 -9 25 -9 23 0 25 4 25 40 0 32
-4 40 -18 40 -10 0 -22 -3 -25 -7z m31 -20 c-4 -22 -22 -20 -26 1 -2 10 3 16
13 16 10 0 15 -7 13 -17z"/>
<path d="M2387 577 c-3 -9 1 -23 8 -34 12 -15 16 -16 27 -4 8 8 8 11 1 7 -6
-3 -14 -2 -18 4 -3 6 3 10 15 10 13 0 20 5 18 13 -6 18 -44 21 -51 4z"/>
<path d="M2544 576 c-13 -35 24 -64 42 -34 5 8 2 9 -9 5 -9 -3 -19 -2 -22 3
-4 6 3 10 15 10 13 0 20 5 18 13 -7 18 -37 21 -44 3z m33 -2 c-3 -3 -12 -4
-19 -1 -8 3 -5 6 6 6 11 1 17 -2 13 -5z"/>
<path d="M2605 580 c-3 -6 1 -13 9 -16 22 -8 20 -25 -1 -17 -15 5 -16 3 -5 -8
18 -19 40 4 23 25 -9 11 -9 15 1 19 9 4 7 6 -4 6 -9 1 -20 -4 -23 -9z"/>
</g>
</svg>
