<?xml version="1.0" encoding="utf-8"?>
<!-- Generator: Adobe Illustrator 26.0.3, SVG Export Plug-In . SVG Version: 6.00 Build 0)  -->
<svg version="1.0" id="katman_1" xmlns="http://www.w3.org/2000/svg" xmlns:xlink="http://www.w3.org/1999/xlink" x="0px" y="0px"
	 viewBox="0 0 538 394" style="enable-background:new 0 0 538 394;" xml:space="preserve">
<style type="text/css">
	
		.st0{clip-path:url(#SVGID_00000173850478477065246550000016290832593854584225_);fill-rule:evenodd;clip-rule:evenodd;fill:#EF7D00;}
	
		.st1{clip-path:url(#SVGID_00000173850478477065246550000016290832593854584225_);fill-rule:evenodd;clip-rule:evenodd;fill:#13110C;}
	.st2{clip-path:url(#SVGID_00000173850478477065246550000016290832593854584225_);fill:#13110C;}
</style>
<g>
	<defs>
		<rect id="SVGID_1_" x="50.9" y="177.4" width="438.1" height="63.9"/>
	</defs>
	<clipPath id="SVGID_00000078043915781397748060000010121050305982759841_">
		<use xlink:href="#SVGID_1_"  style="overflow:visible;"/>
	</clipPath>
	
		<path style="clip-path:url(#SVGID_00000078043915781397748060000010121050305982759841_);fill-rule:evenodd;clip-rule:evenodd;fill:#EF7D00;" d="
		M260.8,207.6c2.8,1.4,3.7,1.3,4.5,6.1l-4.5,26.6l-13.1-0.1l3.2-22c0.2-2.3-0.8-2.8-2.2-2.9l-4,0.2l-3.4,24.7l-13.6,0l7-51.1
		l13.6,0.2l-2.4,18.2L260.8,207.6z M52.5,224.6c0,2.8-0.7,5.2-1,7.4c-0.5,3.9-0.6,9.3,7.9,8.3l23.9,0c4.6,0.3,8.5-1.7,9.1-7.3
		l2-15.1c0.8-4.5,0.3-8-4.1-8.6l-16.7-0.1c-4.8,0.6-4.3-2.3-3.3-4.8l0.4-3.5c0.3-2.8,6.4-0.6,9.2-1.5c1.8,0.1,1.8,0.6,2,1.3
		l-0.3,3.7l14.7-0.1l1.4-8.9c0.6-2.2-0.7-5.7-5.6-6.1l-25.8-0.1c-7.6,0-9.3,1.9-10.1,8.3l-1.6,12.2c-0.8,6.4,2.4,8.2,5,8.1L76,218
		c2.8,0.1,3.3,1,2.9,3.1l-0.8,5.7c-0.3,1.9,0.5,3.2-1.3,3.2l-8.8,0c-2.1,0-0.9-1.8-0.8-2.9l0.3-2.5L52.5,224.6 M173.1,207.5
		l-4.5,32.7l13.2,0l3.3-24.2l3.9-0.2c1.4,0.1,2.4,0.6,2.2,2.8l-3,21.7l14,0l3.6-26c1-4.7-2-6.6-4.9-6.6L173.1,207.5z M112.5,207.2
		l2.4-17.7l-13.6-0.2l-7,50.9l13.6,0l3.3-24.5l4-0.2c1.4,0.1,2.5,0.6,2.2,2.9l-3,21.8l14.2,0l3.7-26.2c1-4.8-2-6.7-5-6.7
		L112.5,207.2z M229.7,207.6l-3.2,0.1l2.4-18.1l-13.6-0.2l-2.2,18.5l-3.6-0.3l-1.6,8.2l3.8,0l-2.7,19.6c0.5,3.6,2.3,4.4,5.4,4.9
		l10.8-0.1l0.9-8.3c-3.4,0.6-3,0.6-2.6-2.6l1.8-13.4h3.3L229.7,207.6z M154.7,224.8c-0.1,0.1-0.3,0-0.5,0.1v0.1h-0.2v0.1h-0.3v0.1
		h-0.2v0.1h-0.2v0.1h-0.2v0.1c-0.1,0-0.3,0-0.4,0.1c-1.4,0.5-3,0.8-4.3,1.3c-0.1,0-0.3,0-0.4,0.1v0.1c-0.2,0-0.4,0.1-0.6,0.1v0.1
		h-0.2v0.1h-0.2v0.1h-0.2v0.1h-0.2v0.1h-0.1v0.1c-0.1,0-0.2,0-0.3,0.1c0,0.1-0.1,0.1-0.1,0.2h-0.1c0,0.1-0.1,0.1-0.1,0.2h-0.1
		c-0.1,0.1-0.2,0.3-0.4,0.4c-0.1,0-0.1,0.1-0.2,0.1c0,0.1,0,0.2-0.1,0.3h0v0.1h-0.1v0.2h-0.1v0.1h0c0,0.1,0,0.2-0.1,0.3h-0.1v0.2
		h-0.1c0,0.2,0,0.5-0.1,0.7h-0.1v0.4H145v0.4H145v0.4h-0.1v0.4h-0.1c-0.1,0.2,0,0.7-0.1,0.8c0,0.4,0,0.9,0.1,1.2h6.4
		c0.7,0,2.2,0.1,2.6-0.1c0-0.5,0-0.9,0.2-1.3v-0.4h0.1v-0.4h0.1v-0.4h0.1v-0.4h0.1V230h0.1c0.1-0.5,0.1-1,0.2-1.5
		c0.2-1.2,0.3-2.4,0.5-3.6C154.8,224.8,154.8,224.8,154.7,224.8 M132.3,237.3c-0.1,0.5-0.3,2.4-0.3,2.6c0.1,0.4,2.5,0.3,3.8,0.3
		l29.8,0l3-22.5c0.9-7.2-0.3-9.7-5.4-10.2l-26.9,0l-1.1,8.3l17.2,0.1c3.8-0.4,1.7,1.7,1.9,3l-6.2,1.3c-4.1,1.3-8.7,3-12.7,4
		c-2.9,0.7-2,4.7-2.4,7.8L132.3,237.3z M281.3,207.6l-13-0.1l-4.3,32.6l12.9,0.1L281.3,207.6z"/>
	
		<path style="clip-path:url(#SVGID_00000078043915781397748060000010121050305982759841_);fill-rule:evenodd;clip-rule:evenodd;fill:#13110C;" d="
		M302,197.2l0.1-0.3l0.1-0.3l0.1-0.3l0.1-0.3l0.1-0.3l0.2-0.3l0.2-0.3l0.2-0.3l0.2-0.3l0.2-0.3l0.2-0.3l0.3-0.3l0.3-0.3l0.3-0.2
		l0.3-0.2l0.3-0.2l0.3-0.2l0.3-0.2l0.3-0.2l0.3-0.2l0.3-0.2l0.3-0.1l0.4-0.1l0.3-0.1l0.3-0.1l0.3-0.1l0.3-0.1l0.3-0.1l0.3,0l0.3,0
		l0.3,0l26.5,0.1l0.7,0.1l0.6,0.1l0.5,0.2l0.5,0.2l0.4,0.2l0.3,0.2l0.3,0.2l0.2,0.2l0.2,0.3l0.1,0.3l0.1,0.3l0.1,0.3l0,0.2l0,0.2
		l0,0.2l-0.1,0.4l-1.3,8.5l-11.1,0.1l0.1-1.3l-0.1-0.6l-0.1-0.5l-0.2-0.6l-0.4-0.7l-0.6-0.6l-0.8-0.5l-0.9-0.3l-1-0.1l-5.6,0.1
		l-0.5,0l-0.6,0l-0.6,0.1l-0.6,0.1l-0.6,0.2l-0.6,0.3l-0.6,0.4l-0.5,0.5l-0.4,0.5l-0.3,0.6l-0.3,0.6l-0.2,0.6l-0.2,0.7l-0.1,0.7
		l-0.1,0.8l-0.1,0.8l-2.5,20.8c-0.5,3.1,0.9,5.6,4.3,6.2l0.6,0h0.5l5.8,0l0.6-0.2l0.4-0.2l0.3-0.2l0.3-0.2l0.3-0.2l0.3-0.3l0.3-0.3
		l0.2-0.3l0.2-0.3l0.2-0.3l0.2-0.3l0.2-0.4l0.1-0.4l0.1-0.4l0.1-0.4l0-0.4l0.7-9.4l-6.9,0l0.6-5.6l15.6,0.2l0.3,0l0.4,0.1l0.3,0.1
		l0.3,0.1l0.3,0.1l0.2,0.1l0.2,0.1l0.2,0.1l0.1,0.1l0.1,0.1l0.1,0.1l0.1,0.1l0.1,0.1l0,0.1l0,0.1l0,0.1l0,0.1l0,0.1l0,0.1l0,0.1
		l0,0.2l0,0.2l0,0.2v0.2l0,0.3l0,0.3l0,0.3l0,0.3l0,0.3l-0.1,0.4l-0.1,0.4l-0.1,0.5l-2,15.3l-0.1,0.5l-0.1,0.4l-0.1,0.4l-0.1,0.4
		l-0.1,0.3l-0.1,0.3l-0.1,0.3l-0.1,0.3l-0.1,0.3l-0.2,0.2l-0.2,0.2l-0.2,0.2l-0.2,0.2l-0.2,0.2l-0.2,0.2L333,237l-0.2,0.1l-0.2,0.1
		l-0.2,0.1l-0.3,0.1l-0.3,0.1l-0.3,0.1l-0.3,0.1l-0.3,0.1l-0.3,0.1l-0.3,0.1l-0.3,0l-0.4,0l-0.4,0l-0.4,0l-0.4,0l-0.5,0l-24.7,0
		h-0.8l-0.7,0l-0.6,0l-0.6-0.1l-0.5-0.1l-0.5-0.1l-0.4-0.1l-0.3-0.1l-0.3-0.1l-0.3-0.1l-0.2-0.1L298,237l-0.2-0.1l-0.1-0.1l-0.1-0.1
		l-0.1-0.1l-0.1-0.2l-0.1-0.2l-0.1-0.2l-0.1-0.2l-0.1-0.2l0-0.2l0-0.3l0-0.3l0-0.3v-0.3l0-0.3l0-0.3l0-0.3l0-0.3l0-0.3l0-0.4l0-0.2
		l0-0.2l0-0.2l0-0.2l0-0.2l0-0.2l0-0.2l0-0.2l0-0.2l0-0.2l0-0.2l0-0.2l0-0.2l0-0.2l0-0.2l0-0.2l0-0.2l0-0.2l0-0.3l0-0.3l0-0.3l0-0.3
		l0-0.3l0-0.3l0-0.3l0-0.3l0-0.3l0-0.3l0-0.3l0-0.3l0-0.3l0-0.1l3.7-27L302,197.2z M296.1,224.4l3.7-27.1c0.7-4.8,6.1-8.4,10.4-8.4
		l26.6,0.1c5.1,0.3,6.4,3.9,5.8,6.1l-1.6,10.2l-15.2,0.1l0.2-3.3c-0.1-0.7-0.2-1.8-2.1-1.9l-5.4,0.1c-2.8-0.1-3.8,0.7-4.2,4.9
		l-2.5,20.8c-0.6,2.6,1.1,3.8,3.3,3.8l5.5,0c1-0.3,2-1.5,2.1-2.8l0.5-7l-7,0l1-9.8l17.6,0.1c5.2,0.6,5.4,2.9,4.5,7.5l-2,15.2
		c-0.7,5.6-4.6,7.6-9.4,7.3l-24.7,0c-8.8,0.1-8.7-4.4-8.2-8.4C295.4,229.7,296.1,227.2,296.1,224.4"/>
	
		<path style="clip-path:url(#SVGID_00000078043915781397748060000010121050305982759841_);fill-rule:evenodd;clip-rule:evenodd;fill:#13110C;" d="
		M353.2,225.5l-0.5,2.4v0.1l0,0.2l0,0.3l0,0.3l0,0.4l0,0.5v0.5l0.1,0.6l0.2,0.7l0.3,0.7l0.5,0.6l0.7,0.5l0.7,0.3l0.8,0.2l0.8,0.1
		l15.5,0.1l-0.5,3.9l-25.9,0.3l-0.6,0l-0.5,0l-0.4,0l-0.4-0.1l-0.4-0.1l-0.3-0.1l-0.3-0.1l-0.2-0.1l-0.2-0.1l-0.2-0.1l-0.1-0.1
		l-0.1-0.1l-0.1-0.1l-0.1-0.1l-0.1-0.1l-0.1-0.2l-0.1-0.2l-0.1-0.2l-0.1-0.2l0-0.3l0-0.3l0-0.3l0-0.4l0-0.4l0-0.4l0-0.4l0.1-0.5
		l0.1-0.5l0.1-0.5l0.1-0.5l0.1-0.6l0.1-0.7l2.5-17.6l0-0.1l0-0.2l0.1-0.2l0.1-0.1l0.1-0.1l0.1-0.1l0.1-0.1l0.1-0.1l0.1-0.1l0.1-0.1
		l0.1-0.1l0.1-0.1l0.1-0.1l0.1-0.1l0.1-0.1l0.1-0.1l0.1-0.1l0.2-0.1l0.2-0.1l0.2-0.1l0.2-0.1l0.2-0.1l0.2-0.1l0.2-0.1l0.2-0.1
		l0.2-0.1l0.2-0.1l0.2,0l0.2,0l0.2,0l0.2,0l0.2,0l21.6,0h0.3h0.3h0.3l0.3,0l0.3,0l0.3,0l0.3,0l0.2,0l0.2,0l0.2,0l0.2,0l0.2,0l0.1,0
		l0.1,0l0.1,0l0.1,0l0.1,0l0.1,0l0,0l0,0l0,0.1l0,0.1l0,0.1l0,0.1l0,0.2l0,0.2l0,0.3l0,0.3l0,0.3l0,0.4l0,0.4l0,0.5l-1.5,12.3
		L353.2,225.5z M354.8,227.6c0.2,1.2-1.3,4.1,1.9,4.1l17.8,0.1l-1.1,8.1l-27.6,0.3c-6.7,0.2-7.2-3.7-5.8-10.3l2.5-17.6
		c0.6-2.9,3.2-4.6,6.6-4.8l21.6,0c3.5,0,6.8-0.2,6,5.9l-1.7,14.2L354.8,227.6z"/>
	
		<path style="clip-path:url(#SVGID_00000078043915781397748060000010121050305982759841_);fill-rule:evenodd;clip-rule:evenodd;fill:#13110C;" d="
		M379.1,229.6l0-0.3l0-0.3l0-0.2l0-0.2l0-0.2l0-0.2l0-0.2l0-0.2l0-0.2l0-0.2l0-0.2l0-0.2l0.1-0.2l0.1-0.1l0.1-0.1l0.1-0.1l0.1-0.1
		l0.1-0.1l0.1-0.1l0.1-0.1l0.1-0.1l0.1-0.1l0.1-0.1l0.1-0.1l0.1-0.1l0.2-0.1l0.2-0.1l0.2-0.1l0.2-0.1l0.2-0.1l0.3-0.1l0.3-0.1
		l0.3-0.1l0.3-0.1l0.3-0.1l0.3-0.1l0.4-0.1l0.4-0.1l0.4-0.1l0.4-0.1l0.4-0.1l0.4-0.1l0.4-0.1l0.4-0.1l0.4-0.1l0.4-0.1l0.4-0.1
		l0.5-0.1l0.5-0.1l0.5-0.1l0.5-0.1l0.5-0.1l0.5-0.1l0.5-0.1l0.5,0l0.5,0l0.5,0l8.1-0.9l0-2.2v0l0-0.1l0-0.2l0-0.3l0-0.4l0-0.4l0-0.5
		l-0.1-0.6l-0.2-0.6l-0.4-0.6l-0.6-0.5l-0.7-0.4l-0.7-0.2l-0.7-0.1l-0.7,0l-15.3-0.1l0.5-3.9l25.6-0.3h0.6l0.5,0l0.4,0l0.4,0.1
		l0.3,0.1l0.3,0.1l0.3,0.1l0.2,0.1l0.2,0.1l0.2,0.1l0.1,0.1l0.1,0.1l0.1,0.1l0.1,0.1l0.1,0.1l0.1,0.2l0.1,0.2l0.1,0.2l0.1,0.2l0,0.3
		l0,0.3l0,0.3l0,0.4l0,0.4l0,0.4l0,0.4l-0.1,0.5l-0.1,0.5l-0.1,0.5l-0.1,0.5l-0.1,0.6l-0.1,0.7l-2.9,20.4l-28.7,0l-0.2,0l-0.2,0
		l-0.1,0l-0.1,0l-0.1,0l-0.1,0l-0.1,0l-0.1-0.1l-0.1-0.1l-0.1-0.1l-0.1-0.1l-0.1-0.1l-0.1-0.1l-0.1-0.1L378,237l0,0v0l0-0.1l0-0.1
		l0-0.1l0.9-5.1l0-0.3l0-0.3l0-0.3l0-0.3l0-0.3l0-0.3L379.1,229.6z M376.8,231.3c0.5-3,0.1-5.6,2.5-7.6c2.4-2,7.8-3.7,13.2-4
		l6.2-0.7c-0.2-1.2,1.2-3.2-2-3.3l-17.7-0.1l1.1-8l27.5-0.3c6.7-0.2,7.2,3.6,5.7,10.2l-3.1,22.1l-30.6,0c-1.9,0-2.8-1-3.3-1.6
		c-0.5-0.6-0.4-1.2-0.3-1.7L376.8,231.3z"/>
	
		<path style="clip-path:url(#SVGID_00000078043915781397748060000010121050305982759841_);fill-rule:evenodd;clip-rule:evenodd;fill:#13110C;" d="
		M449.1,218.4c0.4-3.1,0.9-6.2,1.3-9.2c-0.3-0.1-0.8-0.1-1.2-0.1h-2.6h-9.2c-0.2,0.1-0.4,0.2-0.6,0.3c-0.3,0.3-0.5,0.6-0.8,0.8
		c-0.5,0.5-1.1,1-1.6,1.5c-0.4,0.4-0.8,0.8-1.2,1.2c-0.1,0.1-0.3,0.2-0.4,0.3c-0.2,0.2-0.4,0.4-0.6,0.6h-0.1
		c-0.1,0.1-0.1,0.1-0.2,0.2h-0.1c0,0,0,0.1,0,0.1h-0.1v0.1h-0.1v0c-0.1,0-0.2,0.1-0.3,0.1v0h-0.7v0h-0.1v0h-0.1v-0.1h-0.1v0h-0.1
		v-0.1h-0.1v0h-0.1c-0.2-0.1-0.4-0.4-0.6-0.5c0,0-0.1-0.1-0.1-0.1v-0.1c-0.2-0.4-0.2-0.7-0.1-1.2v-0.3h0.1c0.1-0.9,0.2-1.8,0.4-2.7
		c-0.3-0.1-0.7-0.1-1.1-0.1h-2.2h-8.1c-0.1,0.1-0.1,0.2-0.1,0.4c-0.1,0.1,0,0.5-0.1,0.7c-0.1,0.3-0.1,0.8-0.2,1.1v0.3h-0.1v0.3h0
		v0.3h-0.1v0.4c-0.3,0.9-0.2,2-0.5,2.8c-0.1,0.5-0.1,1-0.2,1.4c-0.1,0.3-0.1,0.8-0.2,1.1v0.3h-0.1v0.3h0v0.4h-0.1v0.3h0v0.4h-0.1
		v0.3h-0.1v0.3h0v0.4h-0.1v0.3c-0.2,0.8-0.2,1.7-0.4,2.5c-0.1,0.6-0.1,1.2-0.2,1.8h-0.1v0.3h-0.1v0.3h0v0.4h-0.1v0.3h0v0.4
		c-0.2,0.8-0.2,1.7-0.4,2.5c0,0.4-0.1,0.7-0.1,1.1c-0.2,0.6-0.2,1.5-0.3,2.1c0,0.2,0,0.5-0.1,0.7c-0.1,0.4-0.1,1-0.3,1.4v0.3
		c-0.1,0.3-0.1,0.7-0.2,1v0.4c-0.1,0.4-0.2,0.9-0.2,1.3c0.3,0.1,0.7,0.1,1.1,0.1h2.2h8c0.1-0.1,0.1-0.2,0.1-0.4
		c0.1-0.1,0-0.5,0.1-0.7h0.1V237c0.2-0.5,0.1-1.2,0.3-1.7v-0.4h0.1v-0.3h0.1v-0.3h0v-0.3h0.1v-0.3h0v-0.3h0.1v-0.3h0.1v-0.4h0v-0.3
		c0.2-0.7,0.2-1.7,0.4-2.4c0-0.2,0-0.5,0.1-0.7h0.1v-0.3h0v-0.2h0.1c0-0.1,0-0.2,0-0.3h0.1v-0.1h0c0-0.1,0-0.2,0.1-0.3h0
		c0-0.1,0-0.2,0.1-0.3h0v-0.1h0.1c0.1-0.3,0.2-0.5,0.3-0.8h0v-0.1h0.1c0-0.1,0-0.1,0-0.2h0.1v-0.1h0v-0.1h0.1v-0.1h0.1v-0.1h0v-0.1
		h0.1v-0.1h0v-0.1h0.1v-0.1h0v-0.1h0.1V225c0,0,0.1,0,0.1-0.1c0-0.1,0-0.1,0-0.2c0,0,0.1,0,0.1,0c0-0.1,0.1-0.2,0.1-0.3
		c0,0,0.1,0,0.1,0v-0.1h0v-0.1c0,0,0.1,0,0.1-0.1c0,0,0-0.1,0-0.1c0,0,0.1-0.1,0.1-0.1v-0.1c0,0,0.1,0,0.1,0v-0.1
		c0,0,0.1-0.1,0.2-0.1v-0.1c0,0,0.1,0,0.1,0v-0.1c0.2-0.1,0.3-0.3,0.5-0.4v-0.1c0.1-0.1,0.2-0.2,0.3-0.2c0.2-0.2,0.3-0.3,0.5-0.5
		h0.1c0.1-0.1,0.3-0.3,0.4-0.4h0.1c0.1-0.1,0.3-0.3,0.4-0.4h0.1c0,0,0-0.1,0.1-0.1h0c0.1-0.1,0.1-0.1,0.2-0.2c0.1,0,0.1,0,0.2,0
		c0,0,0-0.1,0.1-0.1c0.1,0,0.2-0.1,0.3-0.1c0,0,0-0.1,0.1-0.1c0.1,0,0.1,0,0.2,0c0,0,0-0.1,0.1-0.1c0.1,0,0.2-0.1,0.3-0.1
		c0,0,0-0.1,0-0.1h0.1v0h0.1c0,0,0-0.1,0.1-0.1l0.3-0.1c0,0,0-0.1,0.1-0.1c0.1,0,0.1,0,0.2-0.1v0c0.1,0,0.1,0,0.2,0v0h0.2v-0.1h0.1
		v0h0.1v0h0.2v0h0.1v-0.1c0.1,0,0.2,0,0.3,0v0h0.1v-0.1c0.1,0,0.2,0,0.3,0v0c0.1,0,0.2,0,0.3-0.1v0h0.1v0h0.2v-0.1h0.1v0
		c0.7-0.1,1.4-0.3,2.1-0.4h2.7h5.2C447.2,218.4,448.3,218.5,449.1,218.4 M416.9,207.6h14.5c0.1,0.1,0.1,0.1,0.1,0.2
		c-0.1,0.1,0,0.2-0.1,0.4h-0.1v0.2h0v0.2h-0.1v0.3c-0.2,0.9-0.3,1.8-0.5,2.7v0.3c0,0.2-0.2,0.7-0.1,0.8c0,0.1,0,0.1,0.2,0.2v0h0.1
		c1.2-1.1,2.4-2.3,3.5-3.4c0.4-0.4,0.8-0.9,1.4-1.3c0-0.1,0.1-0.1,0.1-0.2h0.1c0,0,0.1-0.1,0.1-0.1c0.1,0,0.1,0,0.2,0
		c0,0,0-0.1,0-0.1h0.1v0h0.1v0c0.4-0.2,1-0.1,1.5-0.1h3h10.7c0,0,0.1,0.1,0.1,0.1v0.7l-1.7,11.5c-0.3,0.1-0.6,0.1-1,0.1H447h-8.5
		c-0.6,0.1-1.2,0.2-1.8,0.3v0h-0.1v0h-0.2v0.1h-0.1v0c-0.1,0-0.2,0-0.3,0v0.1H436v0h-0.2v0h-0.1v0.1c-0.1,0-0.2,0-0.3,0v0h-0.1v0
		h-0.1v0.1H435v0h-0.2v0c-0.1,0-0.1,0-0.2,0v0.1c-0.1,0-0.1,0-0.2,0c0,0,0,0.1-0.1,0.1c-0.1,0-0.1,0-0.2,0c0,0,0,0.1-0.1,0.1
		c-0.1,0-0.1,0-0.2,0c0,0,0,0.1,0,0.1c-0.1,0-0.2,0.1-0.3,0.1c0,0,0,0.1,0,0.1c-0.1,0-0.2,0.1-0.3,0.1c0,0,0,0.1-0.1,0.1h-0.1v0H433
		c-0.1,0.1-0.1,0.1-0.2,0.2h-0.1c-0.2,0.2-0.3,0.3-0.5,0.5h-0.1c-0.1,0.1-0.2,0.3-0.4,0.4h-0.1c-0.1,0.1-0.2,0.2-0.3,0.3
		c-0.1,0.1-0.3,0.2-0.4,0.3v0.1h-0.1c0,0-0.1,0.1-0.1,0.1c-0.1,0.1-0.2,0.1-0.2,0.2v0.1c-0.1,0-0.1,0.1-0.2,0.1v0.1
		c-0.1,0-0.1,0.1-0.2,0.1v0.1c0,0-0.1,0-0.1,0v0.1c0,0-0.1,0.1-0.1,0.1v0.1c0,0-0.1,0-0.1,0c0,0.1-0.1,0.2-0.1,0.3c0,0-0.1,0-0.1,0
		c0,0.1,0,0.1,0,0.2c0,0-0.1,0-0.1,0.1c-0.1,0.3-0.2,0.5-0.4,0.8h-0.1v0.1h0v0.1h-0.1c0,0.1-0.1,0.2-0.1,0.3H429c0,0.1,0,0.2,0,0.3
		h0v0.1h-0.1c0,0.1,0,0.2-0.1,0.2h0c0,0.2-0.1,0.3-0.1,0.5h-0.1v0.1h-0.1c0,0.1,0,0.2,0,0.3h-0.1v0.2h0c-0.2,1.7-0.5,3.4-0.7,5.1
		c-0.2,0.5-0.1,1.2-0.3,1.7c0,0.2,0,0.5-0.1,0.7c-0.1,0.3-0.1,0.8-0.2,1.1v0.3h0v0.3h-0.1v0.3h0v0.3c-0.1,0.3-0.1,0.7-0.2,1
		c-0.3,0.1-0.9,0.1-1.3,0.1h-2.8h-10.1c-0.1-0.3-0.1-0.8-0.1-1.2c0.1-0.1,0-0.5,0.1-0.7c0.1-0.3,0.1-0.8,0.2-1.1v-0.3h0v-0.3h0.1
		v-0.4h0.1v-0.3c0.2-0.8,0.2-1.7,0.4-2.5v-0.4h0v-0.3h0.1c0-0.4,0.1-0.7,0.1-1.1c0.3-0.9,0.2-2,0.5-2.8c0-0.2,0-0.5,0-0.7
		c0.2-0.6,0.2-1.5,0.4-2.1c0-0.2,0-0.5,0.1-0.7c0.2-0.5,0.1-1.2,0.3-1.8c0-0.2,0-0.5,0.1-0.7c0.1-0.4,0.1-1,0.2-1.4v-0.3
		c0.1-0.3,0.1-0.8,0.2-1.1v-0.3h0.1v-0.3h0.1v-0.4h0V218h0.1v-0.3h0v-0.3h0.1v-0.3h0v-0.4h0.1v-0.3c0.2-0.8,0.2-1.7,0.4-2.5
		c0-0.4,0.1-0.7,0.1-1.1h0v-0.3h0v-0.4c0.3-0.9,0.2-2,0.5-2.8c0-0.5,0-0.9,0-1.4C416.8,207.7,416.9,207.6,416.9,207.6"/>
	<path style="clip-path:url(#SVGID_00000078043915781397748060000010121050305982759841_);fill:#13110C;" d="M450.6,209.2l-1.3,9.2
		l0,0.2l-0.2,0c-0.6,0.1-1.3,0.1-2,0.1h0c-0.2,0-0.5,0-0.8,0h-5.2h-2.7l-1.9,0.4v0.1h-0.1v0h-0.2v0.1h-0.1v0l-0.2,0l-0.1,0v0l-0.2,0
		l0,0v0.1h-0.1v0l-0.2,0l-0.1,0v0.1h-0.1v0H435v0h-0.1v0.1h-0.2v0h-0.2l-0.2,0l0,0v0l-0.2,0l-0.1,0l-0.1,0.1l-0.2,0.1v0l-0.1,0.1h0
		v0h-0.2l-0.1,0.1l-0.2,0.1l0,0l-0.1,0.1l-0.1,0l-0.1,0l-0.1,0.1l-0.2,0.1l0,0l-0.1,0.1l-0.1,0l-0.1,0l-0.1,0.1l-0.1,0.1h0l-0.1,0.1
		h-0.1l-0.3,0.4l-0.1,0.1h-0.1l-0.3,0.4l-0.1,0.1h-0.1l-0.4,0.4l0,0l-0.2,0.2v0.1l-0.1,0.1l-0.4,0.4v0.1l-0.1,0v0.1l-0.1,0.1l0,0
		v0.1l-0.1,0.1v0.1l-0.1,0.1l-0.1,0l0,0.1l0,0.1l-0.1,0v0.2H429v0l-0.1,0.1l0,0l-0.1,0.2l0,0.1l-0.1,0l0,0.1l0,0.1l-0.1,0v0.2h-0.1
		v0.1h-0.1v0.1h0v0.1h-0.1v0.1h0v0.1h-0.1v0.1h0v0.1h-0.1v0.1h0v0.1H428l0,0l0,0.2v0.1h-0.1l-0.2,0.6l0,0.1v0.2h-0.1l0,0.1l0,0.2h0
		l0,0.1l0,0.2h0v0.1h-0.1l0,0.1l0,0.2h0v0.2h-0.1v0v0.3h-0.1l0,0.5l0,0.1c-0.1,0.4-0.1,0.8-0.2,1.2c0,0.4-0.1,0.8-0.2,1.2v0.3v0.3
		h-0.1v0.1v0.3h-0.1v0.1v0.2h0v0.1v0.2h0v0.1v0.3h-0.1v0.1v0.3h0v0.1v0.3h-0.1v0.1v0.3h-0.1v0.1l0,0.1c-0.1,0.2-0.1,0.5-0.1,0.8
		c0,0.3-0.1,0.6-0.1,0.9v0.3v0.3h-0.1v0.1c0,0.2,0,0.3-0.1,0.5c0,0.1,0,0.2,0,0.2c0,0.1-0.1,0.2-0.1,0.2l-0.1,0.1h-0.1h-8h-2.2h-0.2
		c-0.4,0-0.7,0-1-0.1l-0.1-0.1l0-0.2c0-0.2,0-0.5,0.1-0.7c0-0.2,0.1-0.4,0.1-0.6v-0.4l0-0.1c0-0.1,0.1-0.3,0.1-0.5
		c0-0.2,0.1-0.4,0.1-0.5v-0.3l0-0.1c0.1-0.2,0.1-0.4,0.1-0.7c0-0.2,0.1-0.5,0.1-0.7l0-0.7l0-0.1c0.1-0.3,0.1-0.7,0.2-1
		c0-0.4,0.1-0.8,0.2-1.1l0.1-1.1l0,0c0.1-0.4,0.1-0.8,0.2-1.2c0-0.4,0.1-0.9,0.2-1.2V227v-0.3h0.1v-0.1v-0.2h0v-0.1v-0.3h0.1V226
		v-0.2h0v-0.1v-0.3h0.1l0.2-1.6l0,0c0.1-0.3,0.1-0.8,0.2-1.2c0-0.4,0.1-0.9,0.2-1.3V221v-0.3h0.1v-0.1v-0.2h0v-0.1V220h0.1v-0.1
		v-0.2h0.1v-0.1v-0.3h0v-0.1v-0.3h0.1v-0.1v-0.3h0v-0.1v-0.2h0.1v-0.1l0-0.1c0-0.1,0.1-0.3,0.1-0.5c0-0.2,0.1-0.4,0.1-0.6l0.1-1.4
		l0,0c0.1-0.4,0.2-0.9,0.2-1.4c0-0.5,0.1-1,0.2-1.4v-0.4v-0.2h0V212v-0.3h0v-0.1v-0.2h0.1v-0.1l0-0.1c0-0.1,0.1-0.3,0.1-0.5
		c0-0.2,0.1-0.4,0.1-0.6c0-0.1,0-0.1,0-0.2c0-0.2,0-0.3,0.1-0.5c0-0.1,0-0.2,0-0.2c0-0.1,0.1-0.2,0.1-0.2l0.1-0.1h0.1h8.1h2.2h0.2
		c0.4,0,0.7,0,1,0.1l0.2,0.1l0,0.2l-0.4,2.7l0,0.2h0v0.1l0,0.1c-0.1,0.2-0.1,0.4-0.1,0.5c0,0.2,0,0.3,0.1,0.5l0,0.1v0l0,0l0,0
		c0.1,0.1,0.1,0.1,0.2,0.2h0c0.1,0.1,0.2,0.2,0.3,0.3h0h0.2v0h0.1v0.1h0.1v0h0.1v0h0.1v0.1h0.1v0h0.2l0.1,0l0.1,0v-0.1h0.1V214h0.2
		l0.1-0.1h0.1l0.1-0.1l0.1-0.1h0.1l0.5-0.5l0,0l0.4-0.3l1.2-1.2l0,0l1.6-1.5l0.8-0.8l0,0l0.6-0.3l0.1,0h9.2h2.6c0.1,0,0.2,0,0.2,0
		c0.4,0,0.8,0,1.1,0.1l0.2,0.1L450.6,209.2z M448.8,218.2l1.3-8.8c-0.2,0-0.4,0-0.7,0l-0.3,0h-2.6h-9.2l-0.5,0.3l-0.8,0.8l0,0
		l-1.6,1.5l-1.2,1.2l0,0l-0.4,0.3l-0.5,0.6l-0.1,0.1h-0.1l-0.1,0.1l-0.1,0.1H432l-0.1,0.1h0v0h-0.2l-0.1,0l-0.1,0v0.1h-0.3h-0.7
		h-0.3v-0.1h-0.1v0h-0.1v0h-0.1v-0.1H430v0h-0.1v-0.1c-0.2-0.1-0.3-0.3-0.4-0.4c0,0-0.1-0.1-0.1-0.1l-0.1-0.1l-0.1-0.1v-0.1v-0.1
		c-0.1-0.2-0.1-0.4-0.1-0.6c0-0.2,0-0.4,0.1-0.7v-0.3v-0.3h0.1l0.3-2.3c-0.2,0-0.4,0-0.6,0l-0.2,0h-2.2h-7.9c0,0,0,0.1,0,0.2
		l-0.1,0.2c0,0,0,0.1,0,0.2c0,0.1,0,0.3,0,0.4c0,0.1-0.1,0.3-0.1,0.5c0,0.2-0.1,0.4-0.1,0.5v0.3v0.3h-0.1v0.1v0.2h0v0.1v0.3h-0.1
		v0.1l0,0.1c-0.1,0.4-0.2,0.9-0.2,1.4c0,0.5-0.1,1-0.2,1.4l-0.1,1.4l0,0c0,0.1-0.1,0.3-0.1,0.5c0,0.2-0.1,0.4-0.1,0.5v0.3v0.3h0v0.1
		v0.2h-0.1v0.1v0.3h0v0.1v0.3h-0.1v0.1v0.3h0v0.1v0.3h-0.1v0.1v0.3h0v0.1v0.3h-0.1v0.1l0,0.1c-0.1,0.4-0.2,0.8-0.2,1.2
		c0,0.4-0.1,0.9-0.2,1.3l-0.2,1.8l0,0.2h0v0.1v0.3h0v0.1v0.3h-0.1v0.1v0.3H416v0.1v0.2h0v0.1l0,0.1c-0.1,0.4-0.1,0.8-0.2,1.2
		c0,0.4-0.1,0.9-0.2,1.3l-0.1,1.1l0,0c-0.1,0.3-0.1,0.7-0.2,1c0,0.4-0.1,0.7-0.2,1.1l-0.1,0.7l0,0.1c-0.1,0.2-0.1,0.4-0.1,0.7
		c0,0.2-0.1,0.5-0.1,0.7v0.3l0,0.1c0,0.1-0.1,0.3-0.1,0.5c0,0.2-0.1,0.3-0.1,0.5v0.4l0,0.1c0,0.2-0.1,0.4-0.1,0.6
		c0,0.1,0,0.3-0.1,0.4c0.2,0,0.4,0,0.6,0l0.2,0h2.2h7.9c0,0,0-0.1,0-0.2l0.1-0.2c0,0,0-0.1,0-0.2c0-0.1,0-0.3,0-0.4l0-0.1V237l0-0.1
		c0.1-0.2,0.1-0.5,0.1-0.8c0-0.3,0.1-0.6,0.1-0.9v-0.4v-0.3h0.1v-0.1v-0.3h0v-0.1v-0.3h0v-0.1v-0.3h0.1v-0.1v-0.3h0v-0.1v-0.3h0.1
		v-0.1v-0.2h0.1v-0.1v-0.3h0v-0.1l0-0.1c0.1-0.3,0.1-0.8,0.2-1.2c0-0.4,0.1-0.8,0.2-1.2l0-0.7l0-0.2h0v0v-0.3h0v-0.2h0.1l0-0.1
		l0-0.2h0v-0.1h0.1l0-0.1l0-0.2h0l0-0.1l0-0.2h0v-0.1h0.1l0.2-0.6l0-0.1V226h0.1v0l0-0.2v-0.1h0.1v-0.1h0v-0.1h0.1v-0.1h0v-0.1h0.1
		v-0.1h0v-0.1h0.1V225h0.1v-0.1h0v0l0.1-0.1l0-0.1l0-0.1l0.1-0.1l0,0l0.1-0.2l0-0.1l0.1,0V224h0v0l0.1-0.1l0,0l0,0l0.1-0.1l0,0v-0.1
		l0.1-0.1v-0.1l0.1-0.1l0,0v-0.1l0.1-0.1v-0.1l0.1-0.1l0.4-0.4v-0.1l0.1-0.1l0.3-0.2l0.4-0.5l0.1-0.1h0.1l0.3-0.4l0.1-0.1h0.1
		l0.3-0.4l0.1-0.1h0.1l0-0.1h0.1l0.1-0.1l0.1-0.1l0.1,0l0.1-0.1l0.2-0.1l0,0l0.1-0.1l0.1,0l0.1,0l0.1-0.1l0.2-0.1l0,0l0.1-0.1h0v0
		h0.2l0.1-0.1l0.2-0.1v0l0.1-0.1l0.1,0h0v-0.1l0.2,0l0,0v-0.1h0.2v-0.1h0.2v0h0.1v0h0.1v-0.1h0.1v0l0.2,0l0.1,0V219h0.1v0l0.2,0l0,0
		v-0.1l0.2,0l0.1,0v-0.1h0.1v0h0.2v-0.1h0.1v0l0.2,0l2.1-0.4l0,0h2.7h5.2c0.2,0,0.5,0,0.8,0C447.7,218.2,448.3,218.2,448.8,218.2
		 M416.7,207.5L416.7,207.5l0.1-0.2h0.1 M431.3,207.8h-14.2l0,1.2l0,0.1c-0.1,0.4-0.2,0.9-0.2,1.4c-0.1,0.5-0.1,1-0.2,1.4v0.4v0.3h0
		v0.1v0.2h-0.1l-0.1,0.9l0,0c-0.1,0.4-0.1,0.8-0.2,1.2c0,0.4-0.1,0.9-0.2,1.3v0.3v0.3h-0.1v0.1v0.3h0v0.1v0.2h-0.1v0.1v0.3h-0.1v0.1
		v0.2h0v0.1v0.3h-0.1v0.1v0.3h0v0.1v0.3h-0.1v0.1l0,0.1c0,0.1-0.1,0.3-0.1,0.5c0,0.2-0.1,0.4-0.1,0.5v0.3l0,0.1
		c-0.1,0.2-0.1,0.4-0.1,0.7c0,0.3-0.1,0.5-0.1,0.7l-0.1,0.7l0,0.1c-0.1,0.2-0.1,0.6-0.1,0.9c0,0.3-0.1,0.6-0.1,0.9l0,0.7l0,0.1
		c-0.1,0.3-0.1,0.7-0.2,1c0,0.4-0.1,0.7-0.2,1.1l0,0.7l0,0.1c-0.1,0.4-0.2,0.9-0.2,1.4c-0.1,0.5-0.1,1-0.2,1.4l-0.1,1.1l0,0.2h0v0.1
		v0.3h0v0.1l0,0.1c-0.1,0.4-0.1,0.8-0.2,1.2c0,0.4-0.1,0.9-0.2,1.3v0.3v0.3h-0.1v0.1v0.2h0v0.1v0.3h-0.1v0.1l0,0.1
		c0,0.1-0.1,0.3-0.1,0.5c0,0.2-0.1,0.4-0.1,0.6v0c0,0.1,0,0.1,0,0.2h0c0,0.2,0,0.3-0.1,0.5v0.1c0,0.3,0,0.5,0,0.7h10h2.8
		c0,0,0.2,0,0.3,0c0.3,0,0.6,0,0.8,0c0-0.1,0-0.3,0.1-0.4c0-0.2,0.1-0.3,0.1-0.4v-0.3v-0.3h0v-0.1v-0.3h0.1v-0.1v-0.3h0.1v-0.1
		l0-0.1c0-0.1,0.1-0.3,0.1-0.5c0-0.2,0.1-0.4,0.1-0.6l0-0.7l0-0.1c0.1-0.2,0.1-0.5,0.1-0.8c0-0.3,0.1-0.6,0.2-0.9l0.7-5.1l0-0.2h0
		v-0.2h0.1l0-0.1l0-0.2h0v-0.1h0.1l0.1-0.3l0-0.2h0l0,0l0-0.2h0V227h0.1l0-0.1l0-0.2h0.1l0-0.1l0-0.1v-0.2h0v-0.1h0.1l0.3-0.6
		l0.1-0.1l0-0.1l0-0.1l0.1-0.1h0l0.1-0.2l0-0.1l0.1,0v-0.1l0.1-0.1l0,0v-0.1l0.1-0.1v-0.1l0.1-0.1l0,0v-0.1l0.1-0.1l0,0v-0.1
		l0.1-0.1l0.2-0.2l0.1-0.1l0,0v-0.1l0.1-0.1l0.4-0.3l0.2-0.3l0.1-0.1h0.1l0.3-0.3l0.1-0.1h0.1l0.4-0.4l0.1-0.1h0.1l0.1-0.1l0-0.1
		v-0.1h0.2l0.1-0.1l0.2-0.1l0,0l0.1-0.1l0.2-0.1l0,0l0.1-0.1l0.1,0l0.1,0l0.1-0.1l0.1,0l0.1,0l0.1-0.1l0.1,0l0,0v0l0.2,0l0,0v-0.1
		h0.2v0h0.1v-0.1h0.2v0h0.1v0l0.2,0l0.1,0v-0.1h0.1v0h0.2v0h0.1v0l0.2,0l0.1,0v-0.1h0.1v-0.1h0.2v0h0.1v0l0.2,0l1.8-0.3l0,0h8.5h2.3
		l0.2,0c0.2,0,0.4,0,0.6,0l1.7-11.3v-0.5h-10.5h-3c0,0-0.2,0-0.3,0c-0.3,0-0.7,0-0.9,0v0.1h-0.1v0.1h-0.2l0,0.1l-0.1,0l-0.1,0l0,0.1
		l-0.1,0.1h-0.1l-0.1,0.1l-0.1,0.1c-0.3,0.2-0.6,0.6-0.9,0.9c-0.1,0.1-0.2,0.3-0.4,0.4l-3.5,3.4l-0.2,0.1h-0.1h-0.3v-0.1
		c0,0,0,0,0,0c-0.1-0.1-0.1-0.1-0.1-0.2l0,0c0-0.1,0-0.2,0-0.4c0-0.2,0.1-0.4,0.1-0.5v-0.3l0,0l0.4-2.7v-0.3v-0.3h0.1v-0.2h0V208
		h0.1C431.3,207.9,431.3,207.9,431.3,207.8 M416.9,207.3h14.5h0.1l0.1,0.1c0,0,0,0,0,0c0,0.1,0.1,0.1,0.1,0.3l0,0.1l-0.1,0.1l0,0.1
		c0,0.1,0,0.1,0,0.2l0,0.1v0v0.3h-0.1v0.2h0v0l0,0l-0.5,2.7v0.3l0,0.1c0,0.1-0.1,0.3-0.1,0.5c0,0.1,0,0.1,0,0.1l0,0.1l0,0l3.4-3.3
		c0.1-0.1,0.2-0.2,0.4-0.4c0.3-0.3,0.6-0.6,1-0.9l0.1-0.2l0.1-0.1h0.1l0,0l0.1-0.1l0.1,0l0.1-0.1h0v0h0.2l0.1,0
		c0.3-0.1,0.8-0.1,1.3-0.1c0.1,0,0.1,0,0.3,0h3h10.7h0.1l0.1,0.1l0,0.1l0,0c0,0,0.1,0.2,0,0l0,0l0.1,0.1v0.1v0.7l0,0l-1.7,11.5
		l0,0.1l-0.1,0.1c-0.3,0.1-0.6,0.1-0.9,0.1c0,0-0.1,0-0.2,0H447h-8.4l-1.6,0.3v0.1h-0.1v0h-0.1v0h-0.1v0l-0.2,0l-0.1,0v0.1h-0.1v0
		h-0.2v0.1H436v0l-0.2,0l-0.1,0v0.1h-0.1v0h-0.2v0h-0.1v0.1h-0.2l-0.2,0h0v0l-0.2,0l-0.1,0l-0.1,0.1l-0.1,0l-0.1,0l-0.1,0.1l-0.1,0
		l-0.1,0l-0.1,0.1l-0.2,0.1l0,0l-0.1,0.1l-0.2,0.1l0,0l-0.1,0.1v0h-0.2l-0.1,0.1l-0.1,0.1h-0.1l-0.4,0.4l-0.1,0.1h-0.1l-0.3,0.3
		l-0.1,0.1h-0.1l-0.2,0.2l0,0l-0.3,0.3v0.2h-0.2l0,0l-0.1,0.1l-0.2,0.1v0.1l-0.1,0.1l0,0v0.1l-0.1,0.1l0,0v0.1l-0.1,0.1v0.1
		l-0.1,0.1l0,0v0.1l-0.1,0.1l0,0l-0.1,0.2l0,0.1l-0.1,0l0,0.1l0,0.1l-0.1,0.1l0,0l-0.3,0.7l0,0.1v0.2h0v0.1h-0.1l0,0.1l-0.1,0.2h0
		l0,0.1l0,0.2h0v0.1h-0.1l0,0l0,0.2h0l-0.1,0.3l0,0.2h0v0.1h-0.1l0,0.1l0,0.2h0v0.2h-0.1l-0.7,4.9l0,0c-0.1,0.2-0.1,0.5-0.1,0.8
		c0,0.3-0.1,0.6-0.2,0.9l0,0.7l0,0.1c0,0.1-0.1,0.3-0.1,0.5c0,0.2-0.1,0.4-0.1,0.5v0.3v0.2h0v0.1v0.3h-0.1v0.1v0.3h-0.1v0.1l0,0.1
		c0,0.1-0.1,0.3-0.1,0.4c0,0.2,0,0.4-0.1,0.6l0,0.1l-0.1,0.1c-0.3,0.1-0.7,0.1-1.1,0.1c-0.1,0-0.1,0-0.3,0h-2.8h-10.1h-0.1l-0.1-0.1
		c-0.2-0.3-0.1-0.7-0.1-1.1c0-0.1,0-0.1,0-0.2l0.1-0.2c0,0,0-0.1,0-0.2c0-0.1,0-0.3,0-0.4c0-0.1,0.1-0.3,0.1-0.5
		c0-0.2,0.1-0.4,0.1-0.5v-0.3v-0.3h0v-0.1V236h0.1v-0.1v-0.2h0v-0.1l0-0.1c0.1-0.4,0.1-0.8,0.2-1.2c0-0.4,0.1-0.9,0.2-1.2v-0.4v-0.3
		h0v-0.1v-0.3h0.1l0.1-0.9l0,0c0.1-0.4,0.2-0.9,0.2-1.4c0.1-0.5,0.1-1,0.2-1.4l0-0.7l0-0.1c0.1-0.3,0.1-0.7,0.2-1
		c0-0.4,0.1-0.7,0.2-1.1l0-0.7l0-0.1c0.1-0.2,0.1-0.5,0.1-0.8c0-0.3,0.1-0.6,0.2-0.9l0-0.7l0-0.1c0.1-0.2,0.1-0.4,0.1-0.7
		c0-0.2,0.1-0.5,0.1-0.7v-0.3l0-0.1c0-0.1,0.1-0.3,0.1-0.5c0-0.2,0.1-0.4,0.1-0.5v-0.3v-0.2h0v-0.1v-0.3h0.1v-0.1v-0.3h0V218v-0.3
		h0.1v-0.1v-0.2h0v-0.1V217h0.1v-0.1v-0.2h0.1v-0.1v-0.3h0v-0.1l0-0.1c0.1-0.4,0.1-0.8,0.2-1.2c0-0.4,0.1-0.9,0.2-1.3l0.1-1.1l0-0.2
		h0v-0.1V212h0.1v-0.1l0-0.1c0.1-0.4,0.2-0.9,0.2-1.4c0-0.5,0.1-1,0.2-1.4l0.1-1.4l0.1-0.2c0,0-0.1,0.3,0,0l0,0"/>
	
		<path style="clip-path:url(#SVGID_00000078043915781397748060000010121050305982759841_);fill-rule:evenodd;clip-rule:evenodd;fill:#13110C;" d="
		M458.7,209.1c-0.1,0.1-0.2,0-0.4,0.1v0.1c-0.1,0-0.1,0-0.2,0v0.1h-0.2v0.1c-0.1,0-0.2,0.1-0.3,0.1v0h-0.1v0.1c-0.1,0-0.1,0-0.2,0
		c0,0.1-0.1,0.1-0.1,0.2h-0.1c-0.1,0.1-0.1,0.2-0.2,0.3h-0.1c-0.1,0.1-0.2,0.2-0.3,0.4c-0.1,0-0.1,0.1-0.2,0.1v0.1
		c0,0-0.1,0.1-0.2,0.1c0,0.1,0,0.1,0,0.2c0,0-0.1,0-0.1,0v0.1H456c0,0.1,0,0.1-0.1,0.2h0v0.2h0v0.2h-0.1v0.2h-0.1v0.2h0v0.2h-0.1
		v0.2h0v0.4c-0.1,0.3-0.1,0.8-0.2,1.1v0.3h0v0.4h0v0.4h-0.1c0,0.2,0,0.5,0,0.7h-0.1v0.4h-0.1v0.4c-0.2,0.6-0.2,1.4-0.4,2.1
		c0,0.2,0,0.5,0,0.7h-0.1c0,0.3-0.1,0.7-0.1,1.1c-0.2,0.6-0.3,2.1-0.1,2.7c0.1,0.3,0.3,0.6,0.4,1c0,0,0.1,0,0.1,0.1v0.1h0
		c0,0,0,0.1,0.1,0.1c0,0,0.1,0,0.1,0.1v0.1c0.1,0,0.1,0.1,0.2,0.1v0.1c0,0,0.1,0.1,0.1,0.1v0.1h0.1c0,0.1,0.1,0.1,0.1,0.2h0.1
		c0,0,0,0.1,0,0.1c0.1,0,0.2,0.1,0.3,0.1c0,0,0,0.1,0,0.1c0.1,0,0.2,0.1,0.3,0.1c0,0,0,0.1,0,0.1c0.3,0.1,0.7,0.2,1,0.4h3h7.5h2.3
		c0.4,0,0.8,0,1.1,0.1h0.2v0.1c0.1,0,0.1,0,0.2,0v0.1h0.2v0.1c0.1,0,0.2,0.1,0.3,0.1v0h0.1v0.1c0.1,0,0.1,0,0.2,0
		c0,0.1,0.1,0.1,0.1,0.2c0.1,0.1,0.2,0.2,0.4,0.3v0.1c0,0,0.1,0.1,0.1,0.1v0.1c0.1,0,0.1,0.1,0.2,0.1c0,0.1,0,0.2,0.1,0.2h0v0.1h0.1
		c0.3,0.6,0.2,1.9,0,2.5v0.4h-0.1v0.4h0c0,0.2,0,0.4-0.1,0.6h-0.1v0.1h0v0.1c0,0-0.1,0-0.1,0.1c0,0.1,0,0.1-0.1,0.2
		c0,0-0.1,0-0.1,0.1v0.1c0,0-0.1,0.1-0.2,0.1v0.1c-0.1,0-0.1,0.1-0.2,0.1v0.1h0c0,0-0.1,0.1-0.1,0.1h-0.1v0.1h-0.1
		c0,0,0,0.1-0.1,0.1h-0.1v0H472v0.1h-0.1v0.1h-0.1v0h-0.1c-1.1,0.4-3.1,0.3-4.5,0.3h-1.9V233h-0.1c0,0,0-0.1,0-0.1
		c-0.1,0-0.2-0.1-0.3-0.1c-0.1-0.2-0.3-0.4-0.5-0.6v-0.1h0c-0.1-0.2,0.1-0.2-0.1-0.3v0H453c0,0.1-0.1,0.1-0.1,0.1v0.1h0v0.4h-0.1
		v0.3h0v0.4h-0.1v0.4c-0.1,0.5-0.2,1-0.2,1.6v0.6h0c0,0.2,0.1,0.4,0.1,0.6h0v0.1h0.1c0,0.1,0,0.2,0,0.3h0.1c0,0.1,0,0.1,0,0.2h0.1
		v0.1c0,0,0.1,0,0.1,0.1c0,0.1,0,0.1,0,0.2h0.1c0,0.1,0,0.1,0,0.2c0,0,0.1,0,0.1,0v0.1c0,0,0.1,0.1,0.1,0.1v0.1
		c0.1,0.1,0.1,0.1,0.2,0.2v0.1h0.1c0,0.1,0.1,0.1,0.1,0.2c0.1,0,0.2,0.1,0.3,0.1c0,0,0,0.1,0.1,0.1c0.1,0,0.2,0.1,0.3,0.1
		c0,0,0,0.1,0.1,0.1h0.1v0.1c0.1,0,0.1,0,0.2,0v0.1h0.2v0.1h0.1v0h0.1v0.1h0.2v0h0.2v0h0.2v0.1c0.5,0,1,0,1.6,0.1h3.2h13.4h4.6
		c0.6,0,1.4,0.1,1.9-0.1h0.4v-0.1c0.2,0,0.4-0.1,0.6-0.1v-0.1h0.1v0c0.1,0,0.2,0,0.3-0.1v-0.1c0.1,0,0.1,0,0.2,0v-0.1h0.1
		c0,0,0-0.1,0-0.1c0.1,0,0.1,0,0.2-0.1c0,0,0-0.1,0-0.1c0.1,0,0.1,0,0.2,0c0.1-0.1,0.1-0.2,0.2-0.3h0.1c0.1-0.1,0.2-0.2,0.3-0.4
		c0.1,0,0.1-0.1,0.2-0.1v-0.1c0,0,0.1-0.1,0.2-0.1c0-0.1,0-0.1,0-0.2c0,0,0.1,0,0.1-0.1c0-0.1,0-0.1,0.1-0.2h0c0-0.1,0-0.1,0.1-0.2
		h0c0-0.1,0-0.2,0.1-0.3h0c0-0.1,0-0.2,0.1-0.3h0.1c0-0.1,0-0.3,0-0.4h0.1v-0.3c0.1-0.4,0.1-1,0.3-1.5c0-0.5,0.1-1,0.1-1.5h0V232
		h0.1v-0.4c0.2-0.8,0.2-1.8,0.4-2.6v-0.4h0v-0.4h0.1v-0.4h0v-0.4h0.1v-0.4h0v-0.4h0.1v-0.7c0-0.5,0-0.7-0.2-1V225h0v-0.1h-0.1v-0.1
		h0c0-0.1,0-0.2-0.1-0.3h0c0-0.1,0-0.1-0.1-0.2h-0.1c0-0.1,0-0.2,0-0.2c0,0-0.1,0-0.1-0.1v-0.1c-0.1,0-0.1-0.1-0.2-0.1v-0.1h0
		c-0.1-0.1-0.1-0.1-0.2-0.2h-0.1c-0.1-0.1-0.1-0.1-0.2-0.2H484c0,0,0-0.1-0.1-0.1h-0.1c0,0-0.1-0.1-0.1-0.1h-0.1c0,0,0-0.1,0-0.1
		c-0.1,0-0.2-0.1-0.3-0.1c0,0,0-0.1,0-0.1c-0.3-0.1-0.6-0.2-1-0.4h-3.4h-6.8h-2.2c-0.4,0-0.9,0-1.2,0c-0.2,0-0.4,0-0.7,0v-0.1
		c-0.1,0-0.1,0-0.2,0v-0.1h-0.2V222c-0.1,0-0.2-0.1-0.3-0.1v0h-0.1v-0.1c-0.1,0-0.1,0-0.2-0.1l0-0.1c-0.1-0.1-0.3-0.2-0.4-0.4v-0.1
		c0,0-0.1-0.1-0.1-0.1V221c-0.1,0-0.1-0.1-0.2-0.1c0-0.1,0-0.2-0.1-0.3h0v-0.1h-0.1c0-0.1,0-0.2,0-0.3h-0.1V220
		c-0.1-0.2-0.1-1,0-1.2h0v-0.3h0.1v-0.4h0v-0.4h0.1v-0.3h0c0-0.1,0-0.3,0.1-0.4h0.1v-0.2h0v-0.2h0.1v-0.1c0,0,0.1,0,0.1,0
		c0-0.1,0-0.1,0-0.2c0,0,0.1,0,0.1-0.1v-0.1c0,0,0.1,0,0.1-0.1V216c0.1,0,0.1-0.1,0.2-0.1v-0.1c0.1-0.1,0.2-0.1,0.2-0.2
		c0,0,0-0.1,0.1-0.1h0.1c0,0,0.1-0.1,0.1-0.1h0.1v-0.1c0.1,0,0.1,0,0.2,0v-0.1c0.1,0,0.2,0,0.3,0v-0.1h0.1V215h0.2v0h0.2v-0.1h2.1
		h2.4c0.4,0,0.8,0,1.2,0.1v0c0.1,0,0.1,0,0.2,0.1v0.1c0.2,0.1,0.3,0,0.5,0.2h0.1v0.1h0c0.1,0.2,0.1,0.7,0.3,0.8h11.2
		c0,0,0-0.1,0-0.1c0.1-0.1,0-0.3,0.1-0.5h0.1v-0.4h0v-0.4h0.1v-0.4h0v-0.4h0.1v-0.3h0v-0.4c0.2-0.6,0-1.2-0.1-1.7
		c0-0.2-0.1-0.4-0.1-0.6h-0.1v-0.1h0V211c0,0-0.1,0-0.1-0.1c0-0.1,0-0.1-0.1-0.2c0,0-0.1-0.1-0.2-0.1v-0.1c0,0-0.1,0-0.1,0v-0.1
		c-0.2-0.2-0.4-0.4-0.6-0.6c-0.1,0-0.2-0.1-0.3-0.1c0,0,0-0.1,0-0.1c-0.1,0-0.2-0.1-0.3-0.1c0,0,0-0.1-0.1-0.1H485v0
		c-0.3-0.1-0.5-0.2-0.8-0.3h-1.9h-4.9H458.7 M458.5,207.6h19.2h6.7v0.1h0.2v0h0.2v0h0.2v0.1h0.1v0.1h0.1v0c0.1,0,0.1,0,0.2,0.1v0
		h0.2v0.1h0.1v0.1h0.1c0,0,0,0.1,0.1,0.1l0.3,0.1c0,0,0,0.1,0.1,0.1c0.1,0,0.2,0.1,0.3,0.1c0,0,0,0.1,0,0.1c0.1,0,0.2,0.1,0.3,0.1
		c0.1,0.1,0.2,0.3,0.4,0.4c0.1,0.1,0.3,0.2,0.4,0.4v0.1c0,0,0.1,0,0.1,0.1v0.1c0.1,0,0.1,0.1,0.2,0.1v0.1c0,0,0.1,0,0.1,0.1v0.1
		c0,0,0.1,0,0.1,0c0,0.1,0.1,0.2,0.1,0.3c0,0,0.1,0,0.1,0v0.1h0.1c0,0.1,0,0.1,0,0.2h0.1c0.1,0.3,0.1,0.7,0.2,1h0v0.2h0.1v0.2h0.1
		v0.4h0v0.6c-0.1,0.4-0.1,1-0.3,1.5v0.4h0v0.4h-0.1v0.4h0v0.4c-0.1,0.5-0.1,1-0.2,1.6c-0.3,0.1-0.8,0.1-1.3,0.1h-2.7h-9.8
		c-0.1-0.3-0.1-0.8-0.1-1.2c-0.4-0.2-1.1-0.1-1.7-0.1H469c-0.2,0.1-0.4,0.1-0.7,0.2c0,0-0.1,0.1-0.1,0.1h0v0.1
		c-0.1,0-0.1,0.1-0.2,0.1c0,0.1-0.1,0.2-0.1,0.3h0c-0.1,0.2-0.1,0.3-0.2,0.5v0.3h-0.1v0.4c-0.1,0.2-0.2,1-0.1,1.3h0.1v0.1h0v0.1h0.1
		v0.1c0,0,0.1,0,0.1,0c0.1,0.2,0.1,0.2,0.3,0.3v0.1c0.1,0,0.2,0,0.3,0v0.1h0.2v0.1h0.2c0.3,0.1,0.7,0,1.1,0h2h10.6v0.1h0.2v0h0.2
		v0.1h0.2v0h0.1v0.1h0.2v0c0.1,0,0.1,0,0.2,0.1v0h0.2v0.1h0.1v0.1h0.1c0,0,0,0.1,0,0.1c0.1,0,0.2,0.1,0.3,0.1v0.1c0,0,0.1,0,0.2,0
		c0,0,0,0.1,0,0.1h0.1c0,0,0,0.1,0,0.1h0.1c0,0.1,0.1,0.1,0.1,0.2h0.1c0.3,0.2,0.5,0.5,0.8,0.7v0.1c0,0,0.1,0.1,0.1,0.1v0.1
		c0,0,0.1,0,0.1,0v0.1c0.1,0,0.1,0.1,0.2,0.1v0.1h0.1v0.1h0v0.1h0.1c0,0.1,0,0.1,0,0.2h0.1v0.2h0v0.1h0.1c0,0.1,0,0.2,0,0.3h0.1v0.1
		h0.1c0,0.1,0,0.2,0,0.4h0.1v0.2h0v0.2h0.1v0.2h0v0.9c0,0.5,0,1-0.1,1.4v0.4h-0.1v0.4h0v0.4c-0.1,0.4-0.1,1-0.3,1.5v0.4
		c-0.2,0.7-0.2,1.5-0.4,2.2c-0.1,0.5-0.1,1-0.2,1.5h0v0.4h-0.1v0.4h0v0.4h-0.1v0.4c-0.1,0.4-0.3,0.9-0.4,1.3h-0.1
		c0,0.1-0.1,0.2-0.1,0.3h0c0,0.1,0,0.1-0.1,0.2c0,0-0.1,0-0.1,0.1c0,0.1,0,0.1-0.1,0.2h0c0,0.1,0,0.1-0.1,0.2c0,0-0.1,0-0.1,0.1v0.1
		c-0.1,0-0.1,0.1-0.1,0.1v0.1c0,0-0.1,0-0.1,0v0.1h-0.1c-0.1,0.1-0.1,0.1-0.2,0.2h-0.1c-0.1,0.1-0.1,0.2-0.2,0.2h-0.1
		c-0.1,0.1-0.1,0.2-0.2,0.3h-0.1c-0.1,0.1-0.1,0.2-0.2,0.3h-0.1c0,0,0,0.1,0,0.1c-0.1,0-0.2,0.1-0.3,0.1c0,0,0,0.1,0,0.1
		c-0.2,0.1-0.3,0.1-0.5,0.2v0h-0.1v0.1h-0.2v0h-0.1v0.1h-0.1v0c-0.1,0-0.3,0-0.4,0.1c-0.7,0.2-1.5,0.2-2.4,0.2h-4.5h-13h-4
		c-0.6,0-1.3,0-1.8-0.1h-0.3c-0.4-0.1-0.8-0.3-1.3-0.4V240H454v0h-0.1c0,0,0-0.1-0.1-0.1c-0.1,0-0.2-0.1-0.3-0.1c0,0,0-0.1-0.1-0.1
		c-0.1,0-0.2-0.1-0.3-0.1c0,0,0-0.1-0.1-0.1c-0.1,0-0.2-0.1-0.3-0.1c0,0,0-0.1,0-0.1c-0.1-0.1-0.2-0.2-0.3-0.3v-0.1
		c-0.1-0.1-0.2-0.1-0.3-0.2v-0.1c0,0-0.1-0.1-0.1-0.1v-0.1c0,0-0.1,0-0.1,0v-0.1c0,0-0.1-0.1-0.2-0.1V238c0,0-0.1,0-0.1-0.1
		c0-0.1-0.1-0.2-0.1-0.3c0,0-0.1,0-0.1-0.1c-0.1-0.1-0.1-0.3-0.2-0.5h0V237h-0.1l0-0.3h-0.1v-0.1h0v-0.2h-0.1v-0.2H451V236h0v-0.2
		h-0.1v-1.4c0.1-0.4,0.1-1,0.3-1.4v-0.4h0.1c0-0.2,0-0.5,0-0.7c0.1-0.5,0.1-1,0.2-1.6c0.3-0.2,0.9-0.1,1.3-0.1h2.8h10.1
		c0,0,0.2,0.2,0.2,0.2v1.1c0.3,0.2,1,0.1,1.5,0.1h3.3v0h0.3v-0.1h0.2v0h0.1v-0.1h0.1c0.1-0.1,0.2-0.2,0.3-0.3V231c0,0,0.1,0,0.1,0
		v-0.1h0v-0.1h0.1v-0.2h0v-0.4h0.1v-0.4h0.1v-0.4c0.1-0.2,0.2-1,0.1-1.3H472V228h0v-0.1h-0.1v-0.1c0,0-0.1,0-0.1,0
		c-0.1-0.2-0.1-0.2-0.3-0.3c-0.2-0.2-0.8-0.2-1.3-0.2h-2.6h-7.4c-1.1,0-2.8,0.1-3.6-0.2V227c-0.1,0-0.2,0-0.3,0v-0.1h-0.1v0h-0.2
		v-0.1H456v0h-0.1v-0.1h-0.1c0,0,0-0.1-0.1-0.1c-0.1,0-0.2-0.1-0.3-0.1c0,0,0-0.1-0.1-0.1c-0.1,0-0.2-0.1-0.3-0.1c0,0,0-0.1,0-0.1
		c-0.1,0-0.2-0.1-0.3-0.1c0,0,0-0.1,0-0.1c-0.1-0.1-0.2-0.2-0.3-0.3v-0.1c-0.1-0.1-0.2-0.1-0.3-0.2v-0.1c-0.1,0-0.1-0.1-0.2-0.1
		v-0.1c0,0-0.1,0-0.1,0V225c-0.1,0-0.1-0.1-0.2-0.1v-0.1h-0.1v-0.1h0v-0.1h-0.1v-0.1c0,0-0.1,0-0.1,0c-0.1-0.4-0.3-0.7-0.5-1.1
		c-0.3-0.8-0.2-2.4,0.1-3.2v-0.4c0.1-0.3,0.1-0.7,0.2-1.1c0-0.2,0-0.5,0.1-0.7c0.2-0.6,0.2-1.4,0.4-2.1c0.1-0.5,0.1-0.9,0.2-1.4
		c0.1-0.3,0.1-0.8,0.2-1.1V213h0.1v-0.4h0v-0.3h0.1v-0.3h0v-0.2c0.1-0.2,0.2-0.6,0.3-0.8c0-0.1,0-0.2,0.1-0.4h0c0-0.1,0-0.1,0.1-0.2
		h0c0-0.1,0-0.1,0.1-0.2c0,0,0.1,0,0.1,0c0-0.1,0-0.1,0-0.2c0,0,0.1,0,0.1-0.1v-0.1c0,0,0.1,0,0.1-0.1v-0.1c0,0,0.1-0.1,0.2-0.1
		v-0.1c0,0,0.1,0,0.1,0v-0.1h0c0-0.1,0.1-0.1,0.2-0.2h0.1c0.1-0.1,0.1-0.2,0.2-0.2h0.1c0.1-0.1,0.1-0.2,0.2-0.3h0.1l0.2-0.3h0.1
		c0,0,0-0.1,0-0.1c0.1,0,0.1,0,0.2-0.1v0h0.1v0c0.1,0,0.2-0.1,0.3-0.1V208h0.1V208c0.1,0,0.1,0,0.2,0v-0.1h0.1v0
		c0.1,0,0.1,0,0.2-0.1v-0.1h0.2v0C458.2,207.6,458.3,207.7,458.5,207.6"/>
	<path style="clip-path:url(#SVGID_00000078043915781397748060000010121050305982759841_);fill:#13110C;" d="M452.7,231.7
		L452.7,231.7L452.7,231.7C452.7,231.7,452.7,231.7,452.7,231.7 M458.4,208.9C458.5,208.9,458.5,208.9,458.4,208.9l0.2,0.2v-0.3
		h18.7h4.9h1.9l0.1,0l0.8,0.3l0.1,0h0.1l0.1,0.1l0,0l0.2,0.1l0.1,0.1l0,0l0.2,0.1l0.1,0.1l0.6,0.6l0.1,0.1v0.1l0.1,0v0.1l0,0
		l0.1,0.2l0,0.1l0.1,0.1v0h0v0.1h0l0,0.2l0.1,0.5c0.1,0.3,0.2,0.6,0.2,0.9c0,0.3,0,0.6-0.1,1v0.3v0.3h0v0.1v0.2h-0.1v0.1v0.3h0v0.1
		v0.3h-0.1v0.1v0.3h0v0.1v0.2h-0.1c0,0.1,0,0.3-0.1,0.4l0,0.1l-0.1,0.1h-0.2h-11.2l-0.1,0c-0.2-0.1-0.3-0.4-0.3-0.7l0-0.1h-0.1v-0.3
		l0,0c0,0-0.1,0-0.1,0h0c-0.1,0-0.2,0-0.2-0.1l-0.2-0.1v0l0,0l-0.2,0v0l-0.9,0v0h-2.4H469v0h-0.3v0.1h-0.2v0h-0.1v0l-0.2,0l-0.1,0v0
		l-0.2,0l0,0v0.1h-0.2l0,0l-0.1,0.1h-0.1l0,0l-0.2,0.1v0.1l-0.1,0.1l-0.1,0.1v0.1l-0.1,0.1v0.1l-0.1,0.1l0,0.1l0,0.1l-0.1,0v0.2h0
		v0.1h-0.1v0.2h-0.1l0,0.2l0,0.2h0v0.1v0.3h-0.1v0.2v0.2h0v0.1v0.3h-0.1v0.1v0.3h-0.1c0,0.1,0,0.2,0,0.3c0,0.3,0,0.5,0.1,0.6l0,0.1
		h0l0,0.2l0,0.1h0.1v0.1h0l0,0.2l0,0.1l0.1,0l0.1,0.1v0.1l0,0l0.1,0.1v0.1l0.3,0.3l0.1,0.1l0.1,0l0.2,0h0.1v0.1l0.1,0l0.1,0h0.2v0.1
		h0l0.2,0v0l0.4,0l0,0c0.2,0.1,0.5,0.1,0.8,0l0.3,0h2.2h6.8h3.4l0.1,0l1,0.4l0.1,0.1l0,0l0.2,0.1l0.1,0.1h0.1l0.1,0.1l0,0h0.1
		l0.1,0.1h0.1l0.1,0.1l0.1,0.1h0.1l0.1,0.1l0.1,0.1h0.2v0.2l0,0l0.1,0.1v0.1l0.1,0l0,0.1l0,0h0l0,0.2l0,0h0.1l0,0.2l0,0.1h0.1v0.1
		h0.1v0.1h0v0.3v0.1c0.1,0.2,0.1,0.3,0.1,0.5c0,0.2,0,0.4,0,0.6v0.7v0.3h-0.1v0.1v0.3h0v0.1v0.3h-0.1v0.1v0.3h0v0.2v0.2h-0.1v0.1
		v0.3h-0.1v0.2l0,0.1c-0.1,0.4-0.1,0.8-0.2,1.2c0,0.4-0.1,0.9-0.2,1.3v0.4v0.3h-0.1v0.1v0.3h-0.1l-0.1,1.3l0,0
		c-0.1,0.2-0.1,0.4-0.1,0.7c0,0.3-0.1,0.5-0.1,0.7v0.3v0.3h-0.1l0,0.2l0,0.2h-0.1l0,0.1l0,0.2h-0.1l0,0l0,0.2H484l0,0l0,0.2h-0.1v0
		l0,0.1l-0.1,0.1l0,0.1l-0.1,0.1l0,0v0.1l-0.1,0.1l-0.1,0.1l-0.3,0.3l-0.1,0.1h-0.1l-0.1,0.2l-0.1,0.1l-0.1,0l0,0l-0.1,0.1l-0.1,0
		l-0.1,0l-0.1,0.1h0l-0.2,0l0,0v0.1l-0.2,0l-0.1,0v0.1h-0.1v0l-0.2,0l-0.4,0.1v0.1h-0.3h-0.3c-0.4,0.1-0.9,0.1-1.4,0.1
		c-0.2,0-0.3,0-0.5,0h-4.6h-13.4h-3.2h0l-1.6,0l-0.2,0v0h-0.2v0h-0.2V239h-0.2v0h-0.1v-0.1h-0.2v-0.1h-0.2v-0.1l0,0l-0.2,0h0
		l-0.1-0.1l0,0l-0.2-0.1l-0.1-0.1l0,0l-0.2-0.1l-0.1-0.1l0,0h-0.2V238l-0.1-0.1l-0.1-0.1v-0.1l0,0l-0.1-0.1v-0.1l-0.1,0l0-0.1h-0.1
		l0-0.2l0-0.1l-0.1-0.1v0l0-0.2l0,0h-0.1l0-0.2l0-0.1h-0.1v-0.1h0l0-0.2l-0.1-0.4h-0.1v-0.3V235c0-0.3,0-0.6,0.1-0.9
		c0-0.3,0.1-0.5,0.1-0.8V233v-0.3h0.1v-0.1v-0.3h0.1v-0.1v-0.2h0V232v-0.3h0.1c0,0,0.1-0.1,0.1-0.1l0,0l0.1-0.1h0.2h11.2h0.3v0.2
		c0.1,0.1,0.1,0.1,0.1,0.2h0.1v0.3v0l0.4,0.5l0.2,0.1l0.1,0l0,0.1h0.2v0.1h1.6c0.3,0,0.6,0,1,0c1.2,0,2.6,0.1,3.4-0.2v-0.1h0.1v-0.1
		h0.1v-0.1h0.1v0h0.2l0.1-0.1h0v0h0.2l0,0l0,0v-0.1l0.1-0.1l0.1-0.1v-0.1l0.1-0.1l0,0v-0.1l0.1-0.1l0-0.1l0-0.1l0.1,0v-0.2h0.1V231
		h0.1l0-0.4l0-0.2h0v-0.2V230h0.1v-0.1l0-0.1c0.1-0.3,0.2-0.8,0.2-1.3c0-0.3,0-0.6-0.1-0.9h-0.1v-0.1h0l0-0.2l0-0.1l-0.1,0l-0.1-0.1
		V227l0,0l-0.1-0.1v-0.1l-0.3-0.2l0-0.1l0-0.1l-0.1,0l-0.2,0H472v-0.1l-0.1,0l-0.1,0h-0.2v-0.1l0,0l-0.2,0h0l-0.1,0
		c-0.1,0-0.3-0.1-0.4-0.1c-0.2,0-0.3,0-0.6,0H468h-7.5h-3l-0.1,0l-1-0.4l-0.1-0.1l0,0l-0.2-0.1l-0.1-0.1l0,0l-0.2-0.1l-0.1,0l0-0.1
		h-0.1l-0.1-0.1l0,0h-0.2v-0.2l0,0l-0.1-0.1v-0.1l0,0l-0.1-0.1v-0.1l-0.1-0.1h-0.1V224l-0.1-0.1l-0.4-1l0,0
		c-0.1-0.3-0.1-0.8-0.1-1.3c0-0.6,0.1-1.2,0.2-1.6l0.1-1l0-0.2h0l0-0.5l0,0c0.1-0.3,0.1-0.6,0.2-1c0-0.4,0.1-0.7,0.2-1V216v-0.3h0
		v-0.1v-0.3h0.1l0-0.5l0-0.2h0v-0.1v-0.2h0v-0.1v-0.3h0.1v-0.1l0-0.1c0-0.1,0.1-0.3,0.1-0.5c0-0.2,0.1-0.4,0.1-0.5v-0.3v-0.3h0V212
		h0.1v-0.2h0.1v-0.2h0v-0.2h0.1v-0.2h0V211h0.1l0,0l0-0.2v0l0.1-0.1l0-0.1l0.1-0.1l0,0v-0.1l0.1-0.1l0.1-0.1l0.3-0.3l0.1-0.1h0.1
		l0.1-0.2l0.1-0.1h0.1l0,0l0.1-0.1l0,0v-0.1h0.2l0.1,0l0.1,0v-0.1h0.2l0.2,0l0,0v0l0.2-0.1C458.3,208.9,458.4,208.9,458.4,208.9
		 M458.7,209.4c-0.1,0-0.2,0.1-0.2,0.1v0l-0.2,0l0,0v0.1h-0.2l-0.1,0l-0.1,0v0.1h-0.1l-0.2,0l-0.1,0l0,0.1l-0.1,0.1h-0.1l-0.1,0.2
		l-0.1,0.1h-0.1l-0.2,0.3l-0.1,0l0,0v0.1l-0.1,0.1l-0.1,0l0,0.1l0,0.1l-0.1,0v0.2h-0.1l0,0l0,0.2v0.2h-0.1v0.2h0v0.2H456v0.2h0v0.2
		h-0.1v0.2h0v0.1l0,0.1c0,0.1-0.1,0.3-0.1,0.5c0,0.2-0.1,0.4-0.1,0.5v0.3v0.2h-0.1v0.1v0.3h-0.1v0.1v0.3h-0.1l0,0.5l0,0.2h0v0.1v0.2
		h-0.1v0.1l0,0.1c-0.1,0.3-0.1,0.6-0.2,1c0,0.4-0.1,0.7-0.2,1l0,0.7l0,0.2h-0.1l-0.1,0.8l0,0c-0.1,0.3-0.2,0.9-0.2,1.5
		c0,0.4,0,0.8,0.1,1.1l0.4,0.9l0,0l0.1,0.1v0.1l0,0.1l0,0.1l0,0l0.1,0.1v0.1l0,0l0.1,0.1v0.1l0,0l0.1,0.1v0.1l0,0l0,0h0.1l0.1,0.1
		l0,0l0.2,0.1l0.1,0.1l0,0l0.2,0.1l0.1,0.1l0,0l0.9,0.3h3h7.5h2.3c0.2,0,0.4,0,0.6,0c0.2,0,0.3,0,0.5,0.1h0.2h0.2v0.1l0,0l0.2,0h0.2
		v0.1l0.1,0l0.1,0h0.2v0.1l0,0l0.1,0.1l0.1,0.1l0.3,0.3l0.1,0.1v0.1l0,0l0.1,0.1v0.1l0,0l0.1,0.2l0,0h0.1v0.2l0,0.1
		c0.1,0.3,0.2,0.8,0.2,1.2c0,0.5-0.1,1-0.2,1.4v0.3v0.3h0v0.1v0.3h-0.1l0,0.4l0,0.2h0v0.1h0v0l-0.1,0.1l0,0.1l0,0.1l-0.1,0v0.1
		l-0.1,0.1l0,0v0.1l-0.1,0.1l-0.1,0.1v0.2h-0.2l0,0l-0.1,0.1v0.1h-0.2l0,0.1h0v0.1h-0.1v0h-0.1v0.1H472v0.1h-0.3h-0.1
		c-0.9,0.3-2.3,0.3-3.6,0.3c-0.3,0-0.7,0-1,0h-1.9H465v-0.1h0l-0.1-0.1l0,0l-0.2-0.1l-0.1-0.1l-0.5-0.6h0l-0.1-0.2
		c0-0.1,0-0.1,0-0.2h-10.9v0.2h0v0.1v0.3H453v0.1v0.3H453v0.1v0.3h0v0.1l0,0.1c-0.1,0.2-0.1,0.5-0.1,0.7c0,0.3,0,0.5,0,0.8v0.4h0
		l0,0.2l0.1,0.4h0.1v0.1h0l0,0.2l0,0.1h0l0,0.2l0,0h0.1v0.2l0.1,0l0,0.1l0,0h0l0.1,0.2l0,0l0,0l0.1,0.1v0.1l0,0l0.1,0.1v0.1l0.1,0.1
		l0.1,0.1v0.1l0,0l0.1,0.1l0.2,0.1l0.1,0l0,0.1l0,0l0.2,0.1l0.1,0.1h0.2v0.1l0,0l0.2,0h0.2v0.1h0.1v0h0.1v0.1h0.2v0h0.2v0h0.2v0.1
		l1.3,0h3.2h13.4h4.6c0.1,0,0.3,0,0.5,0c0.5,0,1,0,1.3-0.1l0.1,0h0.1v0l0.2,0l0.4-0.1v-0.1h0.1v0l0.2,0l0.1,0v0l0.2,0l0,0v-0.1h0.2
		l0-0.1l0.1,0l0.1,0l0.1-0.1l0.1,0l0.2-0.2l0.1-0.1h0.1l0.2-0.3l0.1,0l0,0v-0.1l0.1-0.1l0.1,0l0-0.1l0-0.1l0.1-0.1l0-0.1l0-0.2h0.1
		l0,0l0-0.2h0l0,0l0-0.2h0l0-0.1l0-0.2h0l0-0.2l0-0.2h0v-0.1l0-0.1c0.1-0.2,0.1-0.4,0.1-0.7c0-0.3,0.1-0.5,0.1-0.7l0.1-1.5l0-0.2h0
		V232v-0.3h0.1v-0.1l0-0.1c0.1-0.4,0.1-0.8,0.2-1.2c0-0.4,0.1-0.9,0.2-1.3v-0.4v-0.2h0v-0.1v-0.3h0.1v-0.2v-0.2h0.1v-0.1v-0.3h0
		v-0.1v-0.2h0.1v-0.2v-0.3h0v-0.4c0-0.2,0-0.4,0-0.5c0-0.1-0.1-0.3-0.1-0.4h-0.1v-0.1h-0.1V225h0l0-0.2l0-0.1h0l0-0.2l0,0h-0.1
		l0-0.2l0-0.1l-0.1-0.1V224l0,0l-0.1-0.1v-0.1l-0.1-0.1h-0.1l-0.1-0.1l-0.1-0.1h-0.1l0-0.1h-0.1l-0.1-0.1l0,0h-0.1l-0.1-0.1l0,0
		l-0.2-0.1l-0.1-0.1l0,0l-0.8-0.3h-3.3h-6.8h-2.2c-0.2,0-0.2,0-0.2,0c-0.3,0-0.7,0-1-0.1l-0.6,0l-0.2,0v-0.1l0,0l-0.2,0h-0.2v-0.1
		l-0.1,0l-0.1,0h-0.2V222h0l-0.1,0l-0.1-0.1l0-0.1l-0.4-0.3l-0.1-0.1v-0.1l0,0l-0.1-0.1v-0.1l0,0l-0.1-0.1l0-0.1l0,0H466v-0.1h0
		l0-0.2l0-0.1h-0.1v-0.3V220c0-0.1-0.1-0.4-0.1-0.7c0-0.2,0-0.5,0-0.6l0-0.1v-0.1v-0.2h0v-0.1v-0.3h0.1v-0.2v-0.2h0v-0.1v-0.3h0.1
		l0-0.2l0-0.2h0v-0.2h0v-0.2h0.1l0.1-0.1l0-0.1l0-0.1l0.1,0V216l0.1,0v-0.1l0.1-0.1l0.1-0.1v-0.1l0.1-0.1l0.2-0.2l0-0.1l0.1-0.1h0.1
		l0,0l0.1-0.1v0l0,0h0h0l0.2,0h0v-0.1l0.2,0l0.1,0v-0.1h0.1v-0.1h0.2v0h0.2v-0.1h0.3h2.1h2.4l0,0l1.2,0l0.2,0v0.1h0l0.2,0v0.1
		c0.1,0,0.2,0,0.3,0.1h0.2v0.2l0,0.1c0,0.1,0.1,0.2,0.1,0.3c0,0.1,0,0.2,0,0.3h10.9l0,0c0,0,0,0,0-0.1c0-0.1,0-0.2,0-0.3l0-0.1v-0.1
		V215h0.1v-0.1v-0.3h0v-0.1v-0.2h0.1v-0.1v-0.3h0.1v-0.1v-0.2h0v-0.1l0-0.1c0.1-0.3,0.1-0.5,0-0.8c0-0.3-0.1-0.5-0.2-0.8l0,0
		l-0.1-0.3h-0.1v-0.1h0v-0.2l-0.1,0l0-0.1l0-0.1l-0.1,0l-0.1-0.1v-0.1l-0.1-0.1v-0.1l-0.5-0.4l-0.2-0.1l-0.1,0l0-0.1l0,0l-0.2-0.1
		l-0.1-0.1h-0.2v-0.1l-0.6-0.2h-1.8h-4.9H458.7z M477.7,207.8h-19.1c-0.1,0-0.2,0.1-0.2,0.1v0.1h-0.2l-0.2,0l0,0v0.1h-0.2l-0.2,0
		l0,0v0.1h-0.2l-0.1,0l-0.1,0v0.1H457l-0.2,0l-0.1,0l-0.1,0.1h-0.1l-0.1,0.2l-0.1,0.1h-0.1l-0.1,0.2l-0.1,0.1h-0.1l-0.1,0.2
		l-0.1,0.1h-0.1l-0.1,0.1v0.1l-0.1,0v0.1l-0.1,0.1l0,0v0.1l-0.1,0.1v0.1l-0.1,0.1l0,0.1l0,0.1l-0.1,0.1l0,0.1l0,0.2h-0.1v0l0,0.2h0
		l0,0.1l0,0c0,0.1-0.1,0.3-0.1,0.4c0,0.1-0.1,0.2-0.1,0.4v0.2v0.3h0v0.1v0.2h-0.1v0.1v0.3h0v0.1v0.2h-0.1v0.1l0,0.1
		c0,0.1-0.1,0.3-0.1,0.5c0,0.2-0.1,0.4-0.1,0.5l-0.1,1.4l0,0c-0.1,0.3-0.1,0.6-0.2,1c0,0.4-0.1,0.7-0.2,1l-0.1,0.7l0,0.1
		c0,0.1-0.1,0.3-0.1,0.5c0,0.2-0.1,0.4-0.1,0.5v0.3l0,0.1c-0.1,0.4-0.2,1.1-0.2,1.7c0,0.5,0,1,0.2,1.4l0.4,1l0,0l0.1,0.1v0h0.1v0.1
		h0v0.1h0.1v0.2l0.1,0.1l0.1,0.1v0.1l0.1,0v0.1l0,0l0.1,0.1v0.1l0.2,0.1l0.1,0.1v0.1l0.2,0.2l0.1,0.1l0,0l0.2,0.1l0.1,0.1l0,0
		l0.2,0.1l0.1,0l0,0.1l0,0l0.2,0.1l0.1,0.1h0.2v0.1h0.1v0h0.2v0.1h0.1v0h0.1v0.1l0.1,0l0.2,0v0.1c0.6,0.2,1.6,0.1,2.5,0.1
		c0.3,0,0.6,0,0.8,0h7.4h2.6c0.2,0,0.5,0,0.8,0c0.3,0,0.5,0.1,0.6,0.2c0.2,0.1,0.3,0.2,0.3,0.3l0,0l0,0l0.1,0.1v0h0.1v0.1h0v0.2
		l0,0.1c0,0.1,0.1,0.4,0,0.6c0,0.3-0.1,0.6-0.1,0.8v0.4v0.3h-0.1v0.1v0.3h0v0.1v0.3h-0.1v0.2H472v0.1h0v0l-0.1,0.1v0.1l-0.1,0.1
		l-0.3,0.2l0,0v0.1h-0.1v0.1h-0.2v0h-0.3v0.1h-0.3h-3.3c-0.1,0-0.2,0-0.3,0c-0.5,0-1,0-1.3-0.1l-0.1-0.1v-0.2v-1l0,0h-10h-2.8
		c0,0-0.2,0-0.3,0c-0.3,0-0.6,0-0.8,0c0,0.2,0,0.5,0,0.7c0,0.3-0.1,0.5-0.1,0.7l0,0.7l0,0.2h0v0.1l0,0.1c-0.1,0.2-0.1,0.4-0.1,0.7
		c0,0.2-0.1,0.5-0.1,0.7v1.1h0.1v0.2h0.1v0.2h0v0.2h0v0.2h0.1v0.1h0l0,0.2l0,0.1h0.1v0.2l0,0.1l0.1,0.4l0,0l0.1,0.1l0.1,0.2l0,0
		l0.1,0.1v0.1l0,0l0.1,0.1v0.1l0.1,0v0.1l0,0l0.1,0.1v0.1l0.2,0.1l0.1,0.1v0.1l0.2,0.2l0.1,0.1l0,0l0.2,0.1l0.1,0l0,0.1l0,0l0.2,0.1
		l0.1,0.1l0,0l0.2,0.1l0.1,0l0,0.1h0.2v0h0.1v0.1l1,0.3h0.3l0.1,0c0.4,0.1,0.9,0.1,1.4,0.1l0.3,0h4h13h4.5v0h0.2
		c0.8,0,1.6,0,2.1-0.2l0,0l0.2,0V240h0.1v-0.1h0.2v0h0.1v-0.1h0.2l0.1,0l0.4-0.1l0,0l0.1-0.1l0.2-0.1l0,0l0.1-0.1h0.1l0.1-0.2
		l0.1-0.1h0.1l0.1-0.2l0.1-0.1h0.1l0.1-0.2l0.1-0.1h0.1l0.1-0.1v-0.1l0.1,0v-0.1l0.1-0.1l0,0V238l0.1-0.1l0,0l0-0.1l0.1-0.2h0l0,0
		l0-0.1l0.1,0l0-0.1l0-0.2h0.1l0-0.1l0.1-0.2h0l0.3-1.1v-0.4v-0.2h0.1v-0.2v-0.3h0.1v-0.1v-0.3h0v-0.1v-0.3h0.1l0.1-1.3l0,0
		c0.1-0.3,0.1-0.7,0.2-1.1c0-0.4,0.1-0.8,0.2-1.1v-0.4l0-0.1c0.1-0.2,0.1-0.4,0.1-0.7c0-0.2,0.1-0.5,0.1-0.7v-0.4v-0.3h0V228v-0.2
		h0.1v-0.2l0-0.1c0.1-0.2,0.1-0.4,0.1-0.6c0-0.2,0-0.4,0-0.7v-0.6h0v-0.2h-0.1v-0.2h0V225h0l0-0.2l0-0.1h-0.1v-0.1h0l0-0.2l0-0.1
		h-0.1v-0.1h-0.1V224l0-0.2l0,0h-0.1v-0.2h0v-0.1h-0.1v-0.2l0,0l-0.1-0.1v-0.1l-0.1-0.1V223l0,0l-0.1-0.1v-0.1l-0.6-0.6h0h-0.1
		l-0.1-0.1l0,0h-0.1l-0.1-0.1h-0.1l-0.1-0.1l0,0l-0.1,0l-0.2-0.1v0l-0.1,0l-0.1-0.1h-0.2v-0.1h-0.1v0h-0.2v-0.1h0l-0.2,0h-0.2v-0.1
		h-0.1v0h-0.2v-0.1h-0.2v-0.1h-0.2v0h-10.3h-2h-0.2c-0.3,0-0.6,0-0.9-0.1h-0.2h-0.2v0h-0.2v-0.1l0,0l-0.2,0v-0.1
		c-0.1-0.1-0.1-0.1-0.2-0.2l0,0l0,0l-0.1-0.1v0h-0.1v-0.1h0V220l0-0.1c0-0.2-0.1-0.4,0-0.6c0-0.3,0.1-0.7,0.1-0.8v-0.4v-0.3h0.1
		v-0.1l0-0.1l0.2-0.5l0.1-0.2h0.1l0-0.1l0.1-0.1l0,0v-0.2h0.2l0,0l0.1-0.1l0.7-0.2l0.1,0h3.7c0.1,0,0.3,0,0.4,0c0.5,0,1.1,0,1.4,0.1
		l0.1,0.1v0.2c0,0.1,0,0.1,0,0.2c0,0.3,0,0.5,0,0.7h9.6h2.7c0,0,0.2,0,0.3,0c0.3,0,0.5,0,0.7,0c0-0.2,0-0.5,0-0.7
		c0-0.3,0.1-0.5,0.1-0.7v-0.3v-0.3h0.1v-0.1v-0.3h0V215v-0.3h0v-0.1l0-0.1c0.1-0.2,0.1-0.4,0.1-0.7c0-0.2,0.1-0.5,0.1-0.7v-0.3h0
		v-0.3v-0.1h-0.1v-0.3h0V212h0l0-0.2l-0.2-0.8h0l0-0.2l0,0h-0.1v-0.2l-0.1,0l0-0.1l-0.1-0.2l0,0l-0.1-0.1v-0.1l-0.1,0v-0.1l0,0
		l-0.1-0.1v-0.1l-0.1,0v-0.1l-0.3-0.3l0,0l-0.3-0.4l-0.2-0.1l-0.1,0l0-0.1l0,0l-0.2-0.1l-0.1-0.1l0,0l-0.2-0.1l-0.1,0l0-0.1h-0.2
		v-0.1h-0.1v0h-0.2v-0.1h0l-0.2,0h-0.2v0h-0.1V208h-0.2v0h-0.2v-0.1h-0.2v0H477.7z M458.5,207.3h19.2h6.7h0.3v0.1h0.2v0h0.2v0.1h0.2
		v0h0.1v0.1h0.2v0.1l0,0l0.2,0h0.2v0.1h0.1v0.1h0l0.1,0.1l0,0l0.2,0.1l0.1,0.1l0,0l0.2,0.1l0.1,0l0,0.1l0,0l0.2,0.1l0.1,0.1l0.3,0.4
		l0.4,0.3l0.1,0.1v0.1l0.1,0.1v0.1l0,0l0.1,0.1v0.1l0.1,0.1v0.1l0.1,0l0,0.1l0.1,0.2l0,0l0.1,0.1v0l0,0.2l0,0h0.1l0,0.2l0.2,0.8h0.1
		v0.2h0.1v0.2h0v0.3v0.2h0.1v0.2v0.6l0,0.1c-0.1,0.2-0.1,0.4-0.1,0.7c0,0.2-0.1,0.5-0.1,0.7v0.3v0.3h0v0.1v0.3h-0.1v0.1v0.3h0v0.1
		l0,0.1c-0.1,0.2-0.1,0.4-0.1,0.7c0,0.3,0,0.5,0,0.8v0.2l-0.1,0.1c-0.3,0.1-0.7,0.1-1.1,0.1c-0.1,0-0.1,0-0.3,0h-2.7h-9.8h-0.2
		l-0.1-0.1c-0.1-0.3-0.1-0.7-0.1-1.1l0,0c-0.3-0.1-0.6,0-1,0c-0.2,0-0.3,0-0.4,0H469l-0.5,0.2l0,0.1l0,0v0.1l-0.1,0.1l-0.1,0.1
		l-0.1,0.2l-0.1,0.2h0l-0.1,0.3v0.3v0.3h0v0.1l0,0.1c0,0.1-0.1,0.4-0.1,0.7c0,0.1,0,0.2,0,0.2h0.1v0.1h0.1v0.1h0v0.2l0.1,0.1
		c0,0,0.1,0.1,0.1,0.1c0,0,0,0.1,0.1,0.1l0.2,0.1v0l0,0l0.2,0v0h0.1v0.1l0.1,0c0.2,0.1,0.5,0,0.8,0h0l0.2,0h2h10.6h0.2v0.1h0.2v0
		h0.2v0.1h0.2v0h0.1v0.1h0.2v0.1l0,0l0.2,0h0.2v0h0.1v0.1h0l0.1,0.1l0,0l0.2,0.1l0.2,0.1v0l0.1,0l0,0.1h0.1l0.1,0.1h0.1l0.1,0.1
		l0,0.1l0.1,0l0.8,0.7l0.1,0.1v0.1l0,0l0.1,0.1v0.1l0.1,0.1v0.1l0,0l0.1,0.1h0.1v0.1h0.1v0.2l0,0.2l0,0h0.1v0.2h0v0.1h0l0,0.2l0,0.1
		h0.1v0.1h0l0,0.2l0,0.1h0.1v0.2h0.1v0.2h0.1v0.2h0v0.3v0.9c0,0.3,0,0.5,0,0.8c0,0.2-0.1,0.4-0.1,0.6v0.4v0.3h0v0.1v0.3h0v0.2l0,0.1
		c-0.1,0.2-0.1,0.4-0.1,0.7c0,0.2-0.1,0.5-0.1,0.7v0.4l0,0.1c-0.1,0.3-0.1,0.7-0.2,1.1c0,0.4-0.1,0.8-0.2,1.1l-0.1,1.5l0,0.2h0v0.1
		v0.3H486v0.1v0.3h-0.1v0.1v0.3h0v0.2l0,0.1l-0.4,1.3l-0.1,0.2h-0.1l0,0.1l-0.1,0.2h0v0l0,0.1l-0.1,0l0,0.1l0,0.2h-0.1l-0.1,0.1v0.1
		l-0.1,0.1l0,0v0.1l-0.1,0v0.2h-0.2l-0.1,0.1l-0.1,0.1h-0.1l-0.1,0.2l-0.1,0.1h-0.1l-0.1,0.2l-0.1,0.1h-0.1l-0.1,0.2l-0.1,0.1h-0.1
		l0,0.1l-0.1,0L483,240l0,0l-0.1,0.1l-0.3,0.1v0.1h-0.1v0h-0.2v0.1h-0.2v0h-0.1v0l-0.2,0l-0.4,0c-0.6,0.2-1.4,0.2-2.3,0.2H479v0
		h-4.5h-13h-4h-0.3c-0.5,0-1.1,0-1.5-0.1h-0.3l-0.1,0l-1.3-0.4l-0.1,0h-0.2v-0.1h0l-0.1-0.1l0,0l-0.2-0.1l-0.1-0.1l0,0l-0.2-0.1
		l-0.1,0l0-0.1l0,0l-0.2-0.1l-0.1,0l0-0.1l0-0.1l-0.3-0.2l-0.1-0.1V239l-0.2-0.1l-0.1-0.1v-0.1l0,0l-0.1-0.1v-0.1l-0.1-0.1v-0.1l0,0
		l-0.1-0.1v-0.1l-0.1-0.1l-0.1-0.2l0,0l-0.1-0.1l-0.1-0.3h-0.1v-0.1h0l0-0.2l0-0.1h-0.1v-0.1h0v-0.2h-0.1v-0.2h0v-0.2h-0.1v-0.2h0
		v-0.3v-1.4l0-0.1c0.1-0.2,0.1-0.4,0.1-0.7c0-0.2,0.1-0.5,0.1-0.7v-0.3v-0.3h0.1l0-0.5l0-0.1c0.1-0.2,0.1-0.4,0.1-0.7
		c0-0.3,0-0.5,0-0.8v-0.2l0.1-0.1c0.3-0.2,0.7-0.1,1.1-0.1c0.1,0,0.1,0,0.3,0h2.8h10.1h0.1l0.1,0.1l0.2,0.1l0.1,0.1v0.1v0.9
		c0.2,0.1,0.6,0,0.9,0c0.1,0,0.3,0,0.3,0h3.1v0h0.2h0v-0.1h0.1v0h0.2v-0.1h0.2h0l0.1-0.1v-0.1l0.1,0v-0.2h0.1v-0.1h0.1v-0.2h0v-0.1
		V230h0v-0.1v-0.2h0.1v-0.2l0-0.1c0-0.1,0.1-0.4,0.1-0.7c0-0.1,0-0.2,0-0.2h-0.1v-0.2h0v-0.1h-0.1v-0.2l-0.1,0
		c0-0.1-0.1-0.1-0.1-0.1c0,0,0-0.1-0.1-0.1l-0.1-0.1c-0.1-0.1-0.2-0.1-0.4-0.1c-0.2,0-0.5,0-0.7,0h-2.6h-7.4c-0.3,0-0.6,0-0.8,0
		c-1,0-2.2,0.1-2.8-0.2l-0.2-0.1v0l-0.1,0l-0.2,0v0H456v-0.1h-0.2v0h-0.1V227h-0.1v0h0l-0.1-0.1l0,0l-0.2-0.1l-0.1,0l0-0.1l0,0
		l-0.2-0.1l-0.1-0.1l0,0l-0.2-0.1l-0.1-0.1l0-0.1l-0.3-0.2l-0.1-0.1v-0.1l-0.2-0.1l-0.1-0.1v-0.1l0,0l-0.1-0.1v-0.1l-0.1-0.1v-0.1
		l-0.1-0.1l-0.1,0h-0.1v-0.1h-0.1v-0.1h0v-0.2l-0.1-0.1l-0.5-1.1l0,0c-0.1-0.4-0.2-1-0.2-1.6c0-0.7,0.1-1.3,0.2-1.8v-0.3l0-0.1
		c0-0.1,0.1-0.3,0.1-0.5c0-0.2,0.1-0.4,0.1-0.5l0-0.7l0-0.1c0.1-0.3,0.1-0.6,0.2-1c0-0.4,0.1-0.7,0.2-1l0.1-1.4l0,0
		c0-0.1,0.1-0.3,0.1-0.5c0-0.2,0.1-0.4,0.1-0.5V213v-0.3h0v-0.1v-0.3h0.1v0v-0.3h0v-0.1v-0.2h0.1l0,0c0-0.1,0.1-0.2,0.1-0.4
		c0-0.1,0.1-0.3,0.1-0.4l0-0.3l0-0.2h0.1l0,0l0-0.2h0.1v0l0-0.1l0.1-0.1l0-0.1l0-0.1l0.1,0v-0.1l0.1,0v-0.1l0.1-0.1l0,0v-0.1
		l0.1-0.1v-0.2h0.2l0.1-0.1l0.1-0.1h0.1l0.1-0.2l0.1-0.1h0.1l0.1-0.2l0.1-0.1h0.1l0.1-0.2l0.1-0.1h0.1l0-0.1l0.1,0l0,0V208h0.2
		l0.1,0l0.1,0v-0.1h0.2l0.2,0l0,0v-0.1h0.2l0.2,0l0,0v-0.1h0.2h0l0.1,0c0.1,0,0.2,0,0.2,0c0,0,0.1,0,0.1,0L458.5,207.3z"/>
	
		<path style="clip-path:url(#SVGID_00000078043915781397748060000010121050305982759841_);fill-rule:evenodd;clip-rule:evenodd;fill:#EF7D00;" d="
		M285.1,192.2l4-3.3l0,0c0.3-0.2,0.4-0.5,0.3-0.8c-0.1-0.3-0.4-0.5-0.8-0.5l0,0l-5.1-0.3L285.1,192.2z"/>
	
		<path style="clip-path:url(#SVGID_00000078043915781397748060000010121050305982759841_);fill-rule:evenodd;clip-rule:evenodd;fill:#EF7D00;" d="
		M273.7,199.5l2,4.8h0c0.1,0.3,0.4,0.6,0.7,0.6c0.3,0,0.6-0.2,0.7-0.6h0l1.8-4.8L273.7,199.5z"/>
	
		<path style="clip-path:url(#SVGID_00000078043915781397748060000010121050305982759841_);fill-rule:evenodd;clip-rule:evenodd;fill:#EF7D00;" d="
		M278.7,199.7l4.3,2.9l0,0c0.3,0.2,0.6,0.3,0.9,0.1c0.3-0.2,0.4-0.5,0.3-0.9l0,0l-1.2-5L278.7,199.7z"/>
	
		<path style="clip-path:url(#SVGID_00000078043915781397748060000010121050305982759841_);fill-rule:evenodd;clip-rule:evenodd;fill:#EF7D00;" d="
		M283,197.1l5.2-0.3l0,0c0.3,0,0.7-0.2,0.8-0.5c0.1-0.3,0-0.7-0.3-0.8l0,0l-3.9-3.3L283,197.1z"/>
	
		<path style="clip-path:url(#SVGID_00000078043915781397748060000010121050305982759841_);fill-rule:evenodd;clip-rule:evenodd;fill:#EF7D00;" d="
		M284.4,187.3l2.4-4.6l0,0c0.2-0.3,0.2-0.6,0-0.9c-0.2-0.2-0.6-0.3-0.9-0.2l0,0l-4.9,1.7L284.4,187.3z"/>
	
		<path style="clip-path:url(#SVGID_00000078043915781397748060000010121050305982759841_);fill-rule:evenodd;clip-rule:evenodd;fill:#EF7D00;" d="
		M281.5,183.4l-0.7-5.1l0,0c0-0.3-0.2-0.6-0.5-0.7s-0.6,0.1-0.8,0.4l0,0l-2.9,4.2L281.5,183.4z"/>
	
		<path style="clip-path:url(#SVGID_00000078043915781397748060000010121050305982759841_);fill-rule:evenodd;clip-rule:evenodd;fill:#EF7D00;" d="
		M276.6,181.8l-3.3-4l0,0c-0.2-0.3-0.5-0.4-0.8-0.3c-0.3,0.1-0.5,0.4-0.5,0.8l0,0l-0.3,5.1L276.6,181.8z"/>
	
		<path style="clip-path:url(#SVGID_00000078043915781397748060000010121050305982759841_);fill-rule:evenodd;clip-rule:evenodd;fill:#EF7D00;" d="
		M271.9,183.1l-4.9-1.6l0,0c-0.3-0.1-0.7-0.1-0.9,0.2c-0.2,0.3-0.2,0.6,0,0.9l0,0l2.5,4.5L271.9,183.1z"/>
	
		<path style="clip-path:url(#SVGID_00000078043915781397748060000010121050305982759841_);fill-rule:evenodd;clip-rule:evenodd;fill:#EF7D00;" d="
		M268.3,186.7l-4.9,1.6v0c-0.3,0.1-0.6,0.3-0.6,0.7c0,0.3,0.2,0.6,0.5,0.7v0l4.7,2.2L268.3,186.7z"/>
	
		<path style="clip-path:url(#SVGID_00000078043915781397748060000010121050305982759841_);fill-rule:evenodd;clip-rule:evenodd;fill:#EF7D00;" d="
		M267.6,191.8l-3.5,3.8l0,0c-0.3,0.2-0.4,0.6-0.2,0.9c0.1,0.3,0.5,0.4,0.8,0.4l0,0l5.1-0.5L267.6,191.8z"/>
	
		<path style="clip-path:url(#SVGID_00000078043915781397748060000010121050305982759841_);fill-rule:evenodd;clip-rule:evenodd;fill:#EF7D00;" d="
		M269.8,196.6l-1.5,4.9l0,0c-0.1,0.3-0.1,0.7,0.2,0.9c0.3,0.2,0.6,0.2,0.9,0l0,0l4.5-2.6L269.8,196.6z"/>
	
		<path style="clip-path:url(#SVGID_00000078043915781397748060000010121050305982759841_);fill-rule:evenodd;clip-rule:evenodd;fill:#EF7D00;" d="
		M276.1,186c2.5,0,4.5,2,4.5,4.5c0,1.7-0.9,3.2-2.3,4v1.8h-4.4v-1.8c-1.4-0.8-2.3-2.3-2.3-4C271.6,188,273.6,186,276.1,186
		 M276.4,181.5c5.2,0,9.5,4.3,9.5,9.5c0,5.2-4.3,9.5-9.5,9.5s-9.5-4.3-9.5-9.5C266.8,185.7,271.1,181.5,276.4,181.5"/>
	
		<path style="clip-path:url(#SVGID_00000078043915781397748060000010121050305982759841_);fill-rule:evenodd;clip-rule:evenodd;fill:#13110C;" d="
		M397.4,226.9c-0.1,0.1-0.2,0-0.4,0.1v0.1h-0.1v0h-0.2v0.1h-0.2v0c-0.1,0-0.2,0-0.4,0.1v0h-0.2c-0.8,0.3-1.8,0.5-2.6,0.8h-0.2v0.1
		h-0.2v0h-0.1v0.1h-0.2v0c-0.1,0-0.3,0-0.4,0.1v0.1c-0.1,0-0.2,0.1-0.3,0.1v0h-0.1c-0.1,0.1-0.2,0.2-0.2,0.3v0.1h-0.1v0.2h0v0.1
		h-0.1v0.1h0v0.3h-0.1v0.4h-0.1v0.4h0c0,0.3-0.1,0.7-0.1,1c0.4,0.2,1.2,0.1,1.8,0.1h4c0.1-0.1,0.1-0.1,0.1-0.3
		c0.1-0.1,0-0.5,0.1-0.7h0.1v-0.4h0v-0.4h0.1v-0.4h0v-0.4h0v-0.4h0.1c0.1-0.6,0.1-1.1,0.2-1.7C397.5,227,397.5,227,397.4,226.9
		 M399.2,224.9c0.1,0,0.1,0.1,0.2,0.1c-0.2,1.1-0.3,2.3-0.5,3.4c-0.1,0.5-0.1,1-0.2,1.5h-0.1v0.4h0v0.4h-0.1v0.4h0v0.4h0v0.4
		c-0.1,0.4-0.1,0.8-0.2,1.3c-0.4,0.2-1.9,0.1-2.6,0.1h-6.2c-0.1-0.3-0.1-0.7-0.1-1.1c0.1-0.2,0-0.6,0.1-0.8h0v-0.4h0.1v-0.4h0V230h0
		v-0.4h0.1c0-0.2,0-0.4,0.1-0.7h0v-0.2h0.1c0-0.1,0-0.2,0-0.3h0.1v-0.1h0.1v-0.2h0v-0.1h0.1c0-0.1,0-0.2,0-0.2c0,0,0.1-0.1,0.2-0.1
		c0.1-0.1,0.2-0.3,0.4-0.4h0.1c0,0,0.1-0.1,0.1-0.1h0.1c0-0.1,0.1-0.1,0.1-0.2c0.1,0,0.2,0,0.3,0V227h0.1V227h0.2v0h0.2v-0.1h0.1v0
		h0.2v-0.1c0.2,0,0.4-0.1,0.6-0.1v0c0.1,0,0.3,0,0.4-0.1c1.3-0.5,2.9-0.7,4.2-1.2c0.1,0,0.3,0,0.4-0.1v0h0.1v-0.1h0.2v0h0.2v-0.1
		h0.3v-0.1h0.2v0C398.9,225,399.1,225,399.2,224.9"/>
	
		<path style="clip-path:url(#SVGID_00000078043915781397748060000010121050305982759841_);fill-rule:evenodd;clip-rule:evenodd;fill:#13110C;" d="
		M357.3,216.4c-0.2,0.1-0.4,0.1-0.7,0.2c-0.1,0.1-0.2,0.3-0.4,0.4v0.2h-0.1v0.1h-0.1v0.2h0v0.1h-0.1v0.4h0c0,0.2,0,0.3-0.1,0.5h0.1
		c0.1,0.2,1.1,0.1,1.4,0.1h4.2c0.1-0.2,0.1-0.1,0.1-0.4h0.1V218h0c0.1-0.3-0.1-0.9-0.2-1.1c0,0-0.1,0-0.1,0
		c-0.1-0.1-0.1-0.2-0.2-0.3c-0.1,0-0.2-0.1-0.3-0.1v-0.1h-0.2v0c-0.3-0.1-0.8-0.1-1.2-0.1H357.3 M357.3,214.9h2.6
		c0.5,0,0.9,0,1.3,0.1h0.2v0.1h0.2v0h0.1v0.1h0.2v0c0.1,0,0.2,0.1,0.3,0.1v0.1c0.1,0,0.1,0,0.2,0.1c0.1,0.1,0.3,0.3,0.4,0.4
		c0.1,0.1,0.1,0.1,0.2,0.2v0.1c0.1,0,0.1,0.1,0.1,0.1c0,0.1,0,0.1,0.1,0.2h0c0,0.1,0,0.1,0.1,0.2h0.1v0.1h0v0.1h0.1v0.3h0v0.2h0.1
		v0.9c-0.2,0.6-0.2,1.1-0.3,1.8c-0.4,0.2-1.9,0.1-2.5,0.1h-6.1c-0.2-0.3-0.1-0.9-0.1-1.4c0.1-0.2,0-0.6,0.1-0.8h0v-0.4h0.1
		c0-0.1,0-0.3,0-0.5h0.1v-0.1h0v-0.2h0.1v-0.1h0v-0.1h0.1c0-0.1,0.1-0.3,0.1-0.5c0.1-0.1,0.1-0.1,0.2-0.2v-0.1c0,0,0.1-0.1,0.1-0.1
		c0.1-0.1,0.1-0.2,0.2-0.3h0.1v0h0.1c0,0,0-0.1,0-0.1c0.1,0,0.2-0.1,0.3-0.1v0h0.2v-0.1C356.6,215,356.9,215,357.3,214.9"/>
</g>
</svg>
